<svg width="48" height="49" viewBox="0 0 48 49" fill="none" xmlns="http://www.w3.org/2000/svg"><g clip-path="url(#clip0_3505_3736)"><path d="M23.9969 48.0702C37.086 48.0702 47.6969 37.4593 47.6969 24.3702C47.6969 11.281 37.086 0.670166 23.9969 0.670166C10.9077 0.670166 0.296875 11.281 0.296875 24.3702C0.296875 37.4593 10.9077 48.0702 23.9969 48.0702Z" fill="#F5D03C"/><path d="M48 24.25V24.37C48 37.63 37.26 48.37 24 48.37C13.68 48.37 4.86 41.83 1.5 32.65C6.9 36.37 13.44 38.53 20.52 38.53C31.86 38.53 41.94 32.89 48 24.25Z" fill="#DE951F"/><path d="M23.9969 48.0702C37.086 48.0702 47.6969 37.4593 47.6969 24.3702C47.6969 11.281 37.086 0.670166 23.9969 0.670166C10.9077 0.670166 0.296875 11.281 0.296875 24.3702C0.296875 37.4593 10.9077 48.0702 23.9969 48.0702Z" stroke="#002C15" stroke-width="1.2" stroke-miterlimit="10"/><g clip-path="url(#clip1_3505_3736)"><path d="M26.2097 28.3261C27.0819 26.8724 28.6326 25.9032 30.3771 25.9032C33.0907 25.9032 35.2229 28.0354 35.2229 30.749C35.2229 33.4627 33.0907 35.5948 30.3771 35.5948C28.5357 35.5948 26.985 34.6257 26.2097 33.1719M30.3771 32.6873L32.3154 30.749M32.3154 30.749L30.3771 28.8107M32.3154 30.749H25.5312" stroke="#011530" stroke-width="1.5" stroke-linecap="round" stroke-linejoin="round"/><path d="M16.326 31.6212C16.0352 31.6212 15.7445 31.6212 15.6476 31.5243C15.6476 31.4274 15.6476 31.1366 15.6476 30.8459V30.0706C15.6476 29.7798 15.6476 29.4891 15.7445 29.3921C15.8414 29.3921 16.1322 29.3921 16.4229 29.3921H23.4009C23.4978 28.8106 23.6916 28.3261 23.8855 27.7446H21.9471V21.7358H25.1454V26.0001C25.63 25.5155 26.1145 25.0309 26.793 24.6432V21.7358H29.5066V23.6741C29.7974 23.6741 30.185 23.5772 30.4758 23.5772C30.6696 23.5772 30.8634 23.5772 31.0573 23.5772V21.7358C31.4449 21.7358 31.7357 21.7358 32.0264 21.5419C32.3172 21.3481 32.6079 21.0573 32.8018 20.7666C32.9956 20.3789 32.9956 19.9913 32.9956 19.4098V18.3437C32.9956 17.8591 32.9956 17.4714 32.8987 17.1807C32.8018 16.8899 32.6079 16.5992 32.3172 16.4054C32.0264 16.2115 31.7357 16.1146 31.2511 16.0177L24.0793 14.467C23.7885 14.3701 23.6916 14.3701 23.5947 14.3701C23.4978 14.3701 23.4009 14.3701 23.304 14.3701C23.207 14.3701 23.1101 14.3701 22.9163 14.467L15.8414 16.0177C15.3568 16.1146 15.0661 16.2115 14.7753 16.4054C14.4846 16.5992 14.2907 16.8899 14.0969 17.1807C14 17.4714 14 17.7622 14 18.3437V19.4098C14 19.9913 14 20.3789 14.1938 20.7666C14.3877 21.0573 14.6784 21.3481 14.9692 21.5419C15.2599 21.6388 15.5507 21.7358 15.9383 21.7358V27.8415C15.5507 27.8415 15.2599 27.8415 14.9692 28.0353C14.6784 28.2291 14.3877 28.5199 14.1938 28.8106C14 29.1983 14 29.4891 14 30.1675V30.9428C14 31.5243 14 31.912 14.1938 32.2996C14.3877 32.5904 14.6784 32.8811 14.9692 33.075C15.3568 33.2688 15.7445 33.2688 16.326 33.2688H23.6916C23.4978 32.7842 23.4009 32.2027 23.304 31.6212H16.326ZM20.2026 27.8415H17.5859V21.7358H20.2996V27.8415H20.2026ZM15.6476 20.0882C15.6476 19.9913 15.6476 19.7005 15.6476 19.4098V18.3437C15.6476 18.1499 15.6476 17.8591 15.7445 17.7622C15.8414 17.7622 16.0352 17.6653 16.2291 17.6653L23.304 16.1146H23.4978L30.7665 17.7622C30.9604 17.7622 31.2511 17.8591 31.348 17.956C31.348 18.0529 31.348 18.2468 31.348 18.5375V19.6036C31.348 19.8943 31.348 20.1851 31.2511 20.282C31.1542 20.282 30.8634 20.282 30.5727 20.282H16.326C16.0352 20.0882 15.7445 20.0882 15.6476 20.0882Z" fill="#011530"/></g></g><defs><clipPath id="clip0_3505_3736"><rect width="48" height="48" fill="#fff" transform="translate(0 0.370117)"/></clipPath><clipPath id="clip1_3505_3736"><rect width="22" height="22" fill="#fff" transform="translate(14 14.3701)"/></clipPath></defs></svg>