<svg width="50" height="50" viewBox="0 0 50 50" fill="none" xmlns="http://www.w3.org/2000/svg"><path d="M25.0008 48.6998C38.0899 48.6998 48.7008 38.089 48.7008 24.9998C48.7008 11.9107 38.0899 1.2998 25.0008 1.2998C11.9116 1.2998 1.30078 11.9107 1.30078 24.9998C1.30078 38.089 11.9116 48.6998 25.0008 48.6998Z" fill="#F5CA3C"/><path d="M49 24.8799V24.9999C49 38.2599 38.26 48.9999 25 48.9999C14.68 48.9999 5.86 42.4599 2.5 33.2799C7.9 36.9999 14.44 39.1599 21.52 39.1599C32.86 39.1599 42.94 33.5199 49 24.8799Z" fill="#DEAB1F"/><path d="M25.0008 48.6998C38.0899 48.6998 48.7008 38.089 48.7008 24.9998C48.7008 11.9107 38.0899 1.2998 25.0008 1.2998C11.9116 1.2998 1.30078 11.9107 1.30078 24.9998C1.30078 38.089 11.9116 48.6998 25.0008 48.6998Z" stroke="#002C15" stroke-miterlimit="10"/><path d="M25 34L24.8999 33.8499C24.2053 32.808 23.858 32.287 23.3991 31.9098C22.9929 31.5759 22.5248 31.3254 22.0216 31.1726C21.4533 31 20.8271 31 19.5748 31H18.2C17.0799 31 16.5198 31 16.092 30.782C15.7157 30.5903 15.4097 30.2843 15.218 29.908C15 29.4802 15 28.9201 15 27.8V19.2C15 18.0799 15 17.5198 15.218 17.092C15.4097 16.7157 15.7157 16.4097 16.092 16.218C16.5198 16 17.0799 16 18.2 16H18.6C20.8402 16 21.9603 16 22.816 16.436C23.5686 16.8195 24.1805 17.4314 24.564 18.184C25 19.0397 25 20.1598 25 22.4M25 34V22.4M25 34L25.1001 33.8499C25.7947 32.808 26.142 32.287 26.6009 31.9098C27.0071 31.5759 27.4752 31.3254 27.9784 31.1726C28.5467 31 29.1729 31 30.4252 31H31.8C32.9201 31 33.4802 31 33.908 30.782C34.2843 30.5903 34.5903 30.2843 34.782 29.908C35 29.4802 35 28.9201 35 27.8V19.2C35 18.0799 35 17.5198 34.782 17.092C34.5903 16.7157 34.2843 16.4097 33.908 16.218C33.4802 16 32.9201 16 31.8 16H31.4C29.1598 16 28.0397 16 27.184 16.436C26.4314 16.8195 25.8195 17.4314 25.436 18.184C25 19.0397 25 20.1598 25 22.4" stroke="#011530" stroke-width="1.5" stroke-linecap="round" stroke-linejoin="round"/></svg>