<svg width="40" height="40" viewBox="0 0 40 40" fill="none" xmlns="http://www.w3.org/2000/svg"><g clip-path="url(#clip0_3637_2271)"><path d="M20 39.75C30.9076 39.75 39.75 30.9076 39.75 20C39.75 9.09238 30.9076 0.25 20 0.25C9.09238 0.25 0.25 9.09238 0.25 20C0.25 30.9076 9.09238 39.75 20 39.75Z" fill="#F5D03C"/><path d="M40 19.9004V20.0004C40 31.0504 31.05 40.0004 20 40.0004C11.4 40.0004 4.05 34.5504 1.25 26.9004C5.75 30.0004 11.2 31.8004 17.1 31.8004C26.55 31.8004 34.95 27.1004 40 19.9004Z" fill="#DEAE1F"/><path d="M20 39.75C30.9076 39.75 39.75 30.9076 39.75 20C39.75 9.09238 30.9076 0.25 20 0.25C9.09238 0.25 0.25 9.09238 0.25 20C0.25 30.9076 9.09238 39.75 20 39.75Z" stroke="#002C15" stroke-miterlimit="10"/><path d="M23 27.5V23C23 22.5333 23 22.2999 22.9092 22.1217C22.8293 21.9649 22.7018 21.8374 22.545 21.7575C22.3667 21.6667 22.1334 21.6667 21.6667 21.6667H19.3333C18.8666 21.6667 18.6333 21.6667 18.455 21.7575C18.2982 21.8374 18.1707 21.9649 18.0908 22.1217C18 22.2999 18 22.5333 18 23V27.5M13 15.8333C13 17.214 14.1193 18.3333 15.5 18.3333C16.8807 18.3333 18 17.214 18 15.8333C18 17.214 19.1193 18.3333 20.5 18.3333C21.8807 18.3333 23 17.214 23 15.8333C23 17.214 24.1193 18.3333 25.5 18.3333C26.8807 18.3333 28 17.214 28 15.8333M15.6667 27.5H25.3333C26.2668 27.5 26.7335 27.5 27.09 27.3183C27.4036 27.1586 27.6586 26.9036 27.8183 26.59C28 26.2335 28 25.7668 28 24.8333V15.1667C28 14.2332 28 13.7665 27.8183 13.41C27.6586 13.0964 27.4036 12.8414 27.09 12.6817C26.7335 12.5 26.2668 12.5 25.3333 12.5H15.6667C14.7332 12.5 14.2665 12.5 13.91 12.6817C13.5964 12.8414 13.3414 13.0964 13.1817 13.41C13 13.7665 13 14.2332 13 15.1667V24.8333C13 25.7668 13 26.2335 13.1817 26.59C13.3414 26.9036 13.5964 27.1586 13.91 27.3183C14.2665 27.5 14.7332 27.5 15.6667 27.5Z" stroke="#011530" stroke-width="1.5" stroke-linecap="round" stroke-linejoin="round"/></g><defs><clipPath id="clip0_3637_2271"><rect width="40" height="40" fill="#fff"/></clipPath></defs></svg>