<svg width="48" height="49" viewBox="0 0 48 49" fill="none" xmlns="http://www.w3.org/2000/svg"><g clip-path="url(#clip0_3505_3773)"><path d="M23.9969 48.0702C37.086 48.0702 47.6969 37.4593 47.6969 24.3702C47.6969 11.281 37.086 0.670166 23.9969 0.670166C10.9077 0.670166 0.296875 11.281 0.296875 24.3702C0.296875 37.4593 10.9077 48.0702 23.9969 48.0702Z" fill="#F5D03C"/><path d="M48 24.25V24.37C48 37.63 37.26 48.37 24 48.37C13.68 48.37 4.86 41.83 1.5 32.65C6.9 36.37 13.44 38.53 20.52 38.53C31.86 38.53 41.94 32.89 48 24.25Z" fill="#DE951F"/><path d="M23.9969 48.0702C37.086 48.0702 47.6969 37.4593 47.6969 24.3702C47.6969 11.281 37.086 0.670166 23.9969 0.670166C10.9077 0.670166 0.296875 11.281 0.296875 24.3702C0.296875 37.4593 10.9077 48.0702 23.9969 48.0702Z" stroke="#002C15" stroke-width="1.2" stroke-miterlimit="10"/><g clip-path="url(#clip1_3505_3773)"><path d="M34.0007 22.0844H14.9531M18.2865 30.6558H18.0007C16.9531 30.6558 16.3817 30.6558 16.0007 30.4654C15.6198 30.2749 15.3341 29.9892 15.1436 29.6082C14.9531 29.2273 14.9531 28.6558 14.9531 27.6082V20.3701C14.9531 19.3225 14.9531 18.7511 15.1436 18.3701C15.3341 17.9892 15.6198 17.7035 16.0007 17.513C16.3817 17.3225 16.9531 17.3225 18.0007 17.3225H30.9531C32.0007 17.3225 32.5722 17.3225 32.9531 17.513C33.3341 17.7035 33.6198 17.9892 33.8103 18.3701C34.0007 18.7511 34.0007 19.3225 34.0007 20.3701V27.6082C34.0007 28.6558 34.0007 29.2273 33.8103 29.6082C33.6198 29.9892 33.3341 30.2749 32.9531 30.4654C32.5722 30.6558 32.0007 30.6558 30.9531 30.6558H30.6674M21.6198 32.3701C21.6198 33.4177 22.4769 34.2749 23.5246 34.2749H25.2388C26.3817 34.2749 27.2388 33.4177 27.2388 32.2749C27.2388 31.132 26.3817 30.2749 25.2388 30.2749H23.6198C22.5722 30.1797 21.6198 29.3225 21.6198 28.1797C21.6198 27.0368 22.4769 26.1797 23.6198 26.1797H25.4293C26.4769 26.1797 27.3341 27.0368 27.3341 28.0844M24.4769 24.9416V26.1797M24.4769 34.1797V35.4177" stroke="#011530" stroke-width="1.5" stroke-linecap="round" stroke-linejoin="round"/></g></g><defs><clipPath id="clip0_3505_3773"><rect width="48" height="48" fill="#fff" transform="translate(0 0.370117)"/></clipPath><clipPath id="clip1_3505_3773"><rect width="20.952" height="20" fill="#fff" transform="translate(14 16.3701)"/></clipPath></defs></svg>