<svg width="48" height="49" viewBox="0 0 48 49" fill="none" xmlns="http://www.w3.org/2000/svg"><path d="M23.9984 1.66992C14.1734 1.66992 5.84844 7.89492 2.77344 16.6699H45.2234C42.1484 7.89492 33.8234 1.66992 23.9984 1.66992Z" fill="#C94747"/><path d="M23.9984 46.6699C33.8234 46.6699 42.1484 40.4449 45.2234 31.6699H2.77344C5.84844 40.4449 14.1734 46.6699 23.9984 46.6699Z" fill="#699635"/><path d="M2.775 16.6699C1.95 18.9949 1.5 21.5449 1.5 24.1699C1.5 26.7949 1.95 29.3449 2.775 31.6699H45.225C46.05 29.3449 46.5 26.7949 46.5 24.1699C46.5 21.5449 46.05 18.9949 45.225 16.6699H2.775Z" fill="#FFCE31"/><path d="M24 28.1449L28.65 31.6699L26.85 25.9699L31.5 22.2949H25.8L24 16.6699L22.275 22.2949H16.5L21.15 25.9699L19.35 31.6699L24 28.1449Z" fill="#3E4347"/></svg>