<svg fill="none" height="49" viewBox="0 0 48 49" width="48" xmlns="http://www.w3.org/2000/svg" xmlns:xlink="http://www.w3.org/1999/xlink"><clipPath id="a"><path d="m0 .370117h48v48h-48z"/></clipPath><clipPath id="b"><path d="m14 16.3701h20.9524v20h-20.9524z"/></clipPath><g clip-path="url(#a)"><path d="m23.9969 48.0702c13.0891 0 23.7-10.6109 23.7-23.7 0-13.0892-10.6109-23.700034-23.7-23.700034-13.0892 0-23.700025 10.610834-23.700025 23.700034 0 13.0891 10.610825 23.7 23.700025 23.7z" fill="#f5d03c"/><path d="m48 24.25v.12c0 13.26-10.74 24-24 24-10.32 0-19.14-6.54-22.5-15.72 5.4 3.72 11.94 5.88 19.02 5.88 11.34 0 21.42-5.64 27.48-14.28z" fill="#de951f"/><path d="m23.9969 48.0702c13.0891 0 23.7-10.6109 23.7-23.7 0-13.0892-10.6109-23.700034-23.7-23.700034-13.0892 0-23.700025 10.610834-23.700025 23.700034 0 13.0891 10.610825 23.7 23.700025 23.7z" stroke="#002c15" stroke-miterlimit="10" stroke-width="1.2"/><g clip-path="url(#b)"><path d="m34.0007 22.0844h-19.0476m3.3334 8.5714h-.2858c-1.0476 0-1.619 0-2-.1904-.3809-.1905-.6666-.4762-.8571-.8572-.1905-.3809-.1905-.9524-.1905-2v-7.2381c0-1.0476 0-1.619.1905-2 .1905-.3809.4762-.6666.8571-.8571.381-.1905.9524-.1905 2-.1905h12.9524c1.0476 0 1.6191 0 2 .1905.381.1905.6667.4762.8572.8571.1904.381.1904.9524.1904 2v7.2381c0 1.0476 0 1.6191-.1904 2-.1905.381-.4762.6667-.8572.8572-.3809.1904-.9524.1904-2 .1904h-.2857m-9.0476 1.7143c0 1.0476.8571 1.9048 1.9048 1.9048h1.7142c1.1429 0 2-.8572 2-2 0-1.1429-.8571-2-2-2h-1.619c-1.0476-.0952-2-.9524-2-2.0952 0-1.1429.8571-2 2-2h1.8095c1.0476 0 1.9048.8571 1.9048 1.9047m-2.8572-3.1428v1.2381m0 8v1.238" stroke="#011530" stroke-linecap="round" stroke-linejoin="round" stroke-width="1.5"/></g></g></svg>