<svg fill="none" height="17" viewBox="0 0 16 17" width="16" xmlns="http://www.w3.org/2000/svg" xmlns:xlink="http://www.w3.org/1999/xlink"><clipPath id="a"><path d="m.296875.169922h15v16h-15z"/></clipPath><g clip-path="url(#a)"><path d="m11.8019 3.18697c-.178 0-.352.05362-.5001.15409-.1479.10046-.2633.24325-.3314.41032-.0681.16706-.0859.35089-.0512.52825.0347.17735.1204.34026.2463.46813.1259.12786.2862.21494.4608.25021.1746.03528.3555.01718.52-.05202s.305-.18639.4039-.33675c.0989-.15034.1517-.32711.1517-.50794 0-.24249-.0948-.47503-.2637-.6465-.1687-.17146-.3976-.26779-.6363-.26779zm3.45 1.84381c-.0146-.63215-.1311-1.2576-.345-1.85143-.1908-.50809-.4875-.96816-.87-1.34857-.3714-.39053-.8253-.69015-1.3275-.876189-.583-.223878-1.1994-.344983-1.8225-.358095-.795-.045715-1.05003-.045715-3.09002-.045715-2.04 0-2.29501 0-3.09001.045715-.62313.013112-1.23949.134217-1.82249.358095-.50124.187919-.95481.487279-1.32751.876189-.38442.37728-.679363.83843-.862495 1.34857-.220379.59226-.339593 1.2184-.3525 1.85143-.045.80762-.045 1.06667-.045 3.13905 0 2.07237 0 2.33147.045 3.13907.012907.633.132121 1.2592.3525 1.8514.183132.5102.478075.9713.862495 1.3486.3727.3889.82627.6883 1.32751.8762.583.2238 1.19936.345 1.82249.3581.795.0457 1.05001.0457 3.09001.0457 2.03999 0 2.29502 0 3.09002-.0457.6231-.0131 1.2395-.1343 1.8225-.3581.5022-.1861.9561-.4857 1.3275-.8762.3841-.379.6812-.8395.87-1.3486.2139-.5938.3304-1.2193.345-1.8514 0-.8076.045-1.0667.045-3.13907 0-2.07238 0-2.33143-.045-3.13905zm-1.35 6.18662c-.0055.4837-.0917.9629-.255 1.4172-.1198.3316-.3121.6312-.5625.8762-.2433.2518-.5376.4468-.8625.5714-.4473.166-.9189.2535-1.395.2591-.75.0381-1.02752.0457-3.00003.0457-1.9725 0-2.25 0-3-.0457-.49433.0093-.98655-.0679-1.455-.2286-.31066-.131-.59147-.3255-.82499-.5714-.24894-.2448-.43887-.5447-.55501-.8762-.1831-.4608-.28466-.951-.3-1.4477 0-.7619-.045-1.0438-.045-3.04757 0-2.00381.00001-2.28572.045-3.04762.00337-.49443.09222-.98442.26251-1.44762.13203-.32159.3347-.60826.5925-.83809.22785-.26197.50946-.47002.82499-.60953.45717-.16759.939-.25518 1.42501-.25905.75 0 1.0275-.04571 3-.04571 1.97249 0 2.25002 0 3.00002.04571.4761.00555.9477.09315 1.395.25905.3408.1285.6467.33741.8925.60953.2457.23404.4378.52017.5625.83809.1667.46395.2529.95374.255 1.44762.0375.7619.045 1.04381.045 3.04762 0 2.00377-.0075 2.28567-.045 3.04757zm-6.10502-6.95614c-.76065.00151-1.50378.23202-2.13552.66241-.63172.43039-1.1237 1.04136-1.41376 1.75568-.29006.71433-.36518 1.5-.21588 2.25764.1493.75772.51633 1.45341 1.05471 1.99931.53838.5458 1.22395.9173 1.97009 1.0675.74613.1503 1.51938.0724 2.22198-.2237.7026-.296 1.3031-.797 1.7255-1.4396.4224-.64259.6479-1.39795.6479-2.17067.001-.51421-.0981-1.02354-.2916-1.4987-.1934-.47516-.4775-.90678-.8358-1.27003-.3582-.36324-.7837-.65094-1.25177-.84656-.46816-.19562-.96968-.29529-1.47585-.29328zm0 6.44574c-.49396 0-.97683-.1488-1.38754-.4276s-.73083-.67506-.91986-1.13868c-.18902-.46354-.23848-.97371-.14212-1.46586.09637-.49216.33424-.94424.68351-1.29907.34929-.35481.7943-.59646 1.27877-.69436.48447-.09789.98666-.04765 1.44296.14438.45637.19203.84645.51723 1.12088.93446.27442.41723.42092.90776.42092 1.40956 0 .33318-.0646.66308-.1902.97089-.12542.30789-.3094.58751-.5413.82317-.23198.23561-.50723.42251-.8103.54991-.303.1276-.62775.1932-.95572.1932z" fill="#011530"/></g></svg>