<svg fill="none" height="49" viewBox="0 0 48 49" width="48" xmlns="http://www.w3.org/2000/svg"><path d="m24 1.66992c-9.225 0-17.175 5.55-20.625 13.49998h41.25c-3.45-7.94998-11.4-13.49998-20.625-13.49998z" fill="#3e4347"/><path d="m24 46.6699c9.225 0 17.175-5.55 20.625-13.5h-41.25c3.45 7.95 11.4 13.5 20.625 13.5z" fill="#75a843"/><path d="m46.5 24.1699c0-2.1-.3-4.125-.825-6h-43.35c-.525 1.875-.825 3.9-.825 6s.3 4.125.825 6h43.35c.525-1.875.825-3.9.825-6z" fill="#c94747"/><path d="m2.77813 31.6699c.15.525.375.975.6 1.5h41.24997c.225-.525.45-.975.6-1.5s.3-.975.45-1.5h-43.34998c.15001.525.30001.975.45001 1.5z" fill="#fff"/><path d="m45.2281 16.6699c-.15-.525-.375-.975-.6-1.5h-41.24997c-.225.525-.45.975-.6 1.5s-.3.975-.45001 1.5h43.34998c-.15-.525-.3-.975-.45-1.5z" fill="#fff"/><path d="m15.1562 39.3949.525.3 14.475-25.05c.825-.225 1.275-1.05 1.8-1.8.3-.525 1.575-2.7 2.1-5.47503-2.175 1.875-3.375 3.97503-3.675 4.57503-.45.825-.9 1.575-.675 2.475z" fill="#fff"/><path d="m32.8531 39.3949-.525.3-14.475-25.05c-.825-.225-1.275-1.05-1.8-1.8-.3-.525-1.575-2.7-2.1-5.47503 2.175 1.875 3.375 3.97503 3.675 4.57503.45.825.9 1.575.675 2.475z" fill="#fff"/><path d="m30 24.1699c0 8.25-6 15-6 15s-6-6.75-6-15 6-14.99998 6-14.99998 6 6.74998 6 14.99998z" fill="#c94747"/><path d="m19.575 30.1699c1.275-1.275 2.175-3.45 2.175-6s-.825-4.725-2.175-6c-.525 1.725-.825 3.825-.825 6s.3 4.275.825 6z" fill="#3e4347"/><path d="m28.425 18.1699c-1.275 1.275-2.175 3.45-2.175 6s.825 4.725 2.175 6c.525-1.725.825-3.825.825-6s-.3-4.275-.825-6z" fill="#3e4347"/><g fill="#fff"><path d="m23.9969 25.9699c.6627 0 1.2-.8059 1.2-1.8s-.5373-1.8-1.2-1.8c-.6628 0-1.2.8059-1.2 1.8s.5372 1.8 1.2 1.8z"/><path d="m23.5469 9.69482c-.45 1.27498-.75 3.67498-.75 6.29998 0 2.7.3 5.025.75 6.3.15-1.875.3-3.975.3-6.3 0-2.25-.075-4.425-.3-6.29998z"/><path d="m24.4484 9.69482c.45 1.27498.75 3.67498.75 6.29998 0 2.7-.3 5.025-.75 6.3-.15-1.875-.3-3.975-.3-6.3 0-2.25.075-4.425.3-6.29998z"/><path d="m23.5469 25.9697c-.45 1.275-.75 3.675-.75 6.3 0 2.7.3 5.025.75 6.3.15-1.875.3-3.975.3-6.3 0-2.25-.075-4.425-.3-6.3z"/><path d="m24.4484 25.9697c.45 1.275.75 3.675.75 6.3 0 2.7-.3 5.025-.75 6.3-.15-1.875-.3-3.975-.3-6.3 0-2.25.075-4.425.3-6.3z"/></g></svg>