<svg fill="none" height="17" viewBox="0 0 17 17" width="17" xmlns="http://www.w3.org/2000/svg"><path d="m14.1333 14.0022h-2.3709v-3.7127c0-.88534-.0158-2.02505-1.233-2.02505-1.23478 0-1.42371.96461-1.42371 1.96055v3.777h-2.37079v-7.63492h2.27596v1.04339h.03186c.22777-.38943.5569-.70981.95234-.92699.39544-.21719.84244-.32305 1.29324-.30631 2.4029 0 2.846 1.58052 2.846 3.63668zm-10.07342-8.67876c-.27211.00005-.53813-.08059-.7644-.23173-.22628-.15113-.40265-.36597-.50682-.61734-.10417-.25138-.13148-.528-.07844-.79489.05304-.26688.18403-.51205.37641-.70449.19237-.19245.43749-.32352.70436-.37665.26687-.05314.54349-.02594.7949.07814.25142.10409.46632.28038.61753.50661.15122.22622.23196.4922.23201.76431.00003.18067-.03553.35958-.10464.52651-.06912.16694-.17042.31862-.29814.44639-.12773.12779-.27939.22915-.44631.29832-.1669.06917-.34579.10479-.52646.10482zm1.18538 8.67876h-2.37324v-7.63512h2.37324zm10.06994-13.631969h-13.6345c-.30946-.003493-.60767.116019-.82906.332272-.221394.216253-.347863.511557-.35164.821017v13.69108c.003648.3096.130042.605.351428.8216.221382.2164.519652.3362.829272.3328h13.6345c.3102.004.6093-.1155.8316-.3319.2222-.2165.3494-.5123.3538-.8225v-13.69207c-.0045-.31007-.1318-.605712-.354-.82196-.2223-.216247-.5213-.335417-.8314-.331327" fill="#000"/></svg>