<svg fill="none" height="28" viewBox="0 0 28 28" width="28" xmlns="http://www.w3.org/2000/svg" xmlns:xlink="http://www.w3.org/1999/xlink"><clipPath id="a"><path d="m0 0h28v28h-28z"/></clipPath><g clip-path="url(#a)"><path d="m14 28c7.732 0 14-6.268 14-14 0-7.73199-6.268-14-14-14-7.73199 0-14 6.26801-14 14 0 7.732 6.26801 14 14 14z" fill="#f0f0f0"/><g fill="#6da544"><path d="m0 14.0002c0 6.0196 3.79925 11.1512 9.13046 13.1293v-26.258406c-5.33121 1.978046-9.13046 7.109706-9.13046 13.129106z"/><path d="m27.9976 14.0002c0-6.0194-3.7992-11.15106-9.1304-13.129106v26.258506c5.3312-1.9782 9.1304-7.1098 9.1304-13.1294z"/></g></g></svg>