<svg fill="none" height="49" viewBox="0 0 48 49" width="48" xmlns="http://www.w3.org/2000/svg" xmlns:xlink="http://www.w3.org/1999/xlink"><clipPath id="a"><path d="m0 .370117h48v48h-48z"/></clipPath><g clip-path="url(#a)"><path d="m23.9969 48.0702c13.0891 0 23.7-10.6109 23.7-23.7 0-13.0892-10.6109-23.700034-23.7-23.700034-13.0892 0-23.700025 10.610834-23.700025 23.700034 0 13.0891 10.610825 23.7 23.700025 23.7z" fill="#f5d03c"/><path d="m48 24.25v.12c0 13.26-10.74 24-24 24-10.32 0-19.14-6.54-22.5-15.72 5.4 3.72 11.94 5.88 19.02 5.88 11.34 0 21.42-5.64 27.48-14.28z" fill="#de951f"/><path d="m23.9969 48.0702c13.0891 0 23.7-10.6109 23.7-23.7 0-13.0892-10.6109-23.700034-23.7-23.700034-13.0892 0-23.700025 10.610834-23.700025 23.700034 0 13.0891 10.610825 23.7 23.700025 23.7z" stroke="#002c15" stroke-miterlimit="10" stroke-width="1.2"/><path d="m33.1693 22.5368h-18.3334m8.25 3.6667h-4.5833m-3.6667-5.3167v6.9667c0 1.0268 0 1.5401.1999 1.9323.1757.345.4562.6254.8012.8012.3921.1998.9055.1998 1.9323.1998h12.4666c1.0268 0 1.5402 0 1.9324-.1998.3449-.1758.6254-.4562.8012-.8012.1998-.3922.1998-.9055.1998-1.9323v-6.9667c0-1.0267 0-1.5401-.1998-1.9323-.1758-.345-.4563-.6254-.8012-.8012-.3922-.1998-.9056-.1998-1.9324-.1998h-12.4666c-1.0268 0-1.5402 0-1.9323.1998-.345.1758-.6255.4562-.8012.8012-.1999.3922-.1999.9056-.1999 1.9323z" stroke="#011530" stroke-linecap="round" stroke-linejoin="round" stroke-width="1.5"/></g></svg>