<svg fill="none" height="49" viewBox="0 0 48 49" width="48" xmlns="http://www.w3.org/2000/svg" xmlns:xlink="http://www.w3.org/1999/xlink"><clipPath id="a"><path d="m0 .370361h48v48h-48z"/></clipPath><clipPath id="b"><path d="m14 14.3704h20v20h-20z"/></clipPath><g clip-path="url(#a)"><path d="m23.9969 48.0704c13.0891 0 23.7-10.6108 23.7-23.7 0-13.0891-10.6109-23.69999-23.7-23.69999-13.0892 0-23.700025 10.61089-23.700025 23.69999 0 13.0892 10.610825 23.7 23.700025 23.7z" fill="#f5d33c"/><path d="m48 24.2502v.12c0 13.26-10.74 24-24 24-10.32 0-19.14-6.54-22.5-15.72 5.4 3.72 11.94 5.88 19.02 5.88 11.34 0 21.42-5.64 27.48-14.28z" fill="#deb51f"/><path d="m23.9969 48.0704c13.0891 0 23.7-10.6108 23.7-23.7 0-13.0891-10.6109-23.69999-23.7-23.69999-13.0892 0-23.700025 10.61089-23.700025 23.69999 0 13.0892 10.610825 23.7 23.700025 23.7z" stroke="#2c1900" stroke-miterlimit="10" stroke-width="1.2"/><g clip-path="url(#b)"><path d="m33.5349 31.9518c-1.3023-1.6745-3.2558-2.6977-5.3023-2.6977-2.0466 0-4 .9302-5.3024 2.6977-.3721.3721-.5581.6511-.5581 1.1162 0 .3721.186.7442.4651 1.0233.3721.2791.7442.2791 1.3023.2791h8.0931c.5581 0 .9302 0 1.3023-.2791.2791-.1861.4651-.6512.4651-1.0233 0-.4651-.186-.7441-.4651-1.1162zm-1.3023 1.0232h-8.0931c-.093 0-.186 0-.279 0 0-.093.093-.093.093-.186 1.0232-1.3024 2.5116-2.1396 4.186-2.1396 1.6745 0 3.1628.7442 4.1861 2.1396 0 .093.093.093.093.186 0 0-.093 0-.186 0zm-4-11.0698c-1.8605 0-3.4419 1.5814-3.4419 3.4419s1.5814 3.4419 3.4419 3.4419c1.8604 0 3.4418-1.5814 3.4418-3.4419s-1.5814-3.4419-3.4418-3.4419zm0 5.5814c-1.1163 0-2.0466-.9302-2.0466-2.0465s.9303-2.0465 2.0466-2.0465c1.1162 0 2.0465.9302 2.0465 2.0465s-.9303 2.0465-2.0465 2.0465zm-12.7442 3.5349-.0931-.093c0-.093 0-.3721 0-.6512v-.7441c0-.2791 0-.5582 0-.6512l.0931-.093h.6511 8.3721l.0931-.0931c-.3721-.3721-.6512-.8372-.8373-1.3023h-2.3255v-6.0465h9.3023c.186 0 .3721-.093.4651-.186.2791-.1861.5581-.3721.7442-.7442.186-.3721.186-.7442.186-1.3024v-1.0232c0-.4651 0-.7442-.093-1.1163-.093-.2791-.2791-.4651-.5581-.6512-.2791-.186-.5582-.279-1.0233-.372l-6.8837-1.4884c-.1861-.093-.2791-.093-.3721-.093s-.186 0-.2791 0c-.093 0-.186 0-.3721.093l-6.8837 1.4884c-.4651.093-.7442.186-1.0232.372-.1861.1861-.3721.3721-.5582.6512-.093.3721-.093.6512-.093 1.1163v1.0232c0 .5582 0 .9303.186 1.3024.1861.3721.3721.5581.7442.7442.2791.186.5582.186.9303.186v6.0465c-.3721 0-.6512 0-.9303.1861-.279.186-.5581.3721-.7442.7441-.186.2791-.186.6512-.186 1.2094v.7441c0 .5582 0 .9303.186 1.3024.1861.279.3721.5581.7442.7441.3721.1861.7442.1861 1.3024.1861h4.8372c.093-.6512.4651-1.0233.7442-1.3954h-5.5814c-.3721 0-.6512 0-.7442-.093zm4.5581-3.6279h-2.7907v-6.0465h2.7907zm-4.5581-7.5349-.0931-.093c0-.093 0-.3721 0-.6512v-1.0232c0-.2791 0-.4651 0-.5581 0 0 0-.0931.0931-.0931.093 0 .279-.093.5581-.093l6.8837-1.4884h.1861.186l6.8837 1.4884c.1861.093.4652.093.5582.093l.093.0931v.5581 1.0232.6512l-.093.093c-.093 0-.3721 0-.6512 0h-13.8604c-.3721.0931-.6512.0931-.7442 0z" fill="#011530"/></g></g></svg>