<svg fill="none" height="50" viewBox="0 0 50 50" width="50" xmlns="http://www.w3.org/2000/svg"><path d="m25.0008 48.6998c13.0891 0 23.7-10.6108 23.7-23.7 0-13.0891-10.6109-23.7-23.7-23.7-13.0892 0-23.70002 10.6109-23.70002 23.7 0 13.0892 10.61082 23.7 23.70002 23.7z" fill="#f5ca3c"/><path d="m49 24.8799v.12c0 13.26-10.74 24-24 24-10.32 0-19.14-6.54-22.5-15.72 5.4 3.72 11.94 5.88 19.02 5.88 11.34 0 21.42-5.64 27.48-14.28z" fill="#deab1f"/><path d="m25.0008 48.6998c13.0891 0 23.7-10.6108 23.7-23.7 0-13.0891-10.6109-23.7-23.7-23.7-13.0892 0-23.70002 10.6109-23.70002 23.7 0 13.0892 10.61082 23.7 23.70002 23.7z" stroke="#002c15" stroke-miterlimit="10"/><path d="m23.4986 22.0022c.1762-.5008.524-.9232.9818-1.1922.4577-.2691.9959-.3674 1.5193-.2776.5233.0897.998.3618 1.3399.768s.5291.9203.5283 1.4513c0 1.4989-2.2483 2.2483-2.2483 2.2483m.029 3h.01m-.16 5c4.6945 0 8.5-3.8056 8.5-8.5s-3.8055-8.5-8.5-8.5c-4.6944 0-8.5 3.8056-8.5 8.5 0 .95.1559 1.8636.4434 2.7166.1082.321.1623.4815.1721.6048.0096.1218.0023.2072-.0278.3255-.0305.1199-.0979.2446-.2326.4939l-1.6356 3.0276c-.2333.4318-.35.6477-.3239.8144.0228.1451.1082.2729.2336.3494.144.0879.3881.0626.8764.0122l5.121-.5294c.1551-.016.2326-.024.3033-.0213.0695.0026.1186.0092.1864.0248.0689.0159.1556.0493.3289.116.9481.3653 1.9781.5655 3.0548.5655z" stroke="#011530" stroke-linecap="round" stroke-linejoin="round" stroke-width="1.5"/></svg>