<svg fill="none" height="49" viewBox="0 0 48 49" width="48" xmlns="http://www.w3.org/2000/svg"><path d="m24 1.66992c-12.45 0-22.5 10.04998-22.5 22.49998h45c0-12.45-10.05-22.49998-22.5-22.49998z" fill="#42ade2"/><path d="m43.5 35.4199h-39c3.9 6.75 11.175 11.25 19.5 11.25s15.6-4.5 19.5-11.25z" fill="#699635"/><g fill="#ffe62e"><path d="m43.5 35.4199c1.95-3.3 3-7.125 3-11.25h-45c0 4.125 1.125 7.95 3 11.25z"/><path d="m34.6469 14.795 6.525-.375-6.525-.375 6.225-2.1-6.375 1.35 5.4-3.60003-5.775 2.92503 4.275-4.87503-4.875 4.35003 2.925-5.85003-3.525 5.47503 1.275-6.37503-2.025 6.15003-.375-6.52503-.375 6.52503-2.1-6.15003 1.35 6.37503-3.6-5.47503 2.925 5.85003-4.875-4.35003 4.35 4.87503-5.85-2.92503 5.475 3.60003-6.375-1.35 6.15 2.1-6.45.375 6.45.375-6.15 2.025 6.375-1.35-5.475 3.6 5.85-2.925-4.35 4.875 4.875-4.35-2.925 5.85 3.6-5.475-1.35 6.375 2.1-6.15.375 6.525.375-6.525 2.025 6.15-1.275-6.375 3.525 5.475-2.925-5.85 4.875 4.35-4.275-4.875 5.775 2.925-5.4-3.6 6.375 1.35z"/><path d="m31.7984 17.195c1.5326 0 2.775-1.2424 2.775-2.775s-1.2424-2.775-2.775-2.775-2.775 1.2424-2.775 2.775 1.2424 2.775 2.775 2.775z"/></g><path d="m31.8016 17.42c-1.65 0-3.075-1.35-3.075-3.075 0-1.65 1.35-3.075 3.075-3.075s3.075 1.35 3.075 3.075-1.425 3.075-3.075 3.075zm0-5.55c-1.35 0-2.475 1.125-2.475 2.475s1.125 2.475 2.475 2.475 2.475-1.125 2.475-2.475-1.125-2.475-2.475-2.475z" fill="#42ade2"/></svg>