<svg fill="none" height="49" viewBox="0 0 48 49" width="48" xmlns="http://www.w3.org/2000/svg" xmlns:xlink="http://www.w3.org/1999/xlink"><clipPath id="a"><path d="m0 .169922h48v48h-48z"/></clipPath><g clip-path="url(#a)"><path d="m41.8868 40.1699c3.801-4.2461 6.1132-9.8525 6.1132-15.9999s-2.3123-11.7539-6.1133-16.00003l-17.8867-1.73906-17.88675 1.73906c-3.80091 4.24613-6.11325 9.85263-6.11325 16.00003s2.31225 11.7538 6.11316 15.9999l17.88684 1.7392z" fill="#ffda44"/><path d="m6.10938 8.16989h35.77362c-4.3946-4.90941-10.7794-7.999968-17.8869-7.999968-7.1074 0-13.4923 3.090558-17.88672 7.999968z" fill="#000"/><path d="m0 24.17 24 2.087 24-2.087c0-2.8054-.4829-5.4977-1.3676-8.0001h-45.26478c-.884714 2.5024-1.36762 5.1947-1.36762 8.0001z" fill="#d80027"/><path d="m1.36762 32.1699h45.26498c.8845-2.5024 1.3674-5.1946 1.3674-8h-48c0 2.8054.482906 5.4976 1.36762 8z" fill="#000"/><path d="m41.8831 40.1699h-35.77372c4.39442 4.9095 10.77932 8.0001 17.88682 8.0001 7.1076 0 13.4924-3.0906 17.8869-8.0001z" fill="#d80027"/><path d="m32.0096 24.1698c0 4.4234-3.5853 8.0087-8.0087 8.0087s-8.0087-3.5853-8.0087-8.0087 3.5853-8.0087 8.0087-8.0087 8.0087 3.5853 8.0087 8.0087z" fill="#f0f0f0"/><path d="m26.9376 24.5782-2.9339-1.2714s.6865-2.2784.723-2.4343c.0267-.1139.041-.2327.041-.3547 0-.4323-.1752-.8236-.4585-1.1067l.7378-.7379c-.4721-.472-1.1243-.764-1.8447-.764-.7203 0-1.3725.2919-1.8446.764l.7378.7379c-.2833.2832-.4584.6745-.4584 1.1067 0 .158.0239.3104.0675.4543l-1.1108 1.1107h2.0189s-.8347 1.2538-1.2904 2.2835c-.4557 1.0296.0063 2.2865 1.0595 2.7547l.609.2706 1.0129.9521v1.0435l-1.0434 1.0434h2.087v-2.087l.9522-.9522h1.9695c.0094-.0196.0194-.0387.0284-.0588.4679-1.053-.0065-2.2864-1.0598-2.7544z" fill="#000"/></g></svg>