<svg fill="none" height="24" viewBox="0 0 24 24" width="24" xmlns="http://www.w3.org/2000/svg" xmlns:xlink="http://www.w3.org/1999/xlink"><clipPath id="a"><path d="m0 0h24v24h-24z"/></clipPath><g clip-path="url(#a)"><path d="m12 24c6.6274 0 12-5.3726 12-12 0-6.62742-5.3726-12-12-12-6.62742 0-12 5.37258-12 12 0 6.6274 5.37258 12 12 12z" fill="#f0f0f0"/><g fill="#d80027"><path d="m11.4805 12.0001h12.5217c0-1.0831-.1444-2.13236-.4134-3.13047h-12.1083z"/><path d="m11.4805 5.73934h10.7604c-.7346-1.19869-1.6738-2.2582-2.7689-3.13045h-7.9915z"/><path d="m12.0011 24.0003c2.8241 0 5.4199-.9761 7.4698-2.6087h-14.93965c2.04984 1.6326 4.64564 2.6087 7.46985 2.6087z"/><path d="m1.76195 18.2608h20.47745c.5897-.9623 1.0471-2.0141 1.3479-3.1304h-23.173238c.300797 1.1163.758158 2.1681 1.347888 3.1304z"/></g><path d="m5.55863 1.87397h1.09354l-1.01719.73898.38855 1.19574-1.01714-.73899-1.01714.73899.33562-1.03299c-.89559.74602-1.68056 1.62005-2.32743 2.59393h.35039l-.64749.47039c-.10087.16828-.19762.33923-.29034.51271l.30919.95161-.57685-.41911c-.143387.3038-.274543.61444-.392434.93155l.340644 1.0485h1.25728l-1.01719.73899.38855 1.19573-1.017143-.739-.6092814.4427c-.0609844.4902-.0927656.9895-.0927656 1.4963h12c0-6.62738 0-7.40869 0-12-2.37056 0-4.58039.687656-6.44137 1.87397zm.4649 8.92603-1.01714-.739-1.01714.739.38855-1.19573-1.01719-.73899h1.25728l.3885-1.19573.3885 1.19573h1.25728l-1.01719.73899zm-.38855-4.69139.38855 1.19573-1.01714-.73898-1.01714.73898.38855-1.19573-1.01719-.73898h1.25728l.3885-1.19574.3885 1.19574h1.25728zm4.69292 4.69139-1.01717-.739-1.01714.739.38855-1.19573-1.01719-.73899h1.25728l.3885-1.19573.3885 1.19573h1.25727l-1.01717.73899zm-.38857-4.69139.38857 1.19573-1.01717-.73898-1.01714.73898.38855-1.19573-1.01719-.73898h1.25728l.3885-1.19574.3885 1.19574h1.25727zm0-3.49566.38857 1.19574-1.01717-.73899-1.01714.73899.38855-1.19574-1.01719-.73898h1.25728l.3885-1.195736.3885 1.195736h1.25727z" fill="#0052b4"/></g></svg>