<svg width="50" height="50" viewBox="0 0 50 50" fill="none" xmlns="http://www.w3.org/2000/svg">
<g clip-path="url(#clip0_4402_3684)">
<path d="M24.9969 48.4403C38.086 48.4403 48.6969 37.8294 48.6969 24.7403C48.6969 11.6511 38.086 1.04028 24.9969 1.04028C11.9077 1.04028 1.29688 11.6511 1.29688 24.7403C1.29688 37.8294 11.9077 48.4403 24.9969 48.4403Z" fill="#F5D03C"/>
<path d="M49 24.6201V24.7401C49 38.0001 38.26 48.7401 25 48.7401C14.68 48.7401 5.86 42.2001 2.5 33.0201C7.9 36.7401 14.44 38.9001 21.52 38.9001C32.86 38.9001 42.94 33.2601 49 24.6201Z" fill="#DE951F"/>
<path d="M24.9969 48.4403C38.086 48.4403 48.6969 37.8294 48.6969 24.7403C48.6969 11.6511 38.086 1.04028 24.9969 1.04028C11.9077 1.04028 1.29688 11.6511 1.29688 24.7403C1.29688 37.8294 11.9077 48.4403 24.9969 48.4403Z" stroke="#002C15" stroke-width="1.2" stroke-miterlimit="10"/>
<g clip-path="url(#clip1_4402_3684)">
<path d="M18.3873 19.775C19.9902 16.94 22.8397 15.05 26.0454 15.05C31.0321 15.05 34.9501 19.208 34.9501 24.5C34.9501 29.792 31.0321 33.95 26.0454 33.95C22.6616 33.95 19.8121 32.06 18.3873 29.225M26.0454 28.28L29.6073 24.5M29.6073 24.5L26.0454 20.72M29.6073 24.5H17.1406" stroke="#011530" stroke-width="2" stroke-linecap="round" stroke-linejoin="round"/>
</g>
</g>
<defs>
<clipPath id="clip0_4402_3684">
<rect width="50" height="49" fill="white" transform="translate(0 0.370117)"/>
</clipPath>
<clipPath id="clip1_4402_3684">
<rect width="22" height="21" fill="white" transform="translate(14 14)"/>
</clipPath>
</defs>
</svg>
