<svg width="16" height="11" viewBox="0 0 16 11" fill="none" xmlns="http://www.w3.org/2000/svg"><path d="M15.6073 3.91795C15.6418 2.93391 15.424 1.95722 14.9743 1.07858C14.6692 0.718052 14.2457 0.474755 13.7778 0.391079C11.8421 0.217503 9.89847 0.146359 7.95517 0.177954C6.01893 0.144926 4.08228 0.213773 2.15345 0.384204C1.7721 0.452759 1.41919 0.629536 1.13779 0.892952C0.511703 1.46358 0.442138 2.43983 0.372573 3.26483C0.271642 4.74816 0.271642 6.2365 0.372573 7.71984C0.392698 8.18418 0.462656 8.64508 0.581269 9.09484C0.665147 9.44203 0.83485 9.7633 1.07518 10.0298C1.3585 10.3072 1.71962 10.494 2.11171 10.5661C3.61147 10.749 5.12263 10.8249 6.63344 10.793C9.06821 10.8273 11.2039 10.793 13.7291 10.6005C14.1308 10.5328 14.5021 10.3457 14.7934 10.0642C14.9882 9.87165 15.1337 9.63597 15.2178 9.37672C15.4665 8.62225 15.5888 7.83266 15.5795 7.03922C15.6073 6.6542 15.6073 4.33045 15.6073 3.91795ZM6.38301 7.45172V3.19608L10.5013 5.3342C9.34647 5.9667 7.823 6.6817 6.38301 7.45172Z" fill="#011530"/></svg>