<svg width="130" height="44" viewBox="0 0 130 44" fill="none" xmlns="http://www.w3.org/2000/svg"><path opacity=".984" fill-rule="evenodd" clip-rule="evenodd" d="M12.8774 11.2053C16.3964 11.1787 19.9148 11.2053 23.4328 11.2853C28.8493 12.3301 32.3411 15.502 33.9083 20.8011C35.0169 27.4061 32.6447 32.284 26.7914 35.4348C20.4759 37.736 15.2248 36.2701 11.0382 31.0367C10.0899 29.6197 9.45014 28.0737 9.11903 26.3987C9.01241 22.5071 9.01241 18.6154 9.11903 14.7238C9.78855 12.9075 11.0413 11.7347 12.8774 11.2053Z" fill="#FFB600"/><path opacity=".944" fill-rule="evenodd" clip-rule="evenodd" d="M100.52 11.2046C101.741 11.0072 102.833 11.2738 103.798 12.0042C104.642 13.4154 104.456 14.6682 103.238 15.7626C101.742 16.4406 100.382 16.254 99.1602 15.2028C98.2715 13.3787 98.7247 12.046 100.52 11.2046Z" fill="#FEFFFE"/><path opacity=".967" fill-rule="evenodd" clip-rule="evenodd" d="M82.9219 12.4854C84.4145 12.4854 85.9073 12.4854 87.3999 12.4854C87.3732 16.3241 87.3999 20.1623 87.4799 24.0003C89.5323 22.0545 91.5848 20.1088 93.6372 18.1629C95.4521 18.0298 97.2646 18.0564 99.0749 18.2429C97.0247 20.373 94.9456 22.4788 92.8376 24.5601C94.9626 27.2378 97.0684 29.9299 99.1548 32.6366C99.2348 27.7856 99.2615 22.9344 99.2348 18.0829C100.727 18.0829 102.22 18.0829 103.713 18.0829C103.713 23.2007 103.713 28.3185 103.713 33.4363C100.514 33.463 97.3151 33.4363 94.117 33.3563C92.657 31.3901 91.111 29.4976 89.479 27.6788C88.8276 28.2839 88.1612 28.8704 87.4799 29.438C87.3999 30.7163 87.3734 31.9958 87.3999 33.2763C85.9073 33.2763 84.4145 33.2763 82.9219 33.2763C82.9219 26.3461 82.9219 19.4156 82.9219 12.4854Z" fill="#FEFFFE"/><path opacity=".972" fill-rule="evenodd" clip-rule="evenodd" d="M38.1406 13.6047C41.5529 13.5781 44.9647 13.6047 48.3762 13.6847C53.759 14.5382 55.9713 17.6567 55.0133 23.0406C53.9822 25.7225 52.0365 27.2951 49.1758 27.7586C47.0494 27.9716 44.917 28.0516 42.7786 27.9985C42.7786 29.7577 42.7786 31.5169 42.7786 33.2762C41.2326 33.2762 39.6867 33.2762 38.1406 33.2762C38.1406 26.719 38.1406 20.1619 38.1406 13.6047ZM42.7786 17.4431C44.3255 17.4165 45.8715 17.4431 47.4166 17.523C49.9014 17.9892 50.8877 19.4553 50.3753 21.9211C49.695 23.3427 48.5487 24.0624 46.9368 24.0802C45.5518 24.1601 44.1657 24.1867 42.7786 24.1601C42.7786 21.9211 42.7786 19.6821 42.7786 17.4431Z" fill="#FEFFFE"/><path fill-rule="evenodd" clip-rule="evenodd" d="M17.1923 15.5237C19.1122 15.497 21.0314 15.5237 22.9498 15.6036C26.7751 16.4575 28.4544 18.8297 27.9876 22.7205C26.9028 26.0941 24.5838 27.6134 21.0306 27.2785C20.2861 26.8152 20.0462 26.149 20.3109 25.2794C20.4441 25.1462 20.5775 25.0128 20.7107 24.8796C21.4922 24.6838 22.2918 24.5772 23.1097 24.5597C25.3609 23.5494 25.9739 21.9234 24.9489 19.6818C24.5344 19.1602 24.0279 18.7603 23.4296 18.4824C21.1843 18.3285 18.9453 18.1686 16.7125 18.0026C15.9534 16.9849 16.1132 16.1586 17.1923 15.5237Z" fill="#051938"/><path opacity=".964" fill-rule="evenodd" clip-rule="evenodd" d="M64.3793 17.9229C64.9124 17.9229 65.4456 17.9229 65.9786 17.9229C65.9786 19.309 65.9786 20.6949 65.9786 22.081C64.2391 21.7813 62.773 22.2611 61.5806 23.5204C61.1729 24.2105 60.9597 24.9568 60.9408 25.7594C60.8609 28.2644 60.8342 30.7701 60.8609 33.2762C59.3682 33.2762 57.8754 33.2762 56.3828 33.2762C56.3828 28.2117 56.3828 23.1473 56.3828 18.0828C57.8222 18.0828 59.2616 18.0828 60.7009 18.0828C60.6745 18.6716 60.7011 19.258 60.7809 19.842C61.7787 18.797 62.9782 18.1573 64.3793 17.9229Z" fill="#FEFFFE"/><path opacity=".963" fill-rule="evenodd" clip-rule="evenodd" d="M72.373 17.9213C76.1283 17.4417 79.087 18.7211 81.2491 21.7597C82.5239 24.297 82.5774 26.8558 81.4091 29.4363C79.7127 32.2314 77.2071 33.6175 73.8923 33.5945C67.7149 33.1221 64.996 29.8168 65.7359 23.6788C66.7917 20.4097 69.0042 18.4905 72.373 17.9213ZM73.4925 21.5997C76.5098 21.8727 77.8692 23.5253 77.5707 26.5576C77.0025 29.0952 75.4298 30.1347 72.8528 29.6762C70.5872 28.7539 69.7076 27.0746 70.2139 24.6384C70.7312 22.974 71.824 21.9612 73.4925 21.5997Z" fill="#FEFFFE"/><path opacity=".967" fill-rule="evenodd" clip-rule="evenodd" d="M113.309 17.9232C117.226 17.495 120.025 19.0411 121.706 22.5611C122.628 25.4317 122.308 28.1505 120.746 30.7176C118.251 33.4751 115.239 34.2482 111.71 33.0366C111.162 32.7494 110.656 32.4028 110.191 31.997C110.111 34.2354 110.084 36.4745 110.111 38.7141C108.618 38.7141 107.125 38.7141 105.633 38.7141C105.633 31.8371 105.633 24.9601 105.633 18.0831C107.072 18.0831 108.512 18.0831 109.951 18.0831C109.925 18.6188 109.951 19.1519 110.031 19.6824C110.967 18.7748 112.06 18.1883 113.309 17.9232ZM113.469 21.6016C116.568 21.9027 117.927 23.6087 117.548 26.7193C116.89 29.1415 115.318 30.1276 112.83 29.678C110.73 28.8133 109.851 27.2407 110.191 24.9601C110.566 23.1188 111.659 21.9993 113.469 21.6016Z" fill="#FEFFFE"/><path fill-rule="evenodd" clip-rule="evenodd" d="M18.1536 20.1603C19.7004 20.1338 21.2465 20.1603 22.7916 20.2403C23.5471 20.6297 23.787 21.2429 23.5113 22.0795C23.3246 22.2661 23.1381 22.4526 22.9515 22.6393C21.8852 22.6925 20.8191 22.7459 19.7529 22.7992C19.4673 22.9247 19.2274 23.1112 19.0332 23.359C18.9799 25.9711 18.9265 28.5834 18.8733 31.1955C18.364 32.1634 17.6444 32.3768 16.7142 31.8353C16.5408 31.649 16.4076 31.4358 16.3144 31.1955C16.2077 28.2101 16.2077 25.2249 16.3144 22.2394C16.6822 21.3128 17.2952 20.6198 18.1536 20.1603Z" fill="#041837"/></svg>