<svg fill="none" height="43" viewBox="0 0 130 43" width="130" xmlns="http://www.w3.org/2000/svg"><g clip-rule="evenodd" fill-rule="evenodd"><path d="m12.8774 10.4856c3.519-.0267 7.0374 0 10.5554.0799 5.4165 1.0448 8.9083 4.2168 10.4755 9.5159 1.1086 6.605-1.2636 11.4829-7.1169 14.6337-6.3155 2.3012-11.5666.8353-15.7532-4.3981-.9483-1.417-1.58806-2.9631-1.91917-4.638-.10662-3.8916-.10662-7.7834 0-11.675.66952-1.8162 1.92227-2.9891 3.75837-3.5184z" fill="#ffb600" opacity=".984"/><g fill="#000"><path d="m100.52 10.4853c1.221-.1973 2.313.0692 3.278.7997.844 1.4112.658 2.664-.56 3.7584-1.496.6779-2.856.4914-4.0778-.5598-.8887-1.8241-.4355-3.1569 1.3598-3.9983z" opacity=".944"/><path d="m82.9219 11.7651h4.478c-.0267 3.8387 0 7.677.08 11.515 2.0524-1.9458 4.1049-3.8916 6.1573-5.8374 1.8149-.1331 3.6274-.1065 5.4377.0799-2.0502 2.1302-4.1293 4.236-6.2373 6.3173 2.125 2.6777 4.2308 5.3698 6.3172 8.0765.08-4.851.1067-9.7022.08-14.5537h4.4782v15.3533c-3.199.0267-6.3979 0-9.596-.0799-1.46-1.9662-3.006-3.8587-4.638-5.6776-.6514.6052-1.3178 1.1917-1.9991 1.7593-.08 1.2783-.1065 2.5577-.08 3.8383-1.4926 0-2.9854 0-4.478 0 0-6.9303 0-13.8607 0-20.791z" opacity=".967"/><path d="m38.1406 12.884c3.4123-.0266 6.8241 0 10.2356.08 5.3828.8534 7.5951 3.972 6.6371 9.3559-1.0311 2.6819-2.9768 4.2545-5.8375 4.718-2.1264.213-4.2588.293-6.3972.2399v5.2777c-1.546 0-3.0919 0-4.638 0 0-6.5572 0-13.1143 0-19.6715zm4.638 3.8383c1.5469-.0265 3.0929 0 4.638.08 2.4848.4662 3.4711 1.9323 2.9587 4.3981-.6803 1.4216-1.8266 2.1413-3.4385 2.1591-1.385.0799-2.7711.1065-4.1582.0799 0-2.239 0-4.478 0-6.7171z" opacity=".972"/></g><path d="m17.1923 14.8039c1.9199-.0266 3.8391 0 5.7575.08 3.8253.8539 5.5046 3.2261 5.0378 7.1169-1.0848 3.3736-3.4038 4.8929-6.957 4.558-.7445-.4633-.9844-1.1296-.7197-1.9991.1332-.1332.2666-.2666.3998-.3998.7815-.1958 1.5811-.3025 2.399-.3199 2.2512-1.0103 2.8642-2.6363 1.8392-4.8779-.4145-.5217-.921-.9215-1.5193-1.1995-2.2453-.1538-4.4843-.3137-6.7171-.4797-.7591-1.0177-.5993-1.844.4798-2.479z" fill="#051938"/><path d="m64.3793 17.2021h1.5993v4.1582c-1.7395-.2997-3.2056.1801-4.398 1.4394-.4077.6901-.6209 1.4364-.6398 2.239-.0799 2.505-.1066 5.0107-.0799 7.5168-1.4927 0-2.9855 0-4.4781 0 0-5.0645 0-10.1289 0-15.1934h4.3181c-.0264.5888.0002 1.1751.08 1.7592.9978-1.045 2.1973-1.6847 3.5984-1.9192z" fill="#000" opacity=".964"/><path d="m72.373 17.2031c3.7553-.4797 6.714.7998 8.8761 3.8383 1.2748 2.5373 1.3283 5.0962.16 7.6767-1.6964 2.7951-4.202 4.1812-7.5168 4.1582-6.1774-.4725-8.8963-3.7778-8.1564-9.9157 1.0558-3.2692 3.2683-5.1883 6.6371-5.7575zm1.1195 3.6784c3.0173.273 4.3767 1.9255 4.0782 4.9578-.5682 2.5376-2.1409 3.5772-4.7179 3.1187-2.2656-.9224-3.1452-2.6016-2.6389-5.0379.5173-1.6644 1.6101-2.6772 3.2786-3.0386z" fill="#000" opacity=".963"/><path d="m113.309 17.2024c3.917-.4281 6.716 1.118 8.397 4.638.922 2.8706.602 5.5894-.96 8.1565-2.495 2.7575-5.507 3.5306-9.036 2.319-.548-.2873-1.054-.6338-1.519-1.0396-.08 2.2384-.107 4.4774-.08 6.7171-1.493 0-2.986 0-4.478 0 0-6.877 0-13.754 0-20.631h4.318c-.026.5357 0 1.0688.08 1.5993.936-.9076 2.029-1.4941 3.278-1.7593zm.16 3.6785c3.099.3011 4.458 2.0071 4.079 5.1177-.658 2.4222-2.23 3.4083-4.718 2.9587-2.1-.8647-2.979-2.4373-2.639-4.7179.375-1.8413 1.468-2.9608 3.278-3.3585z" fill="#000" opacity=".967"/><path d="m18.1536 19.4416c1.5468-.0266 3.0929 0 4.638.08.7555.3894.9954 1.0026.7197 1.8392-.1867.1866-.3732.3731-.5598.5597-1.0663.0533-2.1324.1067-3.1986.1599-.2856.1256-.5255.3121-.7197.5598-.0533 2.6121-.1067 5.2245-.1599 7.8366-.5093.9679-1.2289 1.1812-2.1591.6397-.1734-.1863-.3066-.3995-.3998-.6397-.1067-2.9854-.1067-5.9707 0-8.9561.3678-.9266.9808-1.6196 1.8392-2.0791z" fill="#041837"/></g></svg>