<svg width="98" height="126" viewBox="0 0 98 126" fill="none" xmlns="http://www.w3.org/2000/svg"><g filter="url(#filter0_d_3643_2366)"><path fill-rule="evenodd" clip-rule="evenodd" d="M19.9688 41.5996H53.146V104.599C53.146 106.14 51.5238 107.143 50.1451 106.454L36.5574 99.6598L22.9697 106.454C21.5909 107.143 19.9688 106.14 19.9688 104.599V41.5996Z" fill="#32B4FF"/></g><g filter="url(#filter1_d_3643_2366)"><path fill-rule="evenodd" clip-rule="evenodd" d="M44.8555 41.5996H78.0327V104.599C78.0327 106.14 76.4105 107.143 75.0318 106.454L61.4441 99.6598L47.8564 106.454C46.4777 107.143 44.8555 106.14 44.8555 104.599V41.5996Z" fill="#32B4FF"/></g><g filter="url(#filter2_d_3643_2366)"><path fill-rule="evenodd" clip-rule="evenodd" d="M32.4102 51.9678H65.5874V114.967C65.5874 116.509 63.9652 117.511 62.5865 116.822L48.9988 110.028L35.4111 116.822C34.0323 117.511 32.4102 116.509 32.4102 114.967V51.9678Z" fill="#fff"/></g><mask id="mask0_3643_2366" style="mask-type:luminance" maskUnits="userSpaceOnUse" x="32" y="51" width="34" height="67"><path fill-rule="evenodd" clip-rule="evenodd" d="M32.4102 51.9678H65.5874V114.967C65.5874 116.509 63.9652 117.511 62.5865 116.822L48.9988 110.028L35.4111 116.822C34.0323 117.511 32.4102 116.509 32.4102 114.967V51.9678Z" fill="#fff"/></mask><g mask="url(#mask0_3643_2366)"><rect x="40.707" y="51.968" width="16.589" height="66.355" fill="#F55462"/></g><path style="mix-blend-mode:multiply" opacity=".2" fill-rule="evenodd" clip-rule="evenodd" d="M44.8548 6.6708C47.4211 5.18916 50.5828 5.18916 53.1491 6.6708L86.1575 25.7282C88.7238 27.2099 90.3047 29.948 90.3047 32.9113V71.0262C90.3047 73.9894 88.7238 76.7276 86.1575 78.2092L53.1491 97.2667C50.5828 98.7483 47.4211 98.7483 44.8548 97.2667L11.8464 78.2092C9.28011 76.7276 7.69922 73.9894 7.69922 71.0262L7.69922 32.9113C7.69922 29.948 9.28011 27.2099 11.8464 25.7282L44.8548 6.6708Z" fill="#7705A4"/><path fill-rule="evenodd" clip-rule="evenodd" d="M86.3235 20.1956C86.3235 19.3477 86.8397 18.5852 87.627 18.2703L94.9852 15.327C95.8024 15.0001 96.6914 15.602 96.6914 16.4822V48.4915C96.6914 49.3394 96.1752 50.1018 95.3879 50.4167L86.3235 54.0425V20.1956Z" fill="url(#paint0_linear_3643_2366)" stroke="url(#paint1_linear_3643_2366)" stroke-width="2.074" stroke-linecap="round" stroke-linejoin="round"/><mask id="mask1_3643_2366" style="mask-type:luminance" maskUnits="userSpaceOnUse" x="85" y="14" width="13" height="42"><path fill-rule="evenodd" clip-rule="evenodd" d="M86.3235 20.1956C86.3235 19.3477 86.8397 18.5852 87.627 18.2703L94.9852 15.327C95.8024 15.0001 96.6914 15.602 96.6914 16.4822V48.4915C96.6914 49.3394 96.1752 50.1018 95.3879 50.4167L86.3235 54.0425V20.1956Z" fill="#fff" stroke="#fff" stroke-width="2.074" stroke-linecap="round" stroke-linejoin="round"/></mask><g mask="url(#mask1_3643_2366)"><g style="mix-blend-mode:multiply" opacity=".6" filter="url(#filter3_i_3643_2366)"><path d="M87.359 32.96L99.1625 28.0419C99.691 27.8217 99.941 27.2147 99.7208 26.6861C99.5005 26.1576 98.8935 25.9076 98.365 26.1279L85.9235 31.3118C85.5371 31.4728 87.359 32.96 87.359 32.96Z" fill="#FABC10"/></g><g style="mix-blend-mode:multiply" opacity=".6" filter="url(#filter4_i_3643_2366)"><path d="M87.359 45.4034L99.1625 40.4853C99.691 40.2651 99.941 39.6581 99.7208 39.1295C99.5005 38.6009 98.8935 38.351 98.365 38.5712L85.9235 43.7552C85.5371 43.9162 87.359 45.4034 87.359 45.4034Z" fill="#FABC10"/></g><g opacity=".04"><path fill-rule="evenodd" clip-rule="evenodd" d="M55.2154 -0.541603C51.366 -2.76406 46.6234 -2.76406 42.774 -0.541606L10.2219 18.2524C6.37245 20.4748 4.00112 24.5821 4.00112 29.027V66.6149C4.00112 71.0598 6.37245 75.1671 10.2219 77.3896L42.774 96.1835C46.6234 98.406 51.366 98.406 55.2154 96.1835L87.7675 77.3896C91.6169 75.1671 93.9883 71.0598 93.9883 66.6149L93.9883 29.027C93.9883 24.5821 91.617 20.4748 87.7675 18.2524L55.2154 -0.541603Z" fill="#7705A4" style="mix-blend-mode:multiply"/></g></g><path fill-rule="evenodd" clip-rule="evenodd" d="M11.6726 20.1956C11.6726 19.3477 11.1564 18.5852 10.3691 18.2703L3.0109 15.327C2.19366 15.0001 1.30469 15.602 1.30469 16.4822V48.4915C1.30469 49.3394 1.82091 50.1018 2.60816 50.4167L11.6726 54.0425V20.1956Z" fill="url(#paint2_linear_3643_2366)" stroke="url(#paint3_linear_3643_2366)" stroke-width="2.074" stroke-linecap="round" stroke-linejoin="round"/><mask id="mask2_3643_2366" style="mask-type:luminance" maskUnits="userSpaceOnUse" x="0" y="14" width="13" height="42"><path fill-rule="evenodd" clip-rule="evenodd" d="M11.6726 20.1956C11.6726 19.3477 11.1564 18.5852 10.3691 18.2703L3.0109 15.327C2.19366 15.0001 1.30469 15.602 1.30469 16.4822V48.4915C1.30469 49.3394 1.82091 50.1018 2.60816 50.4167L11.6726 54.0425V20.1956Z" fill="#fff" stroke="#fff" stroke-width="2.074" stroke-linecap="round" stroke-linejoin="round"/></mask><g mask="url(#mask2_3643_2366)"><g style="mix-blend-mode:multiply" opacity=".6" filter="url(#filter5_i_3643_2366)"><path d="M10.6371 32.961L-1.16639 28.0429C-1.69495 27.8227 -1.9449 27.2157 -1.72466 26.6871C-1.50443 26.1586 -0.89742 25.9086 -0.368863 26.1289L12.0726 31.3128C12.459 31.4738 10.6371 32.961 10.6371 32.961Z" fill="#FABC10"/></g><g style="mix-blend-mode:multiply" opacity=".6" filter="url(#filter6_i_3643_2366)"><path d="M10.6371 45.4034L-1.16639 40.4853C-1.69495 40.2651 -1.9449 39.6581 -1.72466 39.1295C-1.50443 38.6009 -0.897419 38.351 -0.368863 38.5712L12.0726 43.7552C12.459 43.9162 10.6371 45.4034 10.6371 45.4034Z" fill="#FABC10"/></g><g opacity=".04"><path fill-rule="evenodd" clip-rule="evenodd" d="M42.7728 -0.540627C46.6222 -2.76308 51.3649 -2.76308 55.2143 -0.540629L87.7664 18.2533C91.6158 20.4758 93.9872 24.5831 93.9872 29.028V66.6159C93.9872 71.0608 91.6158 75.1681 87.7664 77.3905L55.2143 96.1845C51.3649 98.407 46.6223 98.407 42.7729 96.1845L10.2207 77.3905C6.37133 75.1681 4 71.0608 4 66.6159L4 29.028C4 24.5831 6.37133 20.4758 10.2207 18.2533L42.7728 -0.540627Z" fill="#7705A4" style="mix-blend-mode:multiply"/></g></g><path fill-rule="evenodd" clip-rule="evenodd" d="M78.025 9.0986C78.025 7.72096 76.7064 6.72634 75.3818 7.10481L48.9949 14.6439L22.6081 7.10481C21.2834 6.72634 19.9648 7.72096 19.9648 9.0986V39.5269C19.9648 40.6721 20.8932 41.6004 22.0384 41.6004H75.9515C77.0967 41.6004 78.025 40.6721 78.025 39.5268V9.0986Z" fill="url(#paint4_linear_3643_2366)" stroke="url(#paint5_linear_3643_2366)" stroke-width="2.074" stroke-linecap="round" stroke-linejoin="round"/><path fill-rule="evenodd" clip-rule="evenodd" d="M44.8498 2.52425C47.4161 1.04261 50.5779 1.04261 53.1441 2.52424L86.1526 21.5817C88.7188 23.0633 90.2997 25.8015 90.2997 28.7648V66.8796C90.2997 69.8429 88.7188 72.5811 86.1526 74.0627L53.1441 93.1201C50.5779 94.6017 47.4161 94.6018 44.8498 93.1201L11.8414 74.0627C9.27513 72.5811 7.69424 69.8429 7.69424 66.8796V28.7648C7.69424 25.8015 9.27513 23.0633 11.8414 21.5817L44.8498 2.52425Z" fill="url(#paint6_linear_3643_2366)" stroke="#FFF04D" stroke-opacity=".4" stroke-width="2.074"/><g style="mix-blend-mode:multiply" opacity=".8" filter="url(#filter7_i_3643_2366)"><path fill-rule="evenodd" clip-rule="evenodd" d="M81.4986 25.4046L52.1483 8.43931C50.2023 7.3145 47.8048 7.3145 45.8589 8.43931L16.5086 25.4046C14.5626 26.5294 13.3639 28.6082 13.3639 30.8578V43.0956L10.9844 46.6691C10.5208 47.3652 10.5208 48.2716 10.9844 48.9677L13.3639 52.5412V64.7885C13.3639 67.0381 14.5626 69.1168 16.5086 70.2416L45.8589 87.2069C47.8048 88.3317 50.2023 88.3317 52.1483 87.2069L81.4986 70.2416C83.4445 69.1168 84.6433 67.0381 84.6433 64.7885V52.5389L87.0213 48.9677C87.4848 48.2716 87.4848 47.3652 87.0213 46.6691L84.6433 43.0979V30.8578C84.6433 28.6082 83.4445 26.5294 81.4986 25.4046ZM15.4611 52.5396V64.7878C15.4611 66.2875 16.2603 67.6733 17.5575 68.4232L46.9079 85.3885C48.2052 86.1384 49.8035 86.1384 51.1008 85.3885L80.4511 68.4232C81.7484 67.6733 82.5476 66.2875 82.5476 64.7878V52.5441L80.1661 48.9677C79.7025 48.2716 79.7025 47.3652 80.1661 46.6691L82.5476 43.0927V30.8571C82.5476 29.3574 81.7484 27.9716 80.4511 27.2217L51.1008 10.2564C49.8035 9.50649 48.2052 9.50649 46.9079 10.2564L17.5575 27.2217C16.2603 27.9716 15.4611 29.3574 15.4611 30.8571V43.0972L17.8396 46.6691C18.3031 47.3652 18.3031 48.2716 17.8396 48.9677L15.4611 52.5396Z" fill="#FABC10"/></g><path d="M52.6252 3.42154C50.3797 2.12511 47.6131 2.12511 45.3677 3.42154L12.3592 22.479C10.1137 23.7754 8.73047 26.1713 8.73047 28.7642L8.73047 66.879C8.73047 69.4719 10.1137 71.8678 12.3592 73.1642L45.3677 92.2216C47.6131 93.5181 50.3797 93.5181 52.6252 92.2216L85.6336 73.1642C87.8791 71.8678 89.2624 69.4719 89.2624 66.879V28.7642C89.2624 26.1713 87.8791 23.7754 85.6336 22.479L52.6252 3.42154Z" stroke="#F9B307" stroke-width="2.074"/><path opacity=".4" d="M52.625 92.2227C56.5074 89.9812 59.2583 88.393 60.8778 87.458" stroke="#fff" stroke-width="2.074" stroke-linecap="round"/><path d="M89.2624 66.879V28.7642C89.2624 26.1713 87.8791 23.7754 85.6336 22.479L52.6252 3.42154C50.3797 2.12511 47.6131 2.12511 45.3677 3.42154L12.3592 22.479C10.1137 23.7754 8.73047 26.1713 8.73047 28.7642L8.73047 66.879" stroke="#FAC00E" stroke-width="2.074" stroke-linecap="round"/><path opacity=".6" d="M89.2624 28.7642C89.2624 26.1713 87.8791 23.7754 85.6336 22.479L52.6252 3.42154C50.3797 2.12511 47.6131 2.12511 45.3677 3.42154L12.3592 22.479C10.1137 23.7754 8.73047 26.1713 8.73047 28.7642" stroke="#FDDB3D" stroke-width="2.074" stroke-linecap="round"/><path opacity=".6" d="M52.625 3.42154C50.3795 2.12511 47.613 2.12511 45.3675 3.42154C45.3675 3.42154 34.3647 9.77402 28.8633 12.9503" stroke="#fff" stroke-width="2.074" stroke-linecap="round"/><path d="M45.37 3.42285C45.37 3.42285 39.5464 6.78511 37.1172 8.18759" stroke="#fff" stroke-width="2.074" stroke-linecap="round"/><g filter="url(#filter8_d_3643_2366)"><path fill-rule="evenodd" clip-rule="evenodd" d="M46.9201 15.8427C48.2032 15.1019 49.7841 15.1019 51.0672 15.8427L75.6524 30.037C76.9356 30.7778 77.726 32.1469 77.726 33.6285V62.017C77.726 63.4987 76.9356 64.8677 75.6524 65.6086L51.0672 79.8028C49.7841 80.5436 48.2032 80.5436 46.9201 79.8028L22.3349 65.6086C21.0518 64.8677 20.2613 63.4987 20.2613 62.017V33.6285C20.2613 32.1469 21.0518 30.7778 22.3349 30.037L46.9201 15.8427Z" fill="url(#paint7_linear_3643_2366)"/><path d="M51.5856 14.9448C49.9817 14.0188 48.0056 14.0188 46.4017 14.9448L21.8165 29.1391C20.2126 30.0651 19.2245 31.7764 19.2245 33.6285V62.017C19.2245 63.8691 20.2126 65.5804 21.8165 66.5064L46.4017 80.7007C48.0056 81.6267 49.9817 81.6267 51.5856 80.7007L76.1708 66.5064C77.7747 65.5804 78.7628 63.8691 78.7628 62.017V33.6285C78.7628 31.7765 77.7747 30.0651 76.1708 29.1391L51.5856 14.9448Z" stroke="#F5900D" stroke-opacity=".1" stroke-width="2.074" style="mix-blend-mode:multiply"/></g><mask id="mask3_3643_2366" style="mask-type:luminance" maskUnits="userSpaceOnUse" x="20" y="15" width="58" height="66"><path fill-rule="evenodd" clip-rule="evenodd" d="M46.9201 15.8427C48.2032 15.1019 49.7841 15.1019 51.0672 15.8427L75.6524 30.037C76.9356 30.7778 77.726 32.1469 77.726 33.6285V62.017C77.726 63.4987 76.9356 64.8677 75.6524 65.6086L51.0672 79.8028C49.7841 80.5436 48.2032 80.5436 46.9201 79.8028L22.3349 65.6086C21.0518 64.8677 20.2613 63.4987 20.2613 62.017V33.6285C20.2613 32.1469 21.0518 30.7778 22.3349 30.037L46.9201 15.8427Z" fill="#fff"/></mask><g mask="url(#mask3_3643_2366)"><g style="mix-blend-mode:multiply" opacity=".3"><path fill-rule="evenodd" clip-rule="evenodd" d="M48.9993 47.8104L57.2905 14.6455H40.7019L48.9949 47.8177L48.9937 47.8198L31.4004 18.4977L19.6705 30.2277L48.9929 47.8211L48.9922 47.8223L48.9935 47.8215L48.9951 47.8224L48.9948 47.8225L48.9946 47.8224L48.9947 47.8225L48.9938 47.8227L48.9937 47.8222L48.9935 47.8228L48.9934 47.8227L48.9935 47.8226L48.9934 47.8227L15.8164 39.5285V56.1171L48.992 47.8232L48.9924 47.8233L19.6686 65.4175L31.3986 77.1475L48.993 47.8234L48.9933 47.8235L40.6994 80.9994H57.288L48.9941 47.8237L48.9957 47.8241L66.5895 77.1472L78.3194 65.4173L48.9989 47.8249L82.1692 56.1175V39.5289L48.9964 47.8221L48.9971 47.8193L78.317 30.2274L66.5871 18.4974L48.9993 47.8104ZM48.9952 47.8224L48.9961 47.8222L48.9956 47.8202L48.9943 47.821L48.9952 47.8224Z" fill="#FFD640"/></g><path opacity=".4" d="M75.1323 30.9342L50.5471 16.74C49.5848 16.1843 48.3991 16.1843 47.4367 16.74C44.5453 18.4093 42.4965 19.5922 41.2905 20.2885C38.7804 21.7377 36.7316 22.9205 35.1442 23.8371C32.4125 25.4142 28.3149 27.7799 22.8516 30.9342" stroke="#fff" stroke-width="2.074" stroke-linecap="round"/><path opacity=".4" d="M75.1291 64.64L50.544 78.8343C49.5816 79.3899 48.3959 79.3899 47.4336 78.8343" stroke="#fff" stroke-width="2.074" stroke-linecap="round"/><path d="M47.4398 16.7402C44.5481 18.4098 42.4992 19.5927 41.293 20.2891" stroke="#fff" stroke-width="2.074" stroke-linecap="round"/></g><g filter="url(#filter9_d_3643_2366)"><path fill-rule="evenodd" clip-rule="evenodd" d="M49.0027 29.1592L65.5913 47.8214L49.0027 66.4836L32.4141 47.8214L49.0027 29.1592Z" fill="#fff"/><path d="M50.5525 27.7816C50.159 27.3389 49.595 27.0856 49.0027 27.0856C48.4104 27.0856 47.8464 27.3389 47.4529 27.7816L30.8643 46.4438C30.1659 47.2294 30.1659 48.4133 30.8643 49.199L47.4529 67.8612C47.8464 68.3039 48.4104 68.5572 49.0027 68.5572C49.595 68.5572 50.159 68.3039 50.5525 67.8612L67.1411 49.199C67.8395 48.4133 67.8395 47.2294 67.1411 46.4438L50.5525 27.7816Z" stroke="#fff" stroke-width="4.147" stroke-linejoin="round"/></g><path fill-rule="evenodd" clip-rule="evenodd" d="M49.0027 29.1592L65.5913 47.8214H32.4141L49.0027 29.1592Z" fill="url(#paint8_linear_3643_2366)"/><path fill-rule="evenodd" clip-rule="evenodd" d="M49.0027 66.4835L65.5913 47.8213H32.4141L49.0027 66.4835Z" fill="url(#paint9_linear_3643_2366)"/><path fill-rule="evenodd" clip-rule="evenodd" d="M49.002 29.1592L41.0039 47.8214H57.0001L49.002 29.1592Z" fill="url(#paint10_linear_3643_2366)"/><path fill-rule="evenodd" clip-rule="evenodd" d="M49.002 66.4835L41.0039 47.8213H57.0001L49.002 66.4835Z" fill="url(#paint11_linear_3643_2366)"/><g filter="url(#filter10_d_3643_2366)"><path fill-rule="evenodd" clip-rule="evenodd" d="M71.6194 34.9245L70.5425 34.4998C69.8838 34.24 69.5604 33.4955 69.8202 32.8368C69.9505 32.5064 70.2121 32.2448 70.5425 32.1145L71.6194 31.6898C72.8614 31.2 73.8445 30.2169 74.3343 28.9749L74.7591 27.8979C75.0188 27.2393 75.7634 26.9159 76.4221 27.1757C76.7525 27.306 77.014 27.5675 77.1443 27.8979L77.5691 28.9749C78.0589 30.2169 79.042 31.2 80.284 31.6898L81.3609 32.1145C82.0196 32.3743 82.343 33.1189 82.0832 33.7775C81.9529 34.1079 81.6913 34.3695 81.3609 34.4998L80.284 34.9245C79.042 35.4144 78.0589 36.3975 77.5691 37.6394L77.1443 38.7164C76.8846 39.3751 76.14 39.6984 75.4813 39.4387C75.1509 39.3083 74.8894 39.0468 74.7591 38.7164L74.3343 37.6394C73.8445 36.3975 72.8614 35.4144 71.6194 34.9245Z" fill="#fff"/></g><g filter="url(#filter11_d_3643_2366)"><path fill-rule="evenodd" clip-rule="evenodd" d="M29.5171 67.5627L28.7992 67.2795C28.36 67.1063 28.1445 66.6099 28.3176 66.1708C28.4045 65.9505 28.5789 65.7762 28.7992 65.6893L29.5171 65.4061C30.3451 65.0796 31.0005 64.4242 31.327 63.5962L31.6102 62.8783C31.7834 62.4391 32.2798 62.2236 32.7189 62.3967C32.9391 62.4836 33.1135 62.658 33.2004 62.8783L33.4836 63.5962C33.8101 64.4242 34.4655 65.0796 35.2935 65.4061L36.0114 65.6893C36.4506 65.8625 36.6661 66.3589 36.493 66.798C36.4061 67.0183 36.2317 67.1926 36.0114 67.2795L35.2935 67.5627C34.4655 67.8892 33.8101 68.5446 33.4836 69.3726L33.2004 70.0905C33.0272 70.5297 32.5308 70.7452 32.0917 70.5721C31.8714 70.4852 31.6971 70.3108 31.6102 70.0905L31.327 69.3726C31.0005 68.5446 30.3451 67.8892 29.5171 67.5627Z" fill="#fff"/></g><g filter="url(#filter12_d_3643_2366)"><path fill-rule="evenodd" clip-rule="evenodd" d="M17.3906 37.7656L16.4931 37.4116C15.9442 37.1951 15.6747 36.5747 15.8912 36.0258C15.9998 35.7504 16.2177 35.5325 16.4931 35.4239L17.3906 35.0699C18.4255 34.6618 19.2448 33.8425 19.6529 32.8075L20.0069 31.9101C20.2234 31.3612 20.8438 31.0917 21.3927 31.3082C21.6681 31.4168 21.886 31.6347 21.9946 31.9101L22.3486 32.8075C22.7568 33.8425 23.576 34.6618 24.611 35.0699L25.5084 35.4239C26.0573 35.6404 26.3268 36.2608 26.1103 36.8097C26.0017 37.0851 25.7838 37.303 25.5084 37.4116L24.611 37.7656C23.576 38.1738 22.7568 38.993 22.3486 40.028L21.9946 40.9254C21.7781 41.4743 21.1577 41.7438 20.6088 41.5273C20.3335 41.4187 20.1155 41.2008 20.0069 40.9254L19.6529 40.028C19.2448 38.993 18.4255 38.1738 17.3906 37.7656Z" fill="#fff"/></g><g filter="url(#filter13_d_3643_2366)"><path fill-rule="evenodd" clip-rule="evenodd" d="M70.675 68.3295L70.1365 68.1171C69.8071 67.9872 69.6455 67.6149 69.7753 67.2856C69.8405 67.1204 69.9713 66.9896 70.1365 66.9245L70.675 66.7121C71.2959 66.4672 71.7875 65.9756 72.0324 65.3547L72.2448 64.8162C72.3747 64.4868 72.747 64.3251 73.0763 64.455C73.2415 64.5202 73.3723 64.651 73.4374 64.8162L73.6498 65.3547C73.8947 65.9756 74.3863 66.4672 75.0072 66.7121L75.5457 66.9245C75.8751 67.0544 76.0368 67.4266 75.9069 67.756C75.8417 67.9212 75.7109 68.052 75.5457 68.1171L75.0072 68.3295C74.3863 68.5744 73.8947 69.066 73.6498 69.6869L73.4374 70.2254C73.3075 70.5548 72.9353 70.7164 72.6059 70.5866C72.4407 70.5214 72.3099 70.3906 72.2448 70.2254L72.0324 69.6869C71.7875 69.066 71.2959 68.5744 70.675 68.3295Z" fill="#fff"/></g><defs><filter id="filter0_d_3643_2366" x="15.822" y="41.6" width="41.47" height="73.37" filterUnits="userSpaceOnUse" color-interpolation-filters="sRGB"><feFlood flood-opacity="0" result="BackgroundImageFix"/><feColorMatrix in="SourceAlpha" type="matrix" values="0 0 0 0 0 0 0 0 0 0 0 0 0 0 0 0 0 0 127 0" result="hardAlpha"/><feOffset dy="4.147"/><feGaussianBlur stdDeviation="2.074"/><feColorMatrix type="matrix" values="0 0 0 0 0.309804 0 0 0 0 0.247059 0 0 0 0 0.866667 0 0 0 0.2 0"/><feBlend mode="darken" in2="BackgroundImageFix" result="effect1_dropShadow_3643_2366"/><feBlend mode="normal" in="SourceGraphic" in2="effect1_dropShadow_3643_2366" result="shape"/></filter><filter id="filter1_d_3643_2366" x="40.708" y="41.6" width="41.47" height="73.37" filterUnits="userSpaceOnUse" color-interpolation-filters="sRGB"><feFlood flood-opacity="0" result="BackgroundImageFix"/><feColorMatrix in="SourceAlpha" type="matrix" values="0 0 0 0 0 0 0 0 0 0 0 0 0 0 0 0 0 0 127 0" result="hardAlpha"/><feOffset dy="4.147"/><feGaussianBlur stdDeviation="2.074"/><feColorMatrix type="matrix" values="0 0 0 0 0.309804 0 0 0 0 0.247059 0 0 0 0 0.866667 0 0 0 0.2 0"/><feBlend mode="darken" in2="BackgroundImageFix" result="effect1_dropShadow_3643_2366"/><feBlend mode="normal" in="SourceGraphic" in2="effect1_dropShadow_3643_2366" result="shape"/></filter><filter id="filter2_d_3643_2366" x="28.263" y="51.968" width="41.47" height="73.37" filterUnits="userSpaceOnUse" color-interpolation-filters="sRGB"><feFlood flood-opacity="0" result="BackgroundImageFix"/><feColorMatrix in="SourceAlpha" type="matrix" values="0 0 0 0 0 0 0 0 0 0 0 0 0 0 0 0 0 0 127 0" result="hardAlpha"/><feOffset dy="4.147"/><feGaussianBlur stdDeviation="2.074"/><feColorMatrix type="matrix" values="0 0 0 0 0.309804 0 0 0 0 0.247059 0 0 0 0 0.866667 0 0 0 0.2 0"/><feBlend mode="darken" in2="BackgroundImageFix" result="effect1_dropShadow_3643_2366"/><feBlend mode="normal" in="SourceGraphic" in2="effect1_dropShadow_3643_2366" result="shape"/></filter><filter id="filter3_i_3643_2366" x="85.871" y="26.048" width="13.93" height="8.986" filterUnits="userSpaceOnUse" color-interpolation-filters="sRGB"><feFlood flood-opacity="0" result="BackgroundImageFix"/><feBlend mode="normal" in="SourceGraphic" in2="BackgroundImageFix" result="shape"/><feColorMatrix in="SourceAlpha" type="matrix" values="0 0 0 0 0 0 0 0 0 0 0 0 0 0 0 0 0 0 127 0" result="hardAlpha"/><feOffset dy="2.074"/><feGaussianBlur stdDeviation="1.037"/><feComposite in2="hardAlpha" operator="arithmetic" k2="-1" k3="1"/><feColorMatrix type="matrix" values="0 0 0 0 0.976471 0 0 0 0 0.713726 0 0 0 0 0.0352941 0 0 0 1 0"/><feBlend mode="normal" in2="shape" result="effect1_innerShadow_3643_2366"/></filter><filter id="filter4_i_3643_2366" x="85.871" y="38.491" width="13.93" height="8.986" filterUnits="userSpaceOnUse" color-interpolation-filters="sRGB"><feFlood flood-opacity="0" result="BackgroundImageFix"/><feBlend mode="normal" in="SourceGraphic" in2="BackgroundImageFix" result="shape"/><feColorMatrix in="SourceAlpha" type="matrix" values="0 0 0 0 0 0 0 0 0 0 0 0 0 0 0 0 0 0 127 0" result="hardAlpha"/><feOffset dy="2.074"/><feGaussianBlur stdDeviation="1.037"/><feComposite in2="hardAlpha" operator="arithmetic" k2="-1" k3="1"/><feColorMatrix type="matrix" values="0 0 0 0 0.976471 0 0 0 0 0.713726 0 0 0 0 0.0352941 0 0 0 1 0"/><feBlend mode="normal" in2="shape" result="effect1_innerShadow_3643_2366"/></filter><filter id="filter5_i_3643_2366" x="-1.805" y="26.049" width="13.93" height="8.986" filterUnits="userSpaceOnUse" color-interpolation-filters="sRGB"><feFlood flood-opacity="0" result="BackgroundImageFix"/><feBlend mode="normal" in="SourceGraphic" in2="BackgroundImageFix" result="shape"/><feColorMatrix in="SourceAlpha" type="matrix" values="0 0 0 0 0 0 0 0 0 0 0 0 0 0 0 0 0 0 127 0" result="hardAlpha"/><feOffset dy="2.074"/><feGaussianBlur stdDeviation="1.037"/><feComposite in2="hardAlpha" operator="arithmetic" k2="-1" k3="1"/><feColorMatrix type="matrix" values="0 0 0 0 0.976471 0 0 0 0 0.713726 0 0 0 0 0.0352941 0 0 0 1 0"/><feBlend mode="normal" in2="shape" result="effect1_innerShadow_3643_2366"/></filter><filter id="filter6_i_3643_2366" x="-1.805" y="38.491" width="13.93" height="8.986" filterUnits="userSpaceOnUse" color-interpolation-filters="sRGB"><feFlood flood-opacity="0" result="BackgroundImageFix"/><feBlend mode="normal" in="SourceGraphic" in2="BackgroundImageFix" result="shape"/><feColorMatrix in="SourceAlpha" type="matrix" values="0 0 0 0 0 0 0 0 0 0 0 0 0 0 0 0 0 0 127 0" result="hardAlpha"/><feOffset dy="2.074"/><feGaussianBlur stdDeviation="1.037"/><feComposite in2="hardAlpha" operator="arithmetic" k2="-1" k3="1"/><feColorMatrix type="matrix" values="0 0 0 0 0.976471 0 0 0 0 0.713726 0 0 0 0 0.0352941 0 0 0 1 0"/><feBlend mode="normal" in2="shape" result="effect1_innerShadow_3643_2366"/></filter><filter id="filter7_i_3643_2366" x="10.637" y="7.596" width="76.731" height="82.529" filterUnits="userSpaceOnUse" color-interpolation-filters="sRGB"><feFlood flood-opacity="0" result="BackgroundImageFix"/><feBlend mode="normal" in="SourceGraphic" in2="BackgroundImageFix" result="shape"/><feColorMatrix in="SourceAlpha" type="matrix" values="0 0 0 0 0 0 0 0 0 0 0 0 0 0 0 0 0 0 127 0" result="hardAlpha"/><feOffset dy="2.074"/><feGaussianBlur stdDeviation="1.037"/><feComposite in2="hardAlpha" operator="arithmetic" k2="-1" k3="1"/><feColorMatrix type="matrix" values="0 0 0 0 0.976471 0 0 0 0 0.713726 0 0 0 0 0.0352941 0 0 0 1 0"/><feBlend mode="normal" in2="shape" result="effect1_innerShadow_3643_2366"/></filter><filter id="filter8_d_3643_2366" x="14.04" y="11.14" width="69.908" height="77.512" filterUnits="userSpaceOnUse" color-interpolation-filters="sRGB"><feFlood flood-opacity="0" result="BackgroundImageFix"/><feColorMatrix in="SourceAlpha" type="matrix" values="0 0 0 0 0 0 0 0 0 0 0 0 0 0 0 0 0 0 127 0" result="hardAlpha"/><feOffset dy="2.074"/><feGaussianBlur stdDeviation="2.074"/><feColorMatrix type="matrix" values="0 0 0 0 0.927721 0 0 0 0 0.665867 0 0 0 0 0.0535899 0 0 0 0.4 0"/><feBlend mode="normal" in2="BackgroundImageFix" result="effect1_dropShadow_3643_2366"/><feBlend mode="normal" in="SourceGraphic" in2="effect1_dropShadow_3643_2366" result="shape"/></filter><filter id="filter9_d_3643_2366" x="24.119" y="22.938" width="49.767" height="53.913" filterUnits="userSpaceOnUse" color-interpolation-filters="sRGB"><feFlood flood-opacity="0" result="BackgroundImageFix"/><feColorMatrix in="SourceAlpha" type="matrix" values="0 0 0 0 0 0 0 0 0 0 0 0 0 0 0 0 0 0 127 0" result="hardAlpha"/><feOffset dy="2.074"/><feGaussianBlur stdDeviation="2.074"/><feColorMatrix type="matrix" values="0 0 0 0 0.996078 0 0 0 0 0.733333 0 0 0 0 0.105882 0 0 0 1 0"/><feBlend mode="normal" in2="BackgroundImageFix" result="effect1_dropShadow_3643_2366"/><feBlend mode="normal" in="SourceGraphic" in2="effect1_dropShadow_3643_2366" result="shape"/></filter><filter id="filter10_d_3643_2366" x="65.583" y="22.939" width="20.736" height="20.737" filterUnits="userSpaceOnUse" color-interpolation-filters="sRGB"><feFlood flood-opacity="0" result="BackgroundImageFix"/><feColorMatrix in="SourceAlpha" type="matrix" values="0 0 0 0 0 0 0 0 0 0 0 0 0 0 0 0 0 0 127 0" result="hardAlpha"/><feOffset/><feGaussianBlur stdDeviation="2.074"/><feColorMatrix type="matrix" values="0 0 0 0 1 0 0 0 0 0.94902 0 0 0 0 0.305882 0 0 0 1 0"/><feBlend mode="normal" in2="BackgroundImageFix" result="effect1_dropShadow_3643_2366"/><feBlend mode="normal" in="SourceGraphic" in2="effect1_dropShadow_3643_2366" result="shape"/></filter><filter id="filter11_d_3643_2366" x="24.111" y="58.19" width="16.591" height="16.589" filterUnits="userSpaceOnUse" color-interpolation-filters="sRGB"><feFlood flood-opacity="0" result="BackgroundImageFix"/><feColorMatrix in="SourceAlpha" type="matrix" values="0 0 0 0 0 0 0 0 0 0 0 0 0 0 0 0 0 0 127 0" result="hardAlpha"/><feOffset/><feGaussianBlur stdDeviation="2.074"/><feColorMatrix type="matrix" values="0 0 0 0 1 0 0 0 0 0.94902 0 0 0 0 0.305882 0 0 0 1 0"/><feBlend mode="normal" in2="BackgroundImageFix" result="effect1_dropShadow_3643_2366"/><feBlend mode="normal" in="SourceGraphic" in2="effect1_dropShadow_3643_2366" result="shape"/></filter><filter id="filter12_d_3643_2366" x="11.669" y="27.086" width="18.662" height="18.663" filterUnits="userSpaceOnUse" color-interpolation-filters="sRGB"><feFlood flood-opacity="0" result="BackgroundImageFix"/><feColorMatrix in="SourceAlpha" type="matrix" values="0 0 0 0 0 0 0 0 0 0 0 0 0 0 0 0 0 0 127 0" result="hardAlpha"/><feOffset/><feGaussianBlur stdDeviation="2.074"/><feColorMatrix type="matrix" values="0 0 0 0 1 0 0 0 0 0.94902 0 0 0 0 0.305882 0 0 0 1 0"/><feBlend mode="normal" in2="BackgroundImageFix" result="effect1_dropShadow_3643_2366"/><feBlend mode="normal" in="SourceGraphic" in2="effect1_dropShadow_3643_2366" result="shape"/></filter><filter id="filter13_d_3643_2366" x="65.583" y="60.263" width="14.517" height="14.516" filterUnits="userSpaceOnUse" color-interpolation-filters="sRGB"><feFlood flood-opacity="0" result="BackgroundImageFix"/><feColorMatrix in="SourceAlpha" type="matrix" values="0 0 0 0 0 0 0 0 0 0 0 0 0 0 0 0 0 0 127 0" result="hardAlpha"/><feOffset/><feGaussianBlur stdDeviation="2.074"/><feColorMatrix type="matrix" values="0 0 0 0 1 0 0 0 0 0.94902 0 0 0 0 0.305882 0 0 0 1 0"/><feBlend mode="normal" in2="BackgroundImageFix" result="effect1_dropShadow_3643_2366"/><feBlend mode="normal" in="SourceGraphic" in2="effect1_dropShadow_3643_2366" result="shape"/></filter><linearGradient id="paint0_linear_3643_2366" x1="96.691" y1="14.645" x2="96.691" y2="54.042" gradientUnits="userSpaceOnUse"><stop stop-color="#F7C71A"/><stop offset="1" stop-color="#FBAA00"/></linearGradient><linearGradient id="paint1_linear_3643_2366" x1="96.691" y1="14.645" x2="96.691" y2="54.042" gradientUnits="userSpaceOnUse"><stop stop-color="#FFDF6B"/><stop offset="1" stop-color="#F8A60A"/></linearGradient><linearGradient id="paint2_linear_3643_2366" x1="1.305" y1="14.645" x2="1.305" y2="54.042" gradientUnits="userSpaceOnUse"><stop stop-color="#F7C71A"/><stop offset="1" stop-color="#FBAA00"/></linearGradient><linearGradient id="paint3_linear_3643_2366" x1="1.305" y1="14.645" x2="1.305" y2="54.042" gradientUnits="userSpaceOnUse"><stop stop-color="#FFDF6B"/><stop offset="1" stop-color="#F8A60A"/></linearGradient><linearGradient id="paint4_linear_3643_2366" x1="19.965" y1="7.083" x2="19.965" y2="41.6" gradientUnits="userSpaceOnUse"><stop stop-color="#F7C71A"/><stop offset="1" stop-color="#FBAA00"/></linearGradient><linearGradient id="paint5_linear_3643_2366" x1="19.965" y1="7.083" x2="19.965" y2="41.6" gradientUnits="userSpaceOnUse"><stop stop-color="#FFDF6B"/><stop offset="1" stop-color="#F8A60A"/></linearGradient><linearGradient id="paint6_linear_3643_2366" x1="1.305" y1=".13" x2="1.305" y2="95.514" gradientUnits="userSpaceOnUse"><stop stop-color="#FDE046"/><stop offset="1" stop-color="#F9B800"/></linearGradient><linearGradient id="paint7_linear_3643_2366" x1="15.816" y1="14.646" x2="15.816" y2="81" gradientUnits="userSpaceOnUse"><stop stop-color="#FFF550"/><stop offset="1" stop-color="#FFD541"/></linearGradient><linearGradient id="paint8_linear_3643_2366" x1="32.414" y1="29.159" x2="32.414" y2="47.821" gradientUnits="userSpaceOnUse"><stop stop-color="#27DEEB"/><stop offset="1" stop-color="#08C9FF"/></linearGradient><linearGradient id="paint9_linear_3643_2366" x1="32.414" y1="47.821" x2="32.414" y2="66.484" gradientUnits="userSpaceOnUse"><stop stop-color="#009BF6"/><stop offset="1" stop-color="#00B5FF"/></linearGradient><linearGradient id="paint10_linear_3643_2366" x1="41.004" y1="29.159" x2="41.004" y2="47.821" gradientUnits="userSpaceOnUse"><stop stop-color="#8AFFFF"/><stop offset="1" stop-color="#0DF3FF"/></linearGradient><linearGradient id="paint11_linear_3643_2366" x1="41.004" y1="47.821" x2="41.004" y2="66.484" gradientUnits="userSpaceOnUse"><stop stop-color="#00BAF3"/><stop offset="1" stop-color="#00B5FF"/></linearGradient></defs></svg>