<svg width="384" height="480" viewBox="0 0 384 480" fill="none" xmlns="http://www.w3.org/2000/svg"><g clip-path="url(#clip0_3516_2545)"><rect width="384" height="480" rx="32" fill="#011530"/><path d="M154.229 73V70.1364L163.089 60.9574C164.035 59.9602 164.815 59.0866 165.428 58.3366C166.05 57.5781 166.515 56.858 166.822 56.1761C167.129 55.4943 167.282 54.7699 167.282 54.0028C167.282 53.1335 167.077 52.3835 166.668 51.7528C166.259 51.1136 165.701 50.6236 164.994 50.2827C164.286 49.9332 163.489 49.7585 162.603 49.7585C161.665 49.7585 160.847 49.9503 160.148 50.3338C159.45 50.7173 158.913 51.2585 158.538 51.9574C158.163 52.6562 157.975 53.4744 157.975 54.4119H154.204C154.204 52.8182 154.57 51.4247 155.303 50.2315C156.036 49.0384 157.042 48.1136 158.32 47.4574C159.599 46.7926 161.052 46.4602 162.68 46.4602C164.325 46.4602 165.773 46.7884 167.026 47.4446C168.288 48.0923 169.272 48.9787 169.979 50.1037C170.687 51.2202 171.04 52.4815 171.04 53.8878C171.04 54.8594 170.857 55.8097 170.491 56.7386C170.133 57.6676 169.506 58.7031 168.612 59.8452C167.717 60.9787 166.472 62.3551 164.879 63.9744L159.675 69.4205V69.6122H171.462V73H154.229ZM183.923 73.4347C181.903 73.4261 180.177 72.8935 178.745 71.8366C177.313 70.7798 176.218 69.2415 175.46 67.2216C174.701 65.2017 174.322 62.7685 174.322 59.9219C174.322 57.0838 174.701 54.6591 175.46 52.6477C176.227 50.6364 177.326 49.1023 178.758 48.0455C180.198 46.9886 181.92 46.4602 183.923 46.4602C185.925 46.4602 187.643 46.9929 189.075 48.0582C190.506 49.1151 191.602 50.6491 192.36 52.6605C193.127 54.6634 193.511 57.0838 193.511 59.9219C193.511 62.777 193.131 65.2145 192.373 67.2344C191.614 69.2457 190.519 70.7841 189.087 71.8494C187.656 72.9063 185.934 73.4347 183.923 73.4347ZM183.923 70.0213C185.695 70.0213 187.08 69.1562 188.077 67.4261C189.083 65.696 189.586 63.1946 189.586 59.9219C189.586 57.7486 189.356 55.9119 188.896 54.4119C188.444 52.9034 187.792 51.7614 186.94 50.9858C186.096 50.2017 185.09 49.8097 183.923 49.8097C182.158 49.8097 180.773 50.679 179.768 52.4176C178.762 54.1562 178.255 56.6577 178.246 59.9219C178.246 62.1037 178.472 63.9489 178.924 65.4574C179.384 66.9574 180.036 68.0952 180.88 68.8707C181.724 69.6378 182.738 70.0213 183.923 70.0213ZM206.479 46.8182V73H202.516V50.7812H202.363L196.098 54.8722V51.0881L202.631 46.8182H206.479ZM220.908 73.358C219.076 73.358 217.456 73.0426 216.05 72.4119C214.652 71.7812 213.557 70.9119 212.765 69.804C211.972 68.696 211.58 67.4347 211.588 66.0199C211.58 64.9119 211.806 63.8935 212.266 62.9645C212.735 62.027 213.37 61.2472 214.171 60.625C214.972 59.9943 215.867 59.5938 216.855 59.4233V59.2699C215.551 58.9545 214.507 58.2557 213.723 57.1733C212.939 56.0909 212.551 54.8466 212.56 53.4403C212.551 52.1023 212.905 50.9091 213.621 49.8608C214.346 48.804 215.338 47.973 216.6 47.3679C217.861 46.7628 219.297 46.4602 220.908 46.4602C222.502 46.4602 223.925 46.767 225.178 47.3807C226.439 47.9858 227.432 48.8168 228.157 49.8736C228.881 50.9219 229.248 52.1108 229.256 53.4403C229.248 54.8466 228.847 56.0909 228.054 57.1733C227.262 58.2557 226.23 58.9545 224.961 59.2699V59.4233C225.941 59.5938 226.823 59.9943 227.607 60.625C228.4 61.2472 229.03 62.027 229.499 62.9645C229.976 63.8935 230.219 64.9119 230.228 66.0199C230.219 67.4347 229.819 68.696 229.026 69.804C228.233 70.9119 227.134 71.7812 225.728 72.4119C224.33 73.0426 222.723 73.358 220.908 73.358ZM220.908 70.1236C221.99 70.1236 222.928 69.9446 223.721 69.5866C224.513 69.2202 225.127 68.7131 225.561 68.0653C225.996 67.4091 226.218 66.642 226.226 65.7642C226.218 64.8523 225.979 64.0469 225.51 63.348C225.05 62.6491 224.424 62.0994 223.631 61.6989C222.838 61.2983 221.931 61.098 220.908 61.098C219.877 61.098 218.961 61.2983 218.159 61.6989C217.358 62.0994 216.728 62.6491 216.267 63.348C215.807 64.0469 215.581 64.8523 215.59 65.7642C215.581 66.642 215.79 67.4091 216.216 68.0653C216.651 68.7131 217.269 69.2202 218.07 69.5866C218.871 69.9446 219.817 70.1236 220.908 70.1236ZM220.908 57.9403C221.777 57.9403 222.549 57.7656 223.222 57.4162C223.895 57.0668 224.424 56.581 224.807 55.9588C225.199 55.3366 225.4 54.608 225.408 53.7727C225.4 52.9545 225.203 52.2386 224.82 51.625C224.445 51.0114 223.921 50.5384 223.248 50.206C222.574 49.8651 221.794 49.6946 220.908 49.6946C220.005 49.6946 219.212 49.8651 218.53 50.206C217.857 50.5384 217.333 51.0114 216.958 51.625C216.583 52.2386 216.4 52.9545 216.408 53.7727C216.4 54.608 216.587 55.3366 216.971 55.9588C217.354 56.581 217.882 57.0668 218.556 57.4162C219.238 57.7656 220.022 57.9403 220.908 57.9403Z" fill="#FFB600"/><path d="M66.2931 106H64.7079C64.6142 105.544 64.4501 105.143 64.2157 104.798C63.9856 104.453 63.7044 104.163 63.372 103.929C63.0439 103.69 62.6795 103.511 62.2789 103.392C61.8784 103.273 61.4608 103.213 61.0261 103.213C60.2335 103.213 59.5154 103.413 58.872 103.814C58.2328 104.214 57.7235 104.805 57.3443 105.585C56.9693 106.364 56.7818 107.321 56.7818 108.455C56.7818 109.588 56.9693 110.545 57.3443 111.325C57.7235 112.104 58.2328 112.695 58.872 113.095C59.5154 113.496 60.2335 113.696 61.0261 113.696C61.4608 113.696 61.8784 113.636 62.2789 113.517C62.6795 113.398 63.0439 113.221 63.372 112.987C63.7044 112.748 63.9856 112.456 64.2157 112.111C64.4501 111.761 64.6142 111.361 64.7079 110.909H66.2931C66.1738 111.578 65.9565 112.177 65.6412 112.705C65.3258 113.234 64.9338 113.683 64.465 114.054C63.9963 114.42 63.47 114.7 62.8862 114.891C62.3066 115.083 61.6866 115.179 61.0261 115.179C59.9096 115.179 58.9167 114.906 58.0474 114.361C57.1781 113.815 56.4941 113.04 55.9956 112.034C55.497 111.028 55.2477 109.835 55.2477 108.455C55.2477 107.074 55.497 105.881 55.9956 104.875C56.4941 103.869 57.1781 103.094 58.0474 102.548C58.9167 102.003 59.9096 101.73 61.0261 101.73C61.6866 101.73 62.3066 101.826 62.8862 102.018C63.47 102.21 63.9963 102.491 64.465 102.862C64.9338 103.228 65.3258 103.675 65.6412 104.204C65.9565 104.728 66.1738 105.327 66.2931 106ZM72.3888 115.205C71.5025 115.205 70.7248 114.994 70.0558 114.572C69.391 114.15 68.8711 113.56 68.4961 112.801C68.1254 112.043 67.94 111.156 67.94 110.142C67.94 109.119 68.1254 108.227 68.4961 107.464C68.8711 106.701 69.391 106.109 70.0558 105.687C70.7248 105.265 71.5025 105.054 72.3888 105.054C73.2752 105.054 74.0508 105.265 74.7156 105.687C75.3846 106.109 75.9045 106.701 76.2752 107.464C76.6502 108.227 76.8377 109.119 76.8377 110.142C76.8377 111.156 76.6502 112.043 76.2752 112.801C75.9045 113.56 75.3846 114.15 74.7156 114.572C74.0508 114.994 73.2752 115.205 72.3888 115.205ZM72.3888 113.849C73.0621 113.849 73.6161 113.677 74.0508 113.332C74.4854 112.987 74.8072 112.533 75.016 111.97C75.2248 111.408 75.3292 110.798 75.3292 110.142C75.3292 109.486 75.2248 108.874 75.016 108.308C74.8072 107.741 74.4854 107.283 74.0508 106.933C73.6161 106.584 73.0621 106.409 72.3888 106.409C71.7156 106.409 71.1616 106.584 70.7269 106.933C70.2923 107.283 69.9705 107.741 69.7617 108.308C69.5529 108.874 69.4485 109.486 69.4485 110.142C69.4485 110.798 69.5529 111.408 69.7617 111.97C69.9705 112.533 70.2923 112.987 70.7269 113.332C71.1616 113.677 71.7156 113.849 72.3888 113.849ZM84.5154 108.685V110.091H78.7882V108.685H84.5154ZM91.2919 105.182V106.46H85.9993V105.182H91.2919ZM87.5845 115V103.827C87.5845 103.264 87.7166 102.795 87.9808 102.42C88.245 102.045 88.5881 101.764 89.0099 101.577C89.4318 101.389 89.8771 101.295 90.3459 101.295C90.7166 101.295 91.0192 101.325 91.2536 101.385C91.4879 101.445 91.6626 101.5 91.7777 101.551L91.343 102.855C91.2663 102.83 91.1598 102.798 91.0234 102.759C90.8913 102.721 90.7166 102.702 90.4993 102.702C90.0007 102.702 89.6406 102.827 89.419 103.079C89.2017 103.33 89.093 103.699 89.093 104.185V115H87.5845ZM96.7404 115.205C95.854 115.205 95.0763 114.994 94.4073 114.572C93.7425 114.15 93.2227 113.56 92.8477 112.801C92.4769 112.043 92.2915 111.156 92.2915 110.142C92.2915 109.119 92.4769 108.227 92.8477 107.464C93.2227 106.701 93.7425 106.109 94.4073 105.687C95.0763 105.265 95.854 105.054 96.7404 105.054C97.6268 105.054 98.4023 105.265 99.0671 105.687C99.7362 106.109 100.256 106.701 100.627 107.464C101.002 108.227 101.189 109.119 101.189 110.142C101.189 111.156 101.002 112.043 100.627 112.801C100.256 113.56 99.7362 114.15 99.0671 114.572C98.4023 114.994 97.6268 115.205 96.7404 115.205ZM96.7404 113.849C97.4137 113.849 97.9677 113.677 98.4023 113.332C98.837 112.987 99.1587 112.533 99.3675 111.97C99.5763 111.408 99.6808 110.798 99.6808 110.142C99.6808 109.486 99.5763 108.874 99.3675 108.308C99.1587 107.741 98.837 107.283 98.4023 106.933C97.9677 106.584 97.4137 106.409 96.7404 106.409C96.0671 106.409 95.5131 106.584 95.0785 106.933C94.6438 107.283 94.3221 107.741 94.1133 108.308C93.9045 108.874 93.8001 109.486 93.8001 110.142C93.8001 110.798 93.9045 111.408 94.1133 111.97C94.3221 112.533 94.6438 112.987 95.0785 113.332C95.5131 113.677 96.0671 113.849 96.7404 113.849ZM109.43 110.986V105.182H110.938V115H109.43V113.338H109.327C109.097 113.837 108.739 114.261 108.253 114.61C107.768 114.955 107.154 115.128 106.412 115.128C105.799 115.128 105.253 114.994 104.776 114.725C104.299 114.452 103.924 114.043 103.651 113.498C103.378 112.948 103.242 112.256 103.242 111.42V105.182H104.751V111.318C104.751 112.034 104.951 112.605 105.351 113.031C105.756 113.457 106.272 113.67 106.898 113.67C107.273 113.67 107.655 113.575 108.042 113.383C108.434 113.191 108.763 112.897 109.027 112.501C109.295 112.104 109.43 111.599 109.43 110.986ZM114.96 109.094V115H113.451V105.182H114.908V106.716H115.036C115.266 106.217 115.616 105.817 116.085 105.514C116.553 105.207 117.158 105.054 117.9 105.054C118.565 105.054 119.146 105.19 119.645 105.463C120.143 105.732 120.531 106.141 120.808 106.69C121.085 107.236 121.224 107.926 121.224 108.761V115H119.715V108.864C119.715 108.092 119.515 107.491 119.114 107.061C118.714 106.626 118.164 106.409 117.465 106.409C116.984 106.409 116.553 106.513 116.174 106.722C115.799 106.931 115.503 107.236 115.286 107.636C115.068 108.037 114.96 108.523 114.96 109.094ZM127.438 115.205C126.619 115.205 125.897 114.998 125.271 114.585C124.644 114.167 124.154 113.579 123.801 112.82C123.447 112.058 123.27 111.156 123.27 110.116C123.27 109.085 123.447 108.19 123.801 107.432C124.154 106.673 124.646 106.087 125.277 105.674C125.908 105.261 126.637 105.054 127.463 105.054C128.102 105.054 128.607 105.161 128.978 105.374C129.353 105.582 129.639 105.821 129.835 106.089C130.035 106.354 130.191 106.571 130.301 106.741H130.429V101.909H131.938V115H130.48V113.491H130.301C130.191 113.67 130.033 113.896 129.828 114.169C129.624 114.437 129.332 114.678 128.953 114.891C128.573 115.1 128.068 115.205 127.438 115.205ZM127.642 113.849C128.247 113.849 128.759 113.692 129.176 113.376C129.594 113.057 129.911 112.616 130.129 112.053C130.346 111.487 130.455 110.832 130.455 110.091C130.455 109.358 130.348 108.717 130.135 108.167C129.922 107.613 129.607 107.183 129.189 106.876C128.771 106.565 128.256 106.409 127.642 106.409C127.003 106.409 126.47 106.573 126.044 106.901C125.622 107.225 125.305 107.666 125.092 108.224C124.883 108.778 124.779 109.401 124.779 110.091C124.779 110.79 124.885 111.425 125.098 111.996C125.316 112.562 125.635 113.014 126.057 113.351C126.483 113.683 127.012 113.849 127.642 113.849ZM138.776 115.205C137.83 115.205 137.014 114.996 136.328 114.578C135.646 114.156 135.12 113.568 134.749 112.814C134.383 112.055 134.2 111.173 134.2 110.168C134.2 109.162 134.383 108.276 134.749 107.509C135.12 106.737 135.636 106.136 136.296 105.706C136.961 105.271 137.737 105.054 138.623 105.054C139.134 105.054 139.639 105.139 140.138 105.31C140.637 105.48 141.09 105.757 141.499 106.141C141.909 106.52 142.235 107.023 142.477 107.649C142.72 108.276 142.842 109.047 142.842 109.963V110.602H135.274V109.298H141.308C141.308 108.744 141.197 108.25 140.975 107.815C140.758 107.381 140.447 107.038 140.042 106.786C139.642 106.535 139.169 106.409 138.623 106.409C138.022 106.409 137.502 106.558 137.063 106.857C136.629 107.151 136.294 107.534 136.06 108.007C135.825 108.48 135.708 108.987 135.708 109.528V110.398C135.708 111.139 135.836 111.768 136.092 112.283C136.352 112.795 136.712 113.185 137.172 113.453C137.632 113.717 138.167 113.849 138.776 113.849C139.173 113.849 139.531 113.794 139.85 113.683C140.174 113.568 140.453 113.398 140.688 113.172C140.922 112.942 141.103 112.656 141.231 112.315L142.688 112.724C142.535 113.219 142.277 113.653 141.915 114.028C141.553 114.399 141.105 114.689 140.573 114.898C140.04 115.102 139.441 115.205 138.776 115.205ZM144.887 115V105.182H146.344V106.665H146.446C146.625 106.179 146.949 105.785 147.418 105.482C147.887 105.18 148.415 105.028 149.003 105.028C149.114 105.028 149.252 105.031 149.419 105.035C149.585 105.039 149.71 105.045 149.796 105.054V106.588C149.744 106.575 149.627 106.556 149.444 106.531C149.265 106.501 149.075 106.486 148.875 106.486C148.398 106.486 147.972 106.586 147.597 106.786C147.226 106.982 146.932 107.255 146.715 107.604C146.502 107.95 146.395 108.344 146.395 108.787V115H144.887ZM158.288 107.381L156.933 107.764C156.848 107.538 156.722 107.319 156.556 107.106C156.394 106.888 156.173 106.71 155.891 106.569C155.61 106.428 155.25 106.358 154.811 106.358C154.21 106.358 153.71 106.496 153.309 106.773C152.913 107.046 152.714 107.393 152.714 107.815C152.714 108.19 152.851 108.487 153.124 108.704C153.396 108.921 153.822 109.102 154.402 109.247L155.859 109.605C156.737 109.818 157.391 110.144 157.822 110.583C158.252 111.018 158.467 111.578 158.467 112.264C158.467 112.827 158.305 113.33 157.982 113.773C157.662 114.216 157.214 114.565 156.639 114.821C156.064 115.077 155.395 115.205 154.632 115.205C153.631 115.205 152.802 114.987 152.146 114.553C151.489 114.118 151.074 113.483 150.899 112.648L152.331 112.29C152.467 112.818 152.725 113.214 153.104 113.479C153.488 113.743 153.989 113.875 154.607 113.875C155.31 113.875 155.868 113.726 156.281 113.428C156.699 113.125 156.908 112.763 156.908 112.341C156.908 112 156.788 111.714 156.55 111.484C156.311 111.25 155.945 111.075 155.45 110.96L153.814 110.577C152.915 110.364 152.254 110.033 151.832 109.586C151.415 109.134 151.206 108.57 151.206 107.892C151.206 107.338 151.362 106.848 151.673 106.422C151.988 105.996 152.416 105.661 152.957 105.418C153.503 105.175 154.121 105.054 154.811 105.054C155.783 105.054 156.545 105.267 157.099 105.693C157.658 106.119 158.054 106.682 158.288 107.381ZM174.454 106C174.313 105.57 174.128 105.184 173.898 104.843C173.672 104.498 173.401 104.204 173.086 103.961C172.775 103.718 172.421 103.533 172.025 103.405C171.629 103.277 171.194 103.213 170.721 103.213C169.945 103.213 169.24 103.413 168.605 103.814C167.97 104.214 167.465 104.805 167.09 105.585C166.715 106.364 166.528 107.321 166.528 108.455C166.528 109.588 166.718 110.545 167.097 111.325C167.476 112.104 167.99 112.695 168.637 113.095C169.285 113.496 170.014 113.696 170.823 113.696C171.573 113.696 172.234 113.536 172.805 113.217C173.38 112.893 173.828 112.437 174.147 111.849C174.471 111.256 174.633 110.56 174.633 109.759L175.119 109.861H171.181V108.455H176.167V109.861C176.167 110.939 175.937 111.876 175.477 112.673C175.021 113.47 174.39 114.088 173.585 114.527C172.784 114.962 171.863 115.179 170.823 115.179C169.664 115.179 168.646 114.906 167.768 114.361C166.894 113.815 166.213 113.04 165.722 112.034C165.237 111.028 164.994 109.835 164.994 108.455C164.994 107.419 165.132 106.488 165.409 105.661C165.691 104.83 166.087 104.123 166.598 103.539C167.11 102.955 167.715 102.508 168.414 102.197C169.112 101.886 169.882 101.73 170.721 101.73C171.411 101.73 172.055 101.835 172.651 102.043C173.252 102.248 173.787 102.54 174.256 102.919C174.729 103.294 175.123 103.744 175.438 104.268C175.754 104.788 175.971 105.365 176.09 106H174.454ZM182.416 115.205C181.53 115.205 180.752 114.994 180.083 114.572C179.418 114.15 178.898 113.56 178.523 112.801C178.153 112.043 177.967 111.156 177.967 110.142C177.967 109.119 178.153 108.227 178.523 107.464C178.898 106.701 179.418 106.109 180.083 105.687C180.752 105.265 181.53 105.054 182.416 105.054C183.303 105.054 184.078 105.265 184.743 105.687C185.412 106.109 185.932 106.701 186.303 107.464C186.678 108.227 186.865 109.119 186.865 110.142C186.865 111.156 186.678 112.043 186.303 112.801C185.932 113.56 185.412 114.15 184.743 114.572C184.078 114.994 183.303 115.205 182.416 115.205ZM182.416 113.849C183.089 113.849 183.643 113.677 184.078 113.332C184.513 112.987 184.835 112.533 185.043 111.97C185.252 111.408 185.357 110.798 185.357 110.142C185.357 109.486 185.252 108.874 185.043 108.308C184.835 107.741 184.513 107.283 184.078 106.933C183.643 106.584 183.089 106.409 182.416 106.409C181.743 106.409 181.189 106.584 180.754 106.933C180.32 107.283 179.998 107.741 179.789 108.308C179.58 108.874 179.476 109.486 179.476 110.142C179.476 110.798 179.58 111.408 179.789 111.97C179.998 112.533 180.32 112.987 180.754 113.332C181.189 113.677 181.743 113.849 182.416 113.849ZM192.625 115.205C191.807 115.205 191.085 114.998 190.458 114.585C189.832 114.167 189.342 113.579 188.988 112.82C188.634 112.058 188.458 111.156 188.458 110.116C188.458 109.085 188.634 108.19 188.988 107.432C189.342 106.673 189.834 106.087 190.465 105.674C191.095 105.261 191.824 105.054 192.651 105.054C193.29 105.054 193.795 105.161 194.166 105.374C194.541 105.582 194.826 105.821 195.022 106.089C195.222 106.354 195.378 106.571 195.489 106.741H195.617V101.909H197.125V115H195.668V113.491H195.489C195.378 113.67 195.22 113.896 195.016 114.169C194.811 114.437 194.519 114.678 194.14 114.891C193.761 115.1 193.256 115.205 192.625 115.205ZM192.83 113.849C193.435 113.849 193.946 113.692 194.364 113.376C194.781 113.057 195.099 112.616 195.316 112.053C195.534 111.487 195.642 110.832 195.642 110.091C195.642 109.358 195.536 108.717 195.323 108.167C195.11 107.613 194.794 107.183 194.377 106.876C193.959 106.565 193.443 106.409 192.83 106.409C192.191 106.409 191.658 106.573 191.232 106.901C190.81 107.225 190.492 107.666 190.279 108.224C190.07 108.778 189.966 109.401 189.966 110.091C189.966 110.79 190.073 111.425 190.286 111.996C190.503 112.562 190.823 113.014 191.244 113.351C191.671 113.683 192.199 113.849 192.83 113.849ZM202.072 115L199.08 105.182H200.666L202.788 112.699H202.89L204.987 105.182H206.597L208.669 112.673H208.771L210.893 105.182H212.478L209.487 115H208.004L205.856 107.457H205.703L203.555 115H202.072ZM214.222 115V105.182H215.731V115H214.222ZM214.99 103.545C214.695 103.545 214.442 103.445 214.229 103.245C214.02 103.045 213.916 102.804 213.916 102.523C213.916 102.241 214.02 102.001 214.229 101.8C214.442 101.6 214.695 101.5 214.99 101.5C215.284 101.5 215.535 101.6 215.744 101.8C215.957 102.001 216.063 102.241 216.063 102.523C216.063 102.804 215.957 103.045 215.744 103.245C215.535 103.445 215.284 103.545 214.99 103.545ZM219.752 109.094V115H218.244V105.182H219.701V106.716H219.829C220.059 106.217 220.409 105.817 220.877 105.514C221.346 105.207 221.951 105.054 222.693 105.054C223.358 105.054 223.939 105.19 224.438 105.463C224.936 105.732 225.324 106.141 225.601 106.69C225.878 107.236 226.017 107.926 226.017 108.761V115H224.508V108.864C224.508 108.092 224.308 107.491 223.907 107.061C223.507 106.626 222.957 106.409 222.258 106.409C221.777 106.409 221.346 106.513 220.967 106.722C220.592 106.931 220.296 107.236 220.078 107.636C219.861 108.037 219.752 108.523 219.752 109.094ZM240.699 105.182C240.623 104.534 240.312 104.031 239.766 103.673C239.221 103.315 238.552 103.136 237.759 103.136C237.18 103.136 236.672 103.23 236.238 103.418C235.807 103.605 235.471 103.863 235.228 104.191C234.989 104.519 234.87 104.892 234.87 105.31C234.87 105.659 234.953 105.96 235.119 106.211C235.29 106.458 235.507 106.665 235.771 106.831C236.035 106.993 236.312 107.127 236.602 107.234C236.892 107.336 237.158 107.419 237.401 107.483L238.731 107.841C239.072 107.93 239.451 108.054 239.868 108.212C240.29 108.369 240.693 108.585 241.077 108.857C241.464 109.126 241.784 109.471 242.035 109.893C242.287 110.315 242.412 110.832 242.412 111.446C242.412 112.153 242.227 112.793 241.856 113.364C241.49 113.935 240.953 114.388 240.246 114.725C239.542 115.062 238.688 115.23 237.682 115.23C236.745 115.23 235.933 115.079 235.247 114.776C234.565 114.474 234.028 114.052 233.636 113.511C233.248 112.969 233.029 112.341 232.978 111.625H234.614C234.657 112.119 234.823 112.528 235.113 112.852C235.407 113.172 235.778 113.411 236.225 113.568C236.677 113.722 237.162 113.798 237.682 113.798C238.287 113.798 238.831 113.7 239.312 113.504C239.794 113.304 240.175 113.027 240.456 112.673C240.738 112.315 240.878 111.898 240.878 111.42C240.878 110.986 240.757 110.632 240.514 110.359C240.271 110.087 239.952 109.865 239.555 109.695C239.159 109.524 238.731 109.375 238.27 109.247L236.66 108.787C235.637 108.493 234.827 108.073 234.231 107.528C233.634 106.982 233.336 106.268 233.336 105.386C233.336 104.653 233.534 104.014 233.93 103.469C234.331 102.919 234.868 102.493 235.541 102.19C236.219 101.884 236.975 101.73 237.81 101.73C238.654 101.73 239.404 101.881 240.06 102.184C240.716 102.482 241.236 102.891 241.62 103.411C242.008 103.931 242.212 104.521 242.233 105.182H240.699ZM250.752 110.986V105.182H252.26V115H250.752V113.338H250.65C250.419 113.837 250.061 114.261 249.576 114.61C249.09 114.955 248.476 115.128 247.735 115.128C247.121 115.128 246.576 114.994 246.098 114.725C245.621 114.452 245.246 114.043 244.973 113.498C244.701 112.948 244.564 112.256 244.564 111.42V105.182H246.073V111.318C246.073 112.034 246.273 112.605 246.674 113.031C247.078 113.457 247.594 113.67 248.221 113.67C248.596 113.67 248.977 113.575 249.365 113.383C249.757 113.191 250.085 112.897 250.349 112.501C250.618 112.104 250.752 111.599 250.752 110.986ZM256.282 109.094V115H254.773V105.182H256.231V106.716H256.358C256.589 106.217 256.938 105.817 257.407 105.514C257.876 105.207 258.481 105.054 259.222 105.054C259.887 105.054 260.469 105.19 260.967 105.463C261.466 105.732 261.854 106.141 262.131 106.69C262.407 107.236 262.546 107.926 262.546 108.761V115H261.037V108.864C261.037 108.092 260.837 107.491 260.437 107.061C260.036 106.626 259.486 106.409 258.787 106.409C258.306 106.409 257.876 106.513 257.496 106.722C257.121 106.931 256.825 107.236 256.608 107.636C256.39 108.037 256.282 108.523 256.282 109.094ZM268.76 115.205C267.942 115.205 267.219 114.998 266.593 114.585C265.967 114.167 265.477 113.579 265.123 112.82C264.769 112.058 264.592 111.156 264.592 110.116C264.592 109.085 264.769 108.19 265.123 107.432C265.477 106.673 265.969 106.087 266.599 105.674C267.23 105.261 267.959 105.054 268.786 105.054C269.425 105.054 269.93 105.161 270.3 105.374C270.675 105.582 270.961 105.821 271.157 106.089C271.357 106.354 271.513 106.571 271.624 106.741H271.751V101.909H273.26V115H271.803V113.491H271.624C271.513 113.67 271.355 113.896 271.151 114.169C270.946 114.437 270.654 114.678 270.275 114.891C269.896 115.1 269.391 115.205 268.76 115.205ZM268.964 113.849C269.57 113.849 270.081 113.692 270.499 113.376C270.916 113.057 271.234 112.616 271.451 112.053C271.668 111.487 271.777 110.832 271.777 110.091C271.777 109.358 271.67 108.717 271.457 108.167C271.244 107.613 270.929 107.183 270.511 106.876C270.094 106.565 269.578 106.409 268.964 106.409C268.325 106.409 267.793 106.573 267.366 106.901C266.945 107.225 266.627 107.666 266.414 108.224C266.205 108.778 266.101 109.401 266.101 110.091C266.101 110.79 266.207 111.425 266.42 111.996C266.638 112.562 266.957 113.014 267.379 113.351C267.805 113.683 268.334 113.849 268.964 113.849ZM278.871 115.23C278.249 115.23 277.685 115.113 277.178 114.879C276.67 114.64 276.268 114.297 275.969 113.849C275.671 113.398 275.522 112.852 275.522 112.213C275.522 111.651 275.633 111.195 275.854 110.845C276.076 110.491 276.372 110.214 276.743 110.014C277.114 109.814 277.523 109.665 277.97 109.567C278.422 109.464 278.876 109.384 279.332 109.324C279.928 109.247 280.412 109.19 280.783 109.151C281.158 109.109 281.43 109.038 281.601 108.94C281.776 108.842 281.863 108.672 281.863 108.429V108.378C281.863 107.747 281.69 107.257 281.345 106.908C281.004 106.558 280.487 106.384 279.792 106.384C279.072 106.384 278.507 106.541 278.098 106.857C277.689 107.172 277.401 107.509 277.235 107.866L275.803 107.355C276.059 106.759 276.4 106.294 276.826 105.962C277.256 105.625 277.725 105.391 278.232 105.259C278.744 105.122 279.246 105.054 279.741 105.054C280.056 105.054 280.418 105.092 280.827 105.169C281.241 105.241 281.639 105.393 282.023 105.623C282.411 105.853 282.732 106.2 282.988 106.665C283.244 107.129 283.371 107.751 283.371 108.531V115H281.863V113.67H281.786C281.684 113.884 281.513 114.112 281.275 114.354C281.036 114.597 280.719 114.804 280.322 114.974C279.926 115.145 279.442 115.23 278.871 115.23ZM279.102 113.875C279.698 113.875 280.201 113.758 280.61 113.523C281.023 113.289 281.335 112.987 281.543 112.616C281.756 112.245 281.863 111.855 281.863 111.446V110.065C281.799 110.142 281.658 110.212 281.441 110.276C281.228 110.336 280.981 110.389 280.7 110.436C280.423 110.479 280.152 110.517 279.888 110.551C279.628 110.581 279.417 110.607 279.255 110.628C278.863 110.679 278.496 110.762 278.156 110.877C277.819 110.988 277.546 111.156 277.337 111.382C277.133 111.604 277.031 111.906 277.031 112.29C277.031 112.814 277.224 113.21 277.612 113.479C278.004 113.743 278.501 113.875 279.102 113.875ZM286.495 118.682C286.239 118.682 286.011 118.661 285.811 118.618C285.611 118.58 285.472 118.541 285.395 118.503L285.779 117.173C286.145 117.267 286.469 117.301 286.751 117.276C287.032 117.25 287.281 117.124 287.498 116.898C287.72 116.677 287.922 116.317 288.106 115.818L288.387 115.051L284.756 105.182H286.393L289.103 113.006H289.205L291.915 105.182H293.552L289.384 116.432C289.197 116.939 288.964 117.359 288.687 117.691C288.41 118.028 288.089 118.277 287.722 118.439C287.36 118.601 286.951 118.682 286.495 118.682ZM302.994 115.23C302.372 115.23 301.808 115.113 301.301 114.879C300.794 114.64 300.391 114.297 300.093 113.849C299.794 113.398 299.645 112.852 299.645 112.213C299.645 111.651 299.756 111.195 299.977 110.845C300.199 110.491 300.495 110.214 300.866 110.014C301.237 109.814 301.646 109.665 302.093 109.567C302.545 109.464 302.999 109.384 303.455 109.324C304.051 109.247 304.535 109.19 304.906 109.151C305.281 109.109 305.553 109.038 305.724 108.94C305.899 108.842 305.986 108.672 305.986 108.429V108.378C305.986 107.747 305.813 107.257 305.468 106.908C305.127 106.558 304.61 106.384 303.915 106.384C303.195 106.384 302.63 106.541 302.221 106.857C301.812 107.172 301.524 107.509 301.358 107.866L299.926 107.355C300.182 106.759 300.523 106.294 300.949 105.962C301.379 105.625 301.848 105.391 302.355 105.259C302.867 105.122 303.369 105.054 303.864 105.054C304.179 105.054 304.541 105.092 304.95 105.169C305.364 105.241 305.762 105.393 306.146 105.623C306.534 105.853 306.855 106.2 307.111 106.665C307.367 107.129 307.494 107.751 307.494 108.531V115H305.986V113.67H305.909C305.807 113.884 305.637 114.112 305.398 114.354C305.159 114.597 304.842 114.804 304.445 114.974C304.049 115.145 303.566 115.23 302.994 115.23ZM303.225 113.875C303.821 113.875 304.324 113.758 304.733 113.523C305.146 113.289 305.458 112.987 305.666 112.616C305.879 112.245 305.986 111.855 305.986 111.446V110.065C305.922 110.142 305.781 110.212 305.564 110.276C305.351 110.336 305.104 110.389 304.823 110.436C304.546 110.479 304.275 110.517 304.011 110.551C303.751 110.581 303.54 110.607 303.378 110.628C302.986 110.679 302.619 110.762 302.279 110.877C301.942 110.988 301.669 111.156 301.46 111.382C301.256 111.604 301.154 111.906 301.154 112.29C301.154 112.814 301.347 113.21 301.735 113.479C302.127 113.743 302.624 113.875 303.225 113.875ZM311.506 109.094V115H309.998V105.182H311.455V106.716H311.583C311.813 106.217 312.163 105.817 312.631 105.514C313.1 105.207 313.705 105.054 314.447 105.054C315.112 105.054 315.693 105.19 316.192 105.463C316.69 105.732 317.078 106.141 317.355 106.69C317.632 107.236 317.771 107.926 317.771 108.761V115H316.262V108.864C316.262 108.092 316.062 107.491 315.661 107.061C315.261 106.626 314.711 106.409 314.012 106.409C313.531 106.409 313.1 106.513 312.721 106.722C312.346 106.931 312.05 107.236 311.832 107.636C311.615 108.037 311.506 108.523 311.506 109.094ZM323.985 115.205C323.166 115.205 322.444 114.998 321.818 114.585C321.191 114.167 320.701 113.579 320.347 112.82C319.994 112.058 319.817 111.156 319.817 110.116C319.817 109.085 319.994 108.19 320.347 107.432C320.701 106.673 321.193 106.087 321.824 105.674C322.455 105.261 323.183 105.054 324.01 105.054C324.649 105.054 325.154 105.161 325.525 105.374C325.9 105.582 326.186 105.821 326.382 106.089C326.582 106.354 326.737 106.571 326.848 106.741H326.976V101.909H328.485V115H327.027V113.491H326.848C326.737 113.67 326.58 113.896 326.375 114.169C326.171 114.437 325.879 114.678 325.499 114.891C325.12 115.1 324.615 115.205 323.985 115.205ZM324.189 113.849C324.794 113.849 325.306 113.692 325.723 113.376C326.141 113.057 326.458 112.616 326.676 112.053C326.893 111.487 327.002 110.832 327.002 110.091C327.002 109.358 326.895 108.717 326.682 108.167C326.469 107.613 326.154 107.183 325.736 106.876C325.318 106.565 324.803 106.409 324.189 106.409C323.55 106.409 323.017 106.573 322.591 106.901C322.169 107.225 321.852 107.666 321.639 108.224C321.43 108.778 321.325 109.401 321.325 110.091C321.325 110.79 321.432 111.425 321.645 111.996C321.862 112.562 322.182 113.014 322.604 113.351C323.03 113.683 323.558 113.849 324.189 113.849ZM60.2718 129.909H62.1638L66.6127 140.776H66.7661L71.2149 129.909H73.107V143H71.624V133.054H71.4962L67.4053 143H65.9735L61.8825 133.054H61.7547V143H60.2718V129.909ZM75.8309 143V133.182H77.3394V143H75.8309ZM76.5979 131.545C76.3039 131.545 76.0503 131.445 75.8373 131.245C75.6285 131.045 75.5241 130.804 75.5241 130.523C75.5241 130.241 75.6285 130.001 75.8373 129.8C76.0503 129.6 76.3039 129.5 76.5979 129.5C76.892 129.5 77.1434 129.6 77.3522 129.8C77.5653 130.001 77.6718 130.241 77.6718 130.523C77.6718 130.804 77.5653 131.045 77.3522 131.245C77.1434 131.445 76.892 131.545 76.5979 131.545ZM83.841 143.205C82.9205 143.205 82.1279 142.987 81.4632 142.553C80.7984 142.118 80.287 141.519 79.9291 140.756C79.5711 139.994 79.3921 139.122 79.3921 138.142C79.3921 137.145 79.5754 136.265 79.9419 135.502C80.3126 134.735 80.8282 134.136 81.4887 133.706C82.1535 133.271 82.9291 133.054 83.8154 133.054C84.5058 133.054 85.1279 133.182 85.6819 133.438C86.2359 133.693 86.6897 134.051 87.0434 134.511C87.3971 134.972 87.6166 135.509 87.7018 136.122H86.1933C86.0782 135.675 85.8225 135.278 85.4262 134.933C85.0342 134.584 84.5058 134.409 83.841 134.409C83.2529 134.409 82.7373 134.562 82.2941 134.869C81.8552 135.172 81.5122 135.6 81.265 136.154C81.0221 136.704 80.9007 137.349 80.9007 138.091C80.9007 138.849 81.02 139.51 81.2586 140.072C81.5015 140.635 81.8424 141.072 82.2813 141.383C82.7245 141.694 83.2444 141.849 83.841 141.849C84.233 141.849 84.5889 141.781 84.9085 141.645C85.2281 141.509 85.4987 141.312 85.7203 141.057C85.9419 140.801 86.0995 140.494 86.1933 140.136H87.7018C87.6166 140.716 87.4056 141.238 87.069 141.702C86.7366 142.163 86.2955 142.529 85.7458 142.802C85.2004 143.07 84.5654 143.205 83.841 143.205ZM91.1656 137.094V143H89.657V129.909H91.1656V134.716H91.2934C91.5235 134.209 91.8687 133.806 92.3289 133.508C92.7934 133.205 93.4113 133.054 94.1826 133.054C94.8517 133.054 95.4376 133.188 95.9404 133.457C96.4433 133.721 96.8332 134.128 97.1102 134.678C97.3914 135.223 97.532 135.918 97.532 136.761V143H96.0235V136.864C96.0235 136.084 95.8211 135.481 95.4163 135.055C95.0157 134.624 94.4596 134.409 93.748 134.409C93.2536 134.409 92.8105 134.513 92.4184 134.722C92.0306 134.931 91.7238 135.236 91.498 135.636C91.2764 136.037 91.1656 136.523 91.1656 137.094ZM102.931 143.23C102.309 143.23 101.744 143.113 101.237 142.879C100.73 142.64 100.327 142.297 100.029 141.849C99.7307 141.398 99.5816 140.852 99.5816 140.213C99.5816 139.651 99.6924 139.195 99.914 138.845C100.136 138.491 100.432 138.214 100.802 138.014C101.173 137.814 101.582 137.665 102.03 137.567C102.481 137.464 102.935 137.384 103.391 137.324C103.988 137.247 104.472 137.19 104.842 137.151C105.217 137.109 105.49 137.038 105.66 136.94C105.835 136.842 105.922 136.672 105.922 136.429V136.378C105.922 135.747 105.75 135.257 105.405 134.908C105.064 134.558 104.546 134.384 103.851 134.384C103.131 134.384 102.567 134.541 102.158 134.857C101.748 135.172 101.461 135.509 101.295 135.866L99.8628 135.355C100.119 134.759 100.459 134.294 100.886 133.962C101.316 133.625 101.785 133.391 102.292 133.259C102.803 133.122 103.306 133.054 103.8 133.054C104.116 133.054 104.478 133.092 104.887 133.169C105.3 133.241 105.699 133.393 106.082 133.623C106.47 133.853 106.792 134.2 107.047 134.665C107.303 135.129 107.431 135.751 107.431 136.531V143H105.922V141.67H105.846C105.744 141.884 105.573 142.112 105.334 142.354C105.096 142.597 104.778 142.804 104.382 142.974C103.986 143.145 103.502 143.23 102.931 143.23ZM103.161 141.875C103.758 141.875 104.261 141.758 104.67 141.523C105.083 141.289 105.394 140.987 105.603 140.616C105.816 140.245 105.922 139.855 105.922 139.446V138.065C105.859 138.142 105.718 138.212 105.501 138.276C105.288 138.336 105.04 138.389 104.759 138.436C104.482 138.479 104.212 138.517 103.947 138.551C103.687 138.581 103.476 138.607 103.315 138.628C102.922 138.679 102.556 138.762 102.215 138.877C101.878 138.988 101.606 139.156 101.397 139.382C101.192 139.604 101.09 139.906 101.09 140.29C101.09 140.814 101.284 141.21 101.672 141.479C102.064 141.743 102.56 141.875 103.161 141.875ZM114.051 143.205C113.105 143.205 112.289 142.996 111.603 142.578C110.921 142.156 110.395 141.568 110.024 140.814C109.657 140.055 109.474 139.173 109.474 138.168C109.474 137.162 109.657 136.276 110.024 135.509C110.395 134.737 110.91 134.136 111.571 133.706C112.236 133.271 113.011 133.054 113.897 133.054C114.409 133.054 114.914 133.139 115.412 133.31C115.911 133.48 116.365 133.757 116.774 134.141C117.183 134.52 117.509 135.023 117.752 135.649C117.995 136.276 118.116 137.047 118.116 137.963V138.602H110.548V137.298H116.582C116.582 136.744 116.471 136.25 116.25 135.815C116.032 135.381 115.721 135.038 115.316 134.786C114.916 134.535 114.443 134.409 113.897 134.409C113.297 134.409 112.777 134.558 112.338 134.857C111.903 135.151 111.569 135.534 111.334 136.007C111.1 136.48 110.983 136.987 110.983 137.528V138.398C110.983 139.139 111.111 139.768 111.366 140.283C111.626 140.795 111.986 141.185 112.446 141.453C112.907 141.717 113.441 141.849 114.051 141.849C114.447 141.849 114.805 141.794 115.125 141.683C115.449 141.568 115.728 141.398 115.962 141.172C116.196 140.942 116.378 140.656 116.505 140.315L117.963 140.724C117.809 141.219 117.552 141.653 117.189 142.028C116.827 142.399 116.38 142.689 115.847 142.898C115.314 143.102 114.716 143.205 114.051 143.205ZM121.669 129.909V143H120.161V129.909H121.669ZM136.359 133.182C136.282 132.534 135.971 132.031 135.425 131.673C134.88 131.315 134.211 131.136 133.418 131.136C132.839 131.136 132.332 131.23 131.897 131.418C131.467 131.605 131.13 131.863 130.887 132.191C130.648 132.519 130.529 132.892 130.529 133.31C130.529 133.659 130.612 133.96 130.778 134.211C130.949 134.458 131.166 134.665 131.43 134.831C131.695 134.993 131.972 135.127 132.261 135.234C132.551 135.336 132.817 135.419 133.06 135.483L134.39 135.841C134.731 135.93 135.11 136.054 135.528 136.212C135.949 136.369 136.352 136.585 136.736 136.857C137.123 137.126 137.443 137.471 137.695 137.893C137.946 138.315 138.072 138.832 138.072 139.446C138.072 140.153 137.886 140.793 137.516 141.364C137.149 141.935 136.612 142.388 135.905 142.725C135.202 143.062 134.347 143.23 133.342 143.23C132.404 143.23 131.592 143.079 130.906 142.776C130.224 142.474 129.687 142.052 129.295 141.511C128.908 140.969 128.688 140.341 128.637 139.625H130.273C130.316 140.119 130.482 140.528 130.772 140.852C131.066 141.172 131.437 141.411 131.884 141.568C132.336 141.722 132.822 141.798 133.342 141.798C133.947 141.798 134.49 141.7 134.972 141.504C135.453 141.304 135.834 141.027 136.116 140.673C136.397 140.315 136.538 139.898 136.538 139.42C136.538 138.986 136.416 138.632 136.173 138.359C135.93 138.087 135.611 137.865 135.214 137.695C134.818 137.524 134.39 137.375 133.93 137.247L132.319 136.787C131.296 136.493 130.486 136.073 129.89 135.528C129.293 134.982 128.995 134.268 128.995 133.386C128.995 132.653 129.193 132.014 129.589 131.469C129.99 130.919 130.527 130.493 131.2 130.19C131.878 129.884 132.634 129.73 133.469 129.73C134.313 129.73 135.063 129.881 135.719 130.184C136.376 130.482 136.896 130.891 137.279 131.411C137.667 131.931 137.871 132.521 137.893 133.182H136.359ZM144.212 143.205C143.326 143.205 142.548 142.994 141.879 142.572C141.214 142.15 140.694 141.56 140.319 140.801C139.949 140.043 139.763 139.156 139.763 138.142C139.763 137.119 139.949 136.227 140.319 135.464C140.694 134.701 141.214 134.109 141.879 133.687C142.548 133.265 143.326 133.054 144.212 133.054C145.098 133.054 145.874 133.265 146.539 133.687C147.208 134.109 147.728 134.701 148.098 135.464C148.473 136.227 148.661 137.119 148.661 138.142C148.661 139.156 148.473 140.043 148.098 140.801C147.728 141.56 147.208 142.15 146.539 142.572C145.874 142.994 145.098 143.205 144.212 143.205ZM144.212 141.849C144.885 141.849 145.439 141.677 145.874 141.332C146.309 140.987 146.63 140.533 146.839 139.97C147.048 139.408 147.152 138.798 147.152 138.142C147.152 137.486 147.048 136.874 146.839 136.308C146.63 135.741 146.309 135.283 145.874 134.933C145.439 134.584 144.885 134.409 144.212 134.409C143.539 134.409 142.985 134.584 142.55 134.933C142.116 135.283 141.794 135.741 141.585 136.308C141.376 136.874 141.272 137.486 141.272 138.142C141.272 138.798 141.376 139.408 141.585 139.97C141.794 140.533 142.116 140.987 142.55 141.332C142.985 141.677 143.539 141.849 144.212 141.849ZM154.421 143.205C153.603 143.205 152.881 142.998 152.254 142.585C151.628 142.167 151.138 141.579 150.784 140.82C150.43 140.058 150.253 139.156 150.253 138.116C150.253 137.085 150.43 136.19 150.784 135.432C151.138 134.673 151.63 134.087 152.261 133.674C152.891 133.261 153.62 133.054 154.447 133.054C155.086 133.054 155.591 133.161 155.962 133.374C156.337 133.582 156.622 133.821 156.818 134.089C157.018 134.354 157.174 134.571 157.285 134.741H157.413V129.909H158.921V143H157.464V141.491H157.285C157.174 141.67 157.016 141.896 156.812 142.169C156.607 142.437 156.315 142.678 155.936 142.891C155.557 143.1 155.052 143.205 154.421 143.205ZM154.626 141.849C155.231 141.849 155.742 141.692 156.16 141.376C156.577 141.057 156.895 140.616 157.112 140.053C157.329 139.487 157.438 138.832 157.438 138.091C157.438 137.358 157.332 136.717 157.119 136.167C156.905 135.613 156.59 135.183 156.172 134.876C155.755 134.565 155.239 134.409 154.626 134.409C153.986 134.409 153.454 134.573 153.028 134.901C152.606 135.225 152.288 135.666 152.075 136.224C151.866 136.778 151.762 137.401 151.762 138.091C151.762 138.79 151.869 139.425 152.082 139.996C152.299 140.562 152.619 141.014 153.04 141.351C153.467 141.683 153.995 141.849 154.626 141.849ZM161.643 143V133.182H163.152V143H161.643ZM162.41 131.545C162.116 131.545 161.863 131.445 161.65 131.245C161.441 131.045 161.337 130.804 161.337 130.523C161.337 130.241 161.441 130.001 161.65 129.8C161.863 129.6 162.116 129.5 162.41 129.5C162.704 129.5 162.956 129.6 163.165 129.8C163.378 130.001 163.484 130.241 163.484 130.523C163.484 130.804 163.378 131.045 163.165 131.245C162.956 131.445 162.704 131.545 162.41 131.545ZM165.665 143V133.182H167.122V134.716H167.25C167.455 134.192 167.785 133.785 168.241 133.495C168.697 133.201 169.244 133.054 169.884 133.054C170.531 133.054 171.07 133.201 171.501 133.495C171.935 133.785 172.274 134.192 172.517 134.716H172.619C172.871 134.209 173.248 133.806 173.751 133.508C174.254 133.205 174.857 133.054 175.56 133.054C176.438 133.054 177.156 133.329 177.714 133.879C178.272 134.424 178.551 135.274 178.551 136.429V143H177.043V136.429C177.043 135.705 176.845 135.187 176.448 134.876C176.052 134.565 175.585 134.409 175.048 134.409C174.358 134.409 173.823 134.618 173.444 135.036C173.065 135.449 172.875 135.973 172.875 136.608V143H171.341V136.276C171.341 135.717 171.16 135.268 170.798 134.927C170.435 134.582 169.969 134.409 169.398 134.409C169.006 134.409 168.639 134.513 168.298 134.722C167.962 134.931 167.689 135.221 167.48 135.592C167.276 135.958 167.173 136.382 167.173 136.864V143H165.665ZM187.247 138.986V133.182H188.755V143H187.247V141.338H187.145C186.915 141.837 186.557 142.261 186.071 142.61C185.585 142.955 184.971 143.128 184.23 143.128C183.616 143.128 183.071 142.994 182.593 142.725C182.116 142.452 181.741 142.043 181.468 141.498C181.196 140.948 181.059 140.256 181.059 139.42V133.182H182.568V139.318C182.568 140.034 182.768 140.605 183.169 141.031C183.574 141.457 184.089 141.67 184.716 141.67C185.091 141.67 185.472 141.575 185.86 141.383C186.252 141.191 186.58 140.897 186.844 140.501C187.113 140.104 187.247 139.599 187.247 138.986ZM197.589 129.909V143H196.081V129.909H197.589ZM202.992 143.23C202.369 143.23 201.805 143.113 201.298 142.879C200.791 142.64 200.388 142.297 200.09 141.849C199.791 141.398 199.642 140.852 199.642 140.213C199.642 139.651 199.753 139.195 199.975 138.845C200.196 138.491 200.492 138.214 200.863 138.014C201.234 137.814 201.643 137.665 202.09 137.567C202.542 137.464 202.996 137.384 203.452 137.324C204.048 137.247 204.532 137.19 204.903 137.151C205.278 137.109 205.551 137.038 205.721 136.94C205.896 136.842 205.983 136.672 205.983 136.429V136.378C205.983 135.747 205.81 135.257 205.465 134.908C205.124 134.558 204.607 134.384 203.912 134.384C203.192 134.384 202.627 134.541 202.218 134.857C201.809 135.172 201.521 135.509 201.355 135.866L199.923 135.355C200.179 134.759 200.52 134.294 200.946 133.962C201.377 133.625 201.845 133.391 202.352 133.259C202.864 133.122 203.367 133.054 203.861 133.054C204.176 133.054 204.538 133.092 204.948 133.169C205.361 133.241 205.759 133.393 206.143 133.623C206.531 133.853 206.852 134.2 207.108 134.665C207.364 135.129 207.492 135.751 207.492 136.531V143H205.983V141.67H205.906C205.804 141.884 205.634 142.112 205.395 142.354C205.156 142.597 204.839 142.804 204.443 142.974C204.046 143.145 203.563 143.23 202.992 143.23ZM203.222 141.875C203.818 141.875 204.321 141.758 204.73 141.523C205.144 141.289 205.455 140.987 205.663 140.616C205.877 140.245 205.983 139.855 205.983 139.446V138.065C205.919 138.142 205.778 138.212 205.561 138.276C205.348 138.336 205.101 138.389 204.82 138.436C204.543 138.479 204.272 138.517 204.008 138.551C203.748 138.581 203.537 138.607 203.375 138.628C202.983 138.679 202.617 138.762 202.276 138.877C201.939 138.988 201.666 139.156 201.457 139.382C201.253 139.604 201.151 139.906 201.151 140.29C201.151 140.814 201.345 141.21 201.732 141.479C202.124 141.743 202.621 141.875 203.222 141.875ZM216.182 138.986V133.182H217.691V143H216.182V141.338H216.08C215.85 141.837 215.492 142.261 215.006 142.61C214.521 142.955 213.907 143.128 213.165 143.128C212.552 143.128 212.006 142.994 211.529 142.725C211.052 142.452 210.677 142.043 210.404 141.498C210.131 140.948 209.995 140.256 209.995 139.42V133.182H211.503V139.318C211.503 140.034 211.704 140.605 212.104 141.031C212.509 141.457 213.025 141.67 213.651 141.67C214.026 141.67 214.408 141.575 214.795 141.383C215.187 141.191 215.516 140.897 215.78 140.501C216.048 140.104 216.182 139.599 216.182 138.986ZM221.712 137.094V143H220.204V133.182H221.661V134.716H221.789C222.019 134.217 222.369 133.817 222.837 133.514C223.306 133.207 223.911 133.054 224.653 133.054C225.318 133.054 225.899 133.19 226.398 133.463C226.896 133.732 227.284 134.141 227.561 134.69C227.838 135.236 227.977 135.926 227.977 136.761V143H226.468V136.864C226.468 136.092 226.268 135.491 225.867 135.061C225.467 134.626 224.917 134.409 224.218 134.409C223.737 134.409 223.306 134.513 222.927 134.722C222.552 134.931 222.256 135.236 222.038 135.636C221.821 136.037 221.712 136.523 221.712 137.094ZM234.472 143.205C233.551 143.205 232.759 142.987 232.094 142.553C231.429 142.118 230.918 141.519 230.56 140.756C230.202 139.994 230.023 139.122 230.023 138.142C230.023 137.145 230.206 136.265 230.573 135.502C230.943 134.735 231.459 134.136 232.12 133.706C232.784 133.271 233.56 133.054 234.446 133.054C235.137 133.054 235.759 133.182 236.313 133.438C236.867 133.693 237.321 134.051 237.674 134.511C238.028 134.972 238.247 135.509 238.333 136.122H236.824C236.709 135.675 236.453 135.278 236.057 134.933C235.665 134.584 235.137 134.409 234.472 134.409C233.884 134.409 233.368 134.562 232.925 134.869C232.486 135.172 232.143 135.6 231.896 136.154C231.653 136.704 231.532 137.349 231.532 138.091C231.532 138.849 231.651 139.51 231.889 140.072C232.132 140.635 232.473 141.072 232.912 141.383C233.355 141.694 233.875 141.849 234.472 141.849C234.864 141.849 235.22 141.781 235.539 141.645C235.859 141.509 236.13 141.312 236.351 141.057C236.573 140.801 236.73 140.494 236.824 140.136H238.333C238.247 140.716 238.036 141.238 237.7 141.702C237.367 142.163 236.926 142.529 236.377 142.802C235.831 143.07 235.196 143.205 234.472 143.205ZM241.796 137.094V143H240.288V129.909H241.796V134.716H241.924C242.154 134.209 242.5 133.806 242.96 133.508C243.424 133.205 244.042 133.054 244.813 133.054C245.483 133.054 246.068 133.188 246.571 133.457C247.074 133.721 247.464 134.128 247.741 134.678C248.022 135.223 248.163 135.918 248.163 136.761V143H246.654V136.864C246.654 136.084 246.452 135.481 246.047 135.055C245.647 134.624 245.09 134.409 244.379 134.409C243.884 134.409 243.441 134.513 243.049 134.722C242.661 134.931 242.355 135.236 242.129 135.636C241.907 136.037 241.796 136.523 241.796 137.094ZM255.69 143V129.909H260.113C261.14 129.909 261.979 130.094 262.631 130.465C263.288 130.832 263.774 131.328 264.089 131.955C264.404 132.581 264.562 133.28 264.562 134.051C264.562 134.822 264.404 135.523 264.089 136.154C263.778 136.785 263.296 137.288 262.644 137.663C261.992 138.033 261.157 138.219 260.139 138.219H256.968V136.812H260.087C260.791 136.812 261.355 136.691 261.781 136.448C262.207 136.205 262.516 135.877 262.708 135.464C262.904 135.046 263.002 134.575 263.002 134.051C263.002 133.527 262.904 133.058 262.708 132.645C262.516 132.232 262.205 131.908 261.775 131.673C261.345 131.435 260.774 131.315 260.062 131.315H257.275V143H255.69ZM266.661 143V133.182H268.118V134.665H268.221C268.4 134.179 268.723 133.785 269.192 133.482C269.661 133.18 270.189 133.028 270.777 133.028C270.888 133.028 271.027 133.031 271.193 133.035C271.359 133.039 271.485 133.045 271.57 133.054V134.588C271.519 134.575 271.402 134.556 271.218 134.531C271.04 134.501 270.85 134.486 270.65 134.486C270.172 134.486 269.746 134.586 269.371 134.786C269 134.982 268.706 135.255 268.489 135.604C268.276 135.95 268.169 136.344 268.169 136.787V143H266.661ZM276.798 143.205C275.912 143.205 275.134 142.994 274.465 142.572C273.8 142.15 273.28 141.56 272.905 140.801C272.535 140.043 272.349 139.156 272.349 138.142C272.349 137.119 272.535 136.227 272.905 135.464C273.28 134.701 273.8 134.109 274.465 133.687C275.134 133.265 275.912 133.054 276.798 133.054C277.684 133.054 278.46 133.265 279.125 133.687C279.794 134.109 280.314 134.701 280.684 135.464C281.059 136.227 281.247 137.119 281.247 138.142C281.247 139.156 281.059 140.043 280.684 140.801C280.314 141.56 279.794 142.15 279.125 142.572C278.46 142.994 277.684 143.205 276.798 143.205ZM276.798 141.849C277.471 141.849 278.025 141.677 278.46 141.332C278.895 140.987 279.216 140.533 279.425 139.97C279.634 139.408 279.738 138.798 279.738 138.142C279.738 137.486 279.634 136.874 279.425 136.308C279.216 135.741 278.895 135.283 278.46 134.933C278.025 134.584 277.471 134.409 276.798 134.409C276.125 134.409 275.571 134.584 275.136 134.933C274.701 135.283 274.38 135.741 274.171 136.308C273.962 136.874 273.858 137.486 273.858 138.142C273.858 138.798 273.962 139.408 274.171 139.97C274.38 140.533 274.701 140.987 275.136 141.332C275.571 141.677 276.125 141.849 276.798 141.849ZM284.706 139.42L284.68 137.554H284.987L289.283 133.182H291.149L286.572 137.81H286.445L284.706 139.42ZM283.3 143V129.909H284.808V143H283.3ZM289.538 143L285.703 138.142L286.777 137.094L291.456 143H289.538ZM292.841 143V133.182H294.349V143H292.841ZM293.608 131.545C293.314 131.545 293.06 131.445 292.847 131.245C292.638 131.045 292.534 130.804 292.534 130.523C292.534 130.241 292.638 130.001 292.847 129.8C293.06 129.6 293.314 129.5 293.608 129.5C293.902 129.5 294.153 129.6 294.362 129.8C294.575 130.001 294.682 130.241 294.682 130.523C294.682 130.804 294.575 131.045 294.362 131.245C294.153 131.445 293.902 131.545 293.608 131.545ZM296.862 146.682V133.182H298.32V134.741H298.498C298.609 134.571 298.763 134.354 298.959 134.089C299.159 133.821 299.445 133.582 299.815 133.374C300.19 133.161 300.697 133.054 301.337 133.054C302.163 133.054 302.892 133.261 303.523 133.674C304.153 134.087 304.646 134.673 304.999 135.432C305.353 136.19 305.53 137.085 305.53 138.116C305.53 139.156 305.353 140.058 304.999 140.82C304.646 141.579 304.155 142.167 303.529 142.585C302.903 142.998 302.18 143.205 301.362 143.205C300.731 143.205 300.226 143.1 299.847 142.891C299.468 142.678 299.176 142.437 298.972 142.169C298.767 141.896 298.609 141.67 298.498 141.491H298.371V146.682H296.862ZM298.345 138.091C298.345 138.832 298.454 139.487 298.671 140.053C298.888 140.616 299.206 141.057 299.623 141.376C300.041 141.692 300.552 141.849 301.158 141.849C301.788 141.849 302.315 141.683 302.736 141.351C303.163 141.014 303.482 140.562 303.695 139.996C303.913 139.425 304.021 138.79 304.021 138.091C304.021 137.401 303.915 136.778 303.702 136.224C303.493 135.666 303.175 135.225 302.749 134.901C302.327 134.573 301.797 134.409 301.158 134.409C300.544 134.409 300.028 134.565 299.611 134.876C299.193 135.183 298.878 135.613 298.665 136.167C298.452 136.717 298.345 137.358 298.345 138.091ZM312.393 143V133.182H313.902V143H312.393ZM313.16 131.545C312.866 131.545 312.613 131.445 312.4 131.245C312.191 131.045 312.087 130.804 312.087 130.523C312.087 130.241 312.191 130.001 312.4 129.8C312.613 129.6 312.866 129.5 313.16 129.5C313.454 129.5 313.706 129.6 313.915 129.8C314.128 130.001 314.234 130.241 314.234 130.523C314.234 130.804 314.128 131.045 313.915 131.245C313.706 131.445 313.454 131.545 313.16 131.545ZM317.923 137.094V143H316.415V133.182H317.872V134.716H318C318.23 134.217 318.58 133.817 319.048 133.514C319.517 133.207 320.122 133.054 320.864 133.054C321.528 133.054 322.11 133.19 322.609 133.463C323.107 133.732 323.495 134.141 323.772 134.69C324.049 135.236 324.188 135.926 324.188 136.761V143H322.679V136.864C322.679 136.092 322.479 135.491 322.078 135.061C321.678 134.626 321.128 134.409 320.429 134.409C319.948 134.409 319.517 134.513 319.138 134.722C318.763 134.931 318.467 135.236 318.249 135.636C318.032 136.037 317.923 136.523 317.923 137.094ZM171.61 161.182C171.533 160.534 171.222 160.031 170.676 159.673C170.131 159.315 169.462 159.136 168.669 159.136C168.09 159.136 167.583 159.23 167.148 159.418C166.718 159.605 166.381 159.863 166.138 160.191C165.899 160.519 165.78 160.892 165.78 161.31C165.78 161.659 165.863 161.96 166.029 162.211C166.2 162.458 166.417 162.665 166.681 162.831C166.945 162.993 167.222 163.127 167.512 163.234C167.802 163.336 168.068 163.419 168.311 163.483L169.641 163.841C169.982 163.93 170.361 164.054 170.779 164.212C171.2 164.369 171.603 164.585 171.987 164.857C172.374 165.126 172.694 165.471 172.945 165.893C173.197 166.315 173.323 166.832 173.323 167.446C173.323 168.153 173.137 168.793 172.767 169.364C172.4 169.935 171.863 170.388 171.156 170.725C170.453 171.062 169.598 171.23 168.593 171.23C167.655 171.23 166.843 171.079 166.157 170.776C165.475 170.474 164.938 170.052 164.546 169.511C164.159 168.969 163.939 168.341 163.888 167.625H165.524C165.567 168.119 165.733 168.528 166.023 168.852C166.317 169.172 166.688 169.411 167.135 169.568C167.587 169.722 168.073 169.798 168.593 169.798C169.198 169.798 169.741 169.7 170.222 169.504C170.704 169.304 171.085 169.027 171.367 168.673C171.648 168.315 171.789 167.898 171.789 167.42C171.789 166.986 171.667 166.632 171.424 166.359C171.181 166.087 170.862 165.865 170.465 165.695C170.069 165.524 169.641 165.375 169.181 165.247L167.57 164.787C166.547 164.493 165.737 164.073 165.141 163.528C164.544 162.982 164.246 162.268 164.246 161.386C164.246 160.653 164.444 160.014 164.84 159.469C165.241 158.919 165.778 158.493 166.451 158.19C167.129 157.884 167.885 157.73 168.72 157.73C169.564 157.73 170.314 157.881 170.97 158.184C171.627 158.482 172.146 158.891 172.53 159.411C172.918 159.931 173.122 160.521 173.144 161.182H171.61ZM179.463 171.205C178.577 171.205 177.799 170.994 177.13 170.572C176.465 170.15 175.945 169.56 175.57 168.801C175.2 168.043 175.014 167.156 175.014 166.142C175.014 165.119 175.2 164.227 175.57 163.464C175.945 162.701 176.465 162.109 177.13 161.687C177.799 161.265 178.577 161.054 179.463 161.054C180.349 161.054 181.125 161.265 181.79 161.687C182.459 162.109 182.979 162.701 183.349 163.464C183.724 164.227 183.912 165.119 183.912 166.142C183.912 167.156 183.724 168.043 183.349 168.801C182.979 169.56 182.459 170.15 181.79 170.572C181.125 170.994 180.349 171.205 179.463 171.205ZM179.463 169.849C180.136 169.849 180.69 169.677 181.125 169.332C181.56 168.987 181.881 168.533 182.09 167.97C182.299 167.408 182.403 166.798 182.403 166.142C182.403 165.486 182.299 164.874 182.09 164.308C181.881 163.741 181.56 163.283 181.125 162.933C180.69 162.584 180.136 162.409 179.463 162.409C178.79 162.409 178.236 162.584 177.801 162.933C177.366 163.283 177.045 163.741 176.836 164.308C176.627 164.874 176.523 165.486 176.523 166.142C176.523 166.798 176.627 167.408 176.836 167.97C177.045 168.533 177.366 168.987 177.801 169.332C178.236 169.677 178.79 169.849 179.463 169.849ZM187.371 167.42L187.345 165.554H187.652L191.948 161.182H193.814L189.237 165.81H189.11L187.371 167.42ZM185.965 171V157.909H187.473V171H185.965ZM192.203 171L188.368 166.142L189.442 165.094L194.121 171H192.203ZM199.09 171.205C198.204 171.205 197.426 170.994 196.757 170.572C196.092 170.15 195.572 169.56 195.197 168.801C194.827 168.043 194.641 167.156 194.641 166.142C194.641 165.119 194.827 164.227 195.197 163.464C195.572 162.701 196.092 162.109 196.757 161.687C197.426 161.265 198.204 161.054 199.09 161.054C199.976 161.054 200.752 161.265 201.417 161.687C202.086 162.109 202.606 162.701 202.976 163.464C203.351 164.227 203.539 165.119 203.539 166.142C203.539 167.156 203.351 168.043 202.976 168.801C202.606 169.56 202.086 170.15 201.417 170.572C200.752 170.994 199.976 171.205 199.09 171.205ZM199.09 169.849C199.763 169.849 200.317 169.677 200.752 169.332C201.187 168.987 201.508 168.533 201.717 167.97C201.926 167.408 202.03 166.798 202.03 166.142C202.03 165.486 201.926 164.874 201.717 164.308C201.508 163.741 201.187 163.283 200.752 162.933C200.317 162.584 199.763 162.409 199.09 162.409C198.417 162.409 197.863 162.584 197.428 162.933C196.993 163.283 196.672 163.741 196.463 164.308C196.254 164.874 196.15 165.486 196.15 166.142C196.15 166.798 196.254 167.408 196.463 167.97C196.672 168.533 196.993 168.987 197.428 169.332C197.863 169.677 198.417 169.849 199.09 169.849ZM209.862 161.182V162.46H204.773V161.182H209.862ZM206.256 158.83H207.765V168.188C207.765 168.614 207.827 168.933 207.95 169.146C208.078 169.355 208.24 169.496 208.436 169.568C208.636 169.636 208.847 169.67 209.069 169.67C209.235 169.67 209.371 169.662 209.478 169.645C209.585 169.624 209.67 169.607 209.734 169.594L210.04 170.949C209.938 170.987 209.795 171.026 209.612 171.064C209.429 171.107 209.197 171.128 208.915 171.128C208.489 171.128 208.072 171.036 207.663 170.853C207.258 170.67 206.921 170.391 206.653 170.016C206.388 169.641 206.256 169.168 206.256 168.597V158.83ZM215.764 171.205C214.877 171.205 214.1 170.994 213.431 170.572C212.766 170.15 212.246 169.56 211.871 168.801C211.5 168.043 211.315 167.156 211.315 166.142C211.315 165.119 211.5 164.227 211.871 163.464C212.246 162.701 212.766 162.109 213.431 161.687C214.1 161.265 214.877 161.054 215.764 161.054C216.65 161.054 217.426 161.265 218.091 161.687C218.76 162.109 219.279 162.701 219.65 163.464C220.025 164.227 220.213 165.119 220.213 166.142C220.213 167.156 220.025 168.043 219.65 168.801C219.279 169.56 218.76 170.15 218.091 170.572C217.426 170.994 216.65 171.205 215.764 171.205ZM215.764 169.849C216.437 169.849 216.991 169.677 217.426 169.332C217.86 168.987 218.182 168.533 218.391 167.97C218.6 167.408 218.704 166.798 218.704 166.142C218.704 165.486 218.6 164.874 218.391 164.308C218.182 163.741 217.86 163.283 217.426 162.933C216.991 162.584 216.437 162.409 215.764 162.409C215.091 162.409 214.537 162.584 214.102 162.933C213.667 163.283 213.346 163.741 213.137 164.308C212.928 164.874 212.824 165.486 212.824 166.142C212.824 166.798 212.928 167.408 213.137 167.97C213.346 168.533 213.667 168.987 214.102 169.332C214.537 169.677 215.091 169.849 215.764 169.849Z" fill="#fff"/><path d="M156.208 235.29H227.908C246.415 235.29 261.358 250.233 261.358 268.74V340.44C261.358 358.947 246.415 373.89 227.908 373.89H156.208C137.701 373.89 122.758 358.947 122.758 340.44V268.74C122.758 250.233 137.701 235.29 156.208 235.29Z" fill="#fff"/><path opacity=".984" fill-rule="evenodd" clip-rule="evenodd" d="M156.092 254.311C170.709 254.2 185.325 254.311 199.938 254.643C222.437 258.983 236.942 272.159 243.451 294.171C248.056 321.607 238.202 341.869 213.889 354.957C187.655 364.516 165.843 358.426 148.453 336.688C144.513 330.802 141.856 324.38 140.481 317.422C140.038 301.257 140.038 285.091 140.481 268.926C143.262 261.382 148.466 256.51 156.092 254.311Z" fill="#FFB600"/><path fill-rule="evenodd" clip-rule="evenodd" d="M174.032 272.248C182.008 272.137 189.98 272.248 197.948 272.58C213.838 276.127 220.814 285.98 218.874 302.142C214.368 316.156 204.736 322.467 189.976 321.076C186.884 319.151 185.887 316.383 186.987 312.771C187.54 312.218 188.094 311.664 188.648 311.111C191.893 310.298 195.215 309.854 198.612 309.782C207.964 305.585 210.51 298.831 206.252 289.52C204.53 287.353 202.426 285.692 199.941 284.538C190.615 283.898 181.314 283.234 172.039 282.545C168.886 278.317 169.55 274.885 174.032 272.248Z" fill="#051938"/><path fill-rule="evenodd" clip-rule="evenodd" d="M178.015 291.514C184.44 291.403 190.862 291.514 197.281 291.846C200.419 293.463 201.415 296.01 200.27 299.485C199.495 300.261 198.72 301.035 197.945 301.811C193.516 302.032 189.087 302.254 184.658 302.475C183.472 302.996 182.475 303.771 181.669 304.8C181.448 315.65 181.226 326.502 181.005 337.352C178.889 341.373 175.9 342.259 172.036 340.009C171.316 339.235 170.763 338.35 170.375 337.352C169.932 324.951 169.932 312.551 170.375 300.15C171.903 296.301 174.45 293.422 178.015 291.514Z" fill="#041837"/><path d="M218.069 344.611L187.676 359.546C186.759 360.07 185.58 360.201 184.532 359.939L181.65 359.415C178.375 358.76 174.969 359.284 171.955 360.725L151.519 370.681L148.637 364.917L243.877 318.28C243.877 318.28 243.746 319.066 243.353 320.507C241.781 324.961 236.41 335.572 218.069 344.611Z" fill="#F4EDCD" stroke="#000" stroke-width=".36" stroke-linecap="round" stroke-linejoin="round"/><path opacity=".3" d="M192.526 346.315L188.465 345.397L243.88 318.28C243.88 318.28 243.749 319.066 243.356 320.507C226.849 329.415 206.281 340.943 196.98 345.79C195.539 346.446 193.967 346.708 192.526 346.315Z" fill="#fff"/><path d="M153.737 365.965C150.331 359.022 141.946 356.14 135.003 359.546C128.06 362.952 125.178 371.336 128.584 378.279C131.99 385.222 140.374 388.104 147.317 384.698C154.261 381.423 157.143 373.039 153.737 365.965ZM133.038 376.183C130.811 371.729 132.645 366.358 137.099 364.262C141.553 362.035 146.924 363.869 149.021 368.323C151.248 372.777 149.414 378.148 144.959 380.244C140.636 382.34 135.265 380.506 133.038 376.183Z" fill="#F4EDCD" stroke="#000" stroke-width=".36" stroke-linecap="round" stroke-linejoin="round"/><path d="M150.197 367.799C147.708 362.821 141.813 360.725 136.835 363.214C131.857 365.703 129.76 371.598 132.25 376.576C134.739 381.554 140.634 383.65 145.612 381.161C150.459 378.803 152.555 372.777 150.197 367.799ZM133.036 376.183C130.809 371.729 132.643 366.358 137.097 364.262C141.551 362.035 146.922 363.869 149.018 368.323C151.245 372.777 149.411 378.148 144.957 380.244C140.634 382.34 135.263 380.506 133.036 376.183Z" fill="#E8A89B"/><path d="M178.901 321.424L180.604 355.223C180.604 356.271 180.997 357.319 181.783 358.105L183.618 360.463C185.714 363.083 187.024 366.358 187.155 369.633L188.334 392.297L194.753 392.035L189.382 286.053C189.382 286.053 188.727 286.577 187.679 287.625C184.404 291.162 177.853 300.988 178.901 321.424Z" fill="#F4EDCD" stroke="#000" stroke-width=".36" stroke-linecap="round" stroke-linejoin="round"/><path opacity=".3" d="M189.647 344.612L192.398 347.625L189.254 286.053C189.254 286.053 188.599 286.577 187.551 287.625C187.813 306.359 187.551 330.07 187.944 340.42C188.075 342.123 188.599 343.564 189.647 344.612Z" fill="#fff"/><path d="M183.61 352.865C183.741 354.699 185.313 356.14 187.016 356.009C188.85 355.878 190.291 354.306 190.16 352.603C190.029 350.769 188.457 349.328 186.754 349.459C184.92 349.59 183.479 351.031 183.61 352.865Z" fill="#DC9528"/><path d="M183.61 352.865C183.741 354.699 185.313 356.14 187.016 356.009C188.85 355.878 190.291 354.306 190.16 352.603C190.029 350.769 188.457 349.328 186.754 349.459C184.92 349.59 183.479 351.031 183.61 352.865Z" fill="#312701" stroke="#000" stroke-width=".36" stroke-linecap="round" stroke-linejoin="round"/><path d="M185.447 350.9L188.722 353.913C188.984 354.044 188.984 354.437 188.722 354.699C188.591 354.961 188.198 354.961 187.936 354.699L184.661 351.686C184.399 351.555 184.399 351.162 184.661 350.9C184.923 350.769 185.316 350.638 185.447 350.9Z" fill="#E8A89B"/><path d="M184.79 350.9L184.921 350.769C184.79 351.031 184.79 351.293 185.052 351.424L188.327 354.437C188.458 354.568 188.72 354.568 188.982 354.437C188.982 354.437 188.982 354.568 188.851 354.568C188.72 354.83 188.327 354.83 188.065 354.568L184.79 351.555C184.528 351.424 184.528 351.162 184.79 350.9Z" fill="#F4EDCD"/><path d="M177.854 402.777C178.247 410.506 184.797 416.532 192.527 416.139C200.256 415.746 206.282 409.196 205.889 401.467C205.496 393.738 198.946 387.712 191.217 388.105C183.487 388.498 177.461 395.048 177.854 402.777ZM182.963 402.515C182.701 397.537 186.5 393.345 191.479 393.083C196.457 392.821 200.649 396.62 200.911 401.598C201.173 406.576 197.374 410.768 192.396 411.03C187.417 411.292 183.225 407.493 182.963 402.515Z" fill="#F4EDCD" stroke="#000" stroke-width=".36" stroke-linecap="round" stroke-linejoin="round"/><path d="M181.922 402.646C182.184 408.148 186.9 412.471 192.402 412.209C197.904 411.947 202.227 407.231 201.965 401.729C201.703 396.227 196.987 391.904 191.485 392.166C185.852 392.428 181.66 397.144 181.922 402.646ZM182.97 402.515C182.708 397.537 186.507 393.345 191.485 393.083C196.463 392.821 200.655 396.62 200.917 401.598C201.179 406.576 197.38 410.768 192.402 411.03C187.424 411.292 183.232 407.493 182.97 402.515Z" fill="#E8A89B"/><path d="M114.576 320.507L91.2576 321.424C91.2576 321.424 1.25763 325.223 -18 313.171L-12.8908 293.913C-12.8908 293.913 18.6812 303.738 88.8995 303.083L88.3755 314.088C88.3755 314.088 86.2794 321.555 96.3667 319.721C96.3667 319.721 111.039 314.481 118.375 317.494C118.637 318.804 118.244 320.114 114.576 320.507Z" fill="#E28B00" stroke="#000" stroke-width=".36" stroke-linecap="round" stroke-linejoin="round"/><path d="M170.386 314.35C170.386 314.35 134.36 318.411 116.412 315.005C116.412 315.005 91.1282 306.358 88.2461 314.088L88.7701 303.083L89.2941 297.581C89.4251 296.533 90.0802 295.747 90.8662 295.354C93.2243 294.306 98.3334 294.044 112.744 296.009C112.744 296.009 140.255 301.249 166.98 296.009L170.386 314.35Z" fill="#FFAA08" stroke="#000" stroke-width=".36" stroke-linecap="round" stroke-linejoin="round"/><path d="M118.243 317.494C110.907 314.35 96.2344 319.721 96.2344 319.721C86.1471 321.555 88.2432 314.088 88.2432 314.088C91.1252 306.358 116.409 315.005 116.409 315.005C116.671 315.136 117.85 316.315 118.243 317.494Z" fill="#603D05" stroke="#000" stroke-width=".36" stroke-linecap="round" stroke-linejoin="round"/><path d="M272.044 320.507L295.363 321.424C295.363 321.424 382.874 325.354 402.001 313.433V297.057C402.001 297.057 368.07 303.738 297.721 303.083L298.245 314.088C298.245 314.088 300.341 321.555 290.254 319.721C290.254 319.721 275.581 314.481 268.245 317.494C267.983 318.804 268.507 320.114 272.044 320.507Z" fill="#E28B00" stroke="#000" stroke-width=".36" stroke-linecap="round" stroke-linejoin="round"/><path d="M216.236 314.35C216.236 314.35 252.263 318.411 270.21 315.005C270.21 315.005 295.494 306.359 298.376 314.088L297.852 303.084L297.328 297.581C297.197 296.533 296.542 295.747 295.756 295.354C293.922 294.568 290.647 294.175 283.048 294.961C270.472 296.14 257.896 296.664 245.319 296.271C234.97 295.878 223.311 294.961 212.699 292.865L216.236 314.35Z" fill="#FFAA08" stroke="#000" stroke-width=".36" stroke-linecap="round" stroke-linejoin="round"/><path d="M268.508 317.494C275.844 314.481 290.517 319.721 290.517 319.721C300.604 321.555 298.508 314.088 298.508 314.088C295.626 306.359 270.342 315.005 270.342 315.005C269.949 315.136 268.901 316.315 268.508 317.494Z" fill="#603D05" stroke="#000" stroke-width=".36" stroke-linecap="round" stroke-linejoin="round"/><path d="M238.31 190L238.458 198.556V198.711L238.606 198.867L245.552 203.378L237.424 203.533H237.276L237.128 203.689L232.843 211L232.695 202.444V202.289L232.547 202.133L225.602 197.622L233.729 197.467H233.877L234.025 197.311L238.31 190Z" fill="#fff" stroke="#000" stroke-width=".36" stroke-linecap="round" stroke-linejoin="round"/><path d="M207.3 205.75L208.68 210.965V211.118H208.834L214.048 212.652L208.834 214.032H208.68V214.185L207.147 219.4L205.766 214.185V214.032H205.613L200.398 212.498L205.613 211.118H205.766V210.965L207.3 205.75Z" fill="#fff" stroke="#000" stroke-width=".36" stroke-linecap="round" stroke-linejoin="round"/></g><defs><clipPath id="clip0_3516_2545"><rect width="384" height="480" rx="32" fill="#fff"/></clipPath></defs></svg>