<svg width="102" height="124" viewBox="0 0 102 124" fill="none" xmlns="http://www.w3.org/2000/svg"><g filter="url(#filter0_d_3643_2433)"><path fill-rule="evenodd" clip-rule="evenodd" d="M37.1367 42.3857L64.8558 58.3894L32.5121 114.41C31.7577 115.717 29.8835 115.75 29.0835 114.471L21.2395 101.928L6.4549 101.406C4.94708 101.353 4.0386 99.7134 4.79298 98.4067L37.1367 42.3857Z" fill="#2DCD6B"/></g><mask id="mask0_3643_2433" style="mask-type:luminance" maskUnits="userSpaceOnUse" x="4" y="42" width="61" height="74"><path fill-rule="evenodd" clip-rule="evenodd" d="M37.1367 42.3857L64.8558 58.3894L32.5121 114.41C31.7577 115.717 29.8835 115.75 29.0835 114.471L21.2395 101.928L6.4549 101.406C4.94708 101.353 4.0386 99.7134 4.79298 98.4067L37.1367 42.3857Z" fill="#fff"/></mask><g mask="url(#mask0_3643_2433)"><path fill-rule="evenodd" clip-rule="evenodd" d="M28.0625 74.1055L41.9221 82.1073L23.918 113.291L10.0584 105.289L28.0625 74.1055Z" fill="#fff"/></g><g filter="url(#filter1_d_3643_2433)"><path fill-rule="evenodd" clip-rule="evenodd" d="M64.8594 42.3857L37.1403 58.3894L69.484 114.41C70.2384 115.717 72.1126 115.75 72.9126 114.471L80.7566 101.928L95.5412 101.406C97.049 101.353 97.9575 99.7134 97.2031 98.4067L64.8594 42.3857Z" fill="#2DCD6B"/></g><mask id="mask1_3643_2433" style="mask-type:luminance" maskUnits="userSpaceOnUse" x="37" y="42" width="61" height="74"><path fill-rule="evenodd" clip-rule="evenodd" d="M64.8594 42.3857L37.1403 58.3894L69.484 114.41C70.2384 115.717 72.1126 115.75 72.9126 114.471L80.7566 101.928L95.5412 101.406C97.049 101.353 97.9575 99.7134 97.2031 98.4067L64.8594 42.3857Z" fill="#fff"/></mask><g mask="url(#mask1_3643_2433)"><path fill-rule="evenodd" clip-rule="evenodd" d="M73.9336 74.1064L60.074 82.1083L78.0781 113.292L91.9377 105.29L73.9336 74.1064Z" fill="#fff"/></g><path fill-rule="evenodd" clip-rule="evenodd" d="M46.9978 4.68688C49.4736 3.25749 52.5239 3.25749 54.9996 4.68688L86.844 23.0723C89.3198 24.5016 90.8449 27.1433 90.8449 30.002V66.7728C90.8449 69.6315 89.3198 72.2732 86.844 73.7025L54.9996 92.0879C52.5239 93.5173 49.4736 93.5173 46.9978 92.0879L15.1534 73.7025C12.6776 72.2731 11.1525 69.6315 11.1525 66.7728V30.002C11.1525 27.1432 12.6776 24.5016 15.1534 23.0722L46.9978 4.68688Z" fill="url(#paint0_linear_3643_2433)" stroke="#FFF04D" stroke-opacity=".4" stroke-width="2"/><mask id="mask2_3643_2433" style="mask-type:luminance" maskUnits="userSpaceOnUse" x="10" y="2" width="82" height="93"><path fill-rule="evenodd" clip-rule="evenodd" d="M46.9978 4.68688C49.4736 3.25749 52.5239 3.25749 54.9996 4.68688L86.844 23.0723C89.3198 24.5016 90.8449 27.1433 90.8449 30.002V66.7728C90.8449 69.6315 89.3198 72.2732 86.844 73.7025L54.9996 92.0879C52.5239 93.5173 49.4736 93.5173 46.9978 92.0879L15.1534 73.7025C12.6776 72.2731 11.1525 69.6315 11.1525 66.7728V30.002C11.1525 27.1432 12.6776 24.5016 15.1534 23.0722L46.9978 4.68688Z" fill="#fff" stroke="#fff" stroke-width="2"/></mask><g mask="url(#mask2_3643_2433)"><path d="M54.503 5.55229C52.3367 4.30158 49.6677 4.30158 47.5014 5.55229L15.657 23.9377C13.4907 25.1884 12.1562 27.4998 12.1562 30.0012L12.1563 66.772C12.1562 69.2734 13.4907 71.5848 15.657 72.8355L47.5014 91.2209C49.6677 92.4716 52.3367 92.4716 54.503 91.2209L86.3474 72.8355C88.5137 71.5848 89.8482 69.2734 89.8482 66.772V30.0012C89.8482 27.4998 88.5137 25.1884 86.3474 23.9377L54.503 5.55229Z" stroke="#F9B607" stroke-width="2" stroke-linecap="round"/><path d="M89.8482 66.772V30.0012C89.8482 27.4998 88.5137 25.1884 86.3474 23.9377L54.503 5.55229C52.3367 4.30158 49.6677 4.30158 47.5014 5.55229L15.657 23.9377C13.4907 25.1884 12.1562 27.4998 12.1562 30.0012L12.1563 66.772" stroke="#FBC618" stroke-width="2" stroke-linecap="round"/><path opacity=".6" d="M89.8482 30.0012C89.8482 27.4998 88.5137 25.1884 86.3474 23.9377L54.503 5.55229C52.3367 4.30158 49.6677 4.30158 47.5014 5.55229L15.657 23.9377C13.4907 25.1884 12.1562 27.4998 12.1562 30.0012" stroke="#FFF24E" stroke-width="2" stroke-linecap="round"/><path opacity=".4" d="M54.5019 5.55229C52.3356 4.30158 49.6666 4.30158 47.5003 5.55229C47.5003 5.55229 36.8855 11.6807 31.5781 14.745" stroke="#fff" stroke-width="2" stroke-linecap="round"/><path d="M47.4997 5.55371C47.4997 5.55371 41.8822 8.79694 39.5391 10.1498" stroke="#fff" stroke-width="2" stroke-linecap="round"/><path opacity=".4" d="M54.4961 91.2211C58.241 89.0589 60.8946 87.5269 62.4567 86.625" stroke="#fff" stroke-width="2" stroke-linecap="round"/></g><g filter="url(#filter2_d_3643_2433)"><path fill-rule="evenodd" clip-rule="evenodd" d="M48.999 17.5339C50.2369 16.8192 51.762 16.8192 52.9999 17.5339L76.7181 31.2276C77.956 31.9423 78.7186 33.2631 78.7186 34.6925V62.0799C78.7186 63.5093 77.956 64.8301 76.7181 65.5448L52.9999 79.2385C51.762 79.9532 50.2369 79.9532 48.999 79.2385L25.2808 65.5448C24.0429 64.8301 23.2803 63.5093 23.2803 62.0799V34.6925C23.2803 33.2631 24.0429 31.9423 25.2808 31.2276L48.999 17.5339Z" fill="url(#paint1_linear_3643_2433)"/><path d="M48.4989 16.6676L48.9969 17.5302L48.4989 16.6676L24.7807 30.3614C23.2333 31.2547 22.2801 32.9057 22.2801 34.6925V62.0799C22.2801 63.8666 23.2333 65.5176 24.7807 66.411L48.4989 80.1047C50.0462 80.9981 51.9527 80.9981 53.5 80.1047L77.2182 66.411C78.7656 65.5176 79.7188 63.8666 79.7188 62.0799V34.6925C79.7188 32.9057 78.7656 31.2547 77.2182 30.3614L53.5 16.6676C51.9527 15.7743 50.0462 15.7743 48.4989 16.6676Z" stroke="#F5900D" stroke-opacity=".1" stroke-width="2" style="mix-blend-mode:multiply"/></g><mask id="mask3_3643_2433" style="mask-type:luminance" maskUnits="userSpaceOnUse" x="23" y="16" width="56" height="64"><path fill-rule="evenodd" clip-rule="evenodd" d="M48.999 17.5339C50.2369 16.8192 51.762 16.8192 52.9999 17.5339L76.7181 31.2276C77.956 31.9423 78.7186 33.2631 78.7186 34.6925V62.0799C78.7186 63.5093 77.956 64.8301 76.7181 65.5448L52.9999 79.2385C51.762 79.9532 50.2369 79.9532 48.999 79.2385L25.2808 65.5448C24.0429 64.8301 23.2803 63.5093 23.2803 62.0799V34.6925C23.2803 33.2631 24.0429 31.9423 25.2808 31.2276L48.999 17.5339Z" fill="#fff"/></mask><g mask="url(#mask3_3643_2433)"><g style="mix-blend-mode:multiply" opacity=".3"><path fill-rule="evenodd" clip-rule="evenodd" d="M51.0024 48.3798L59.0026 16.3789H42.9989L51.0001 48.3835L50.9987 48.3858L50.9982 48.3857L50.9983 48.3856L50.9981 48.3857L50.9979 48.3856L34.0237 20.0953L22.7074 31.4116L50.9971 48.3854L18.9922 40.3842V56.3878L50.9963 48.3868L22.7076 65.36L34.0238 76.6763L50.9977 48.3865L50.9991 48.3869L50.9998 48.3881L42.9985 80.3935H59.0021L51.0014 48.3906L67.9733 76.6771L79.2896 65.3609L51.0006 48.3875L51.0005 48.3872L83.0048 56.3883V40.3846L51.0009 48.3856L51.0012 48.3843L79.2894 31.4114L67.9731 20.0952L51.0024 48.3798ZM50.9987 48.3858L51.0004 48.3848L51.0006 48.3857L50.9995 48.386L50.9987 48.3858ZM51.0001 48.3871L51.0001 48.3872L50.9999 48.387L51.0001 48.3871Z" fill="#FFD640"/></g><path opacity=".4" d="M76.2183 32.0947L52.5001 18.401C51.5717 17.865 50.4279 17.865 49.4994 18.401C46.71 20.0115 44.7335 21.1527 43.5699 21.8245C41.1484 23.2225 39.1719 24.3637 37.6403 25.2479C35.005 26.7694 31.052 29.0517 25.7813 32.0947" stroke="#fff" stroke-width="2" stroke-linecap="round"/><path d="M49.4995 18.4014C46.7102 20.0118 44.7338 21.1528 43.5703 21.8246" stroke="#fff" stroke-width="2" stroke-linecap="round"/></g><g filter="url(#filter3_d_3643_2433)"><path d="M45.8981 41.3657L50.9997 33.9219L56.1012 41.3657L64.7571 43.9173L59.2541 51.0694L59.5022 60.0901L50.9997 57.0666L42.4971 60.0902L42.7452 51.0694L37.2422 43.9173L45.8981 41.3657Z" fill="#fff"/><path d="M52.6498 32.791C52.2768 32.2467 51.6594 31.9214 50.9997 31.9214C50.3399 31.9214 49.7225 32.2467 49.3495 32.791L44.6501 39.648L36.6766 41.9984C36.0437 42.185 35.5435 42.6716 35.3396 43.2991C35.1358 43.9266 35.2544 44.6142 35.6567 45.1372L40.7259 51.7255L40.4974 60.0352C40.4792 60.6947 40.7875 61.3207 41.3212 61.7086C41.855 62.0964 42.5457 62.196 43.1673 61.975L50.9997 59.1898L58.832 61.975C59.4536 62.196 60.1443 62.0964 60.6781 61.7085C61.2119 61.3207 61.5201 60.6947 61.5019 60.0351L61.2734 51.7255L66.3426 45.1372C66.7449 44.6142 66.8636 43.9266 66.6597 43.2991C66.4558 42.6716 65.9556 42.185 65.3228 41.9984L57.3492 39.648L52.6498 32.791Z" stroke="#fff" stroke-width="4.001" stroke-linejoin="round"/></g><g filter="url(#filter4_i_3643_2433)"><path d="M45.8981 41.3657L50.9997 33.9219L56.1012 41.3657L64.7571 43.9173L59.2541 51.0694L59.5022 60.0901L50.9997 57.0666L42.4971 60.0902L42.7452 51.0694L37.2422 43.9173L45.8981 41.3657Z" fill="url(#paint2_linear_3643_2433)"/></g><g filter="url(#filter5_d_3643_2433)"><path fill-rule="evenodd" clip-rule="evenodd" d="M70.8299 33.942L69.7911 33.5322C69.1557 33.2817 68.8438 32.5635 69.0944 31.9281C69.2201 31.6094 69.4724 31.3571 69.7911 31.2314L70.8299 30.8217C72.0279 30.3492 72.9762 29.4009 73.4487 28.203L73.8584 27.1641C74.109 26.5288 74.8272 26.2168 75.4625 26.4674C75.7812 26.5931 76.0335 26.8454 76.1592 27.1641L76.5689 28.203C77.0414 29.4009 77.9897 30.3492 79.1877 30.8217L80.2265 31.2314C80.8619 31.482 81.1738 32.2002 80.9232 32.8356C80.7975 33.1543 80.5452 33.4066 80.2265 33.5322L79.1877 33.942C77.9897 34.4144 77.0414 35.3627 76.5689 36.5607L76.1592 37.5996C75.9086 38.2349 75.1904 38.5468 74.5551 38.2963C74.2364 38.1706 73.9841 37.9183 73.8584 37.5996L73.4487 36.5607C72.9762 35.3627 72.0279 34.4144 70.8299 33.942Z" fill="#fff"/></g><g filter="url(#filter6_d_3643_2433)"><path fill-rule="evenodd" clip-rule="evenodd" d="M30.2108 65.4284L29.5183 65.1553C29.0947 64.9882 28.8868 64.5094 29.0538 64.0859C29.1376 63.8734 29.3058 63.7052 29.5183 63.6214L30.2108 63.3483C31.0095 63.0333 31.6417 62.4011 31.9567 61.6024L32.2298 60.9099C32.3969 60.4863 32.8757 60.2784 33.2992 60.4454C33.5117 60.5292 33.6799 60.6974 33.7637 60.9099L34.0368 61.6024C34.3518 62.4011 34.984 63.0333 35.7827 63.3483L36.4752 63.6214C36.8988 63.7885 37.1067 64.2673 36.9397 64.6908C36.8559 64.9033 36.6877 65.0715 36.4752 65.1553L35.7827 65.4284C34.984 65.7434 34.3518 66.3756 34.0368 67.1743L33.7637 67.8668C33.5966 68.2904 33.1178 68.4983 32.6943 68.3313C32.4818 68.2475 32.3136 68.0793 32.2298 67.8668L31.9567 67.1743C31.6417 66.3756 31.0095 65.7434 30.2108 65.4284Z" fill="#fff"/></g><g filter="url(#filter7_d_3643_2433)"><path fill-rule="evenodd" clip-rule="evenodd" d="M27.6035 34.9032L27.2572 34.7666C27.0454 34.6831 26.9414 34.4437 27.025 34.2319C27.0668 34.1257 27.1509 34.0416 27.2572 33.9997L27.6035 33.8631C28.0028 33.7056 28.3189 33.3895 28.4764 32.9902L28.613 32.6439C28.6965 32.4321 28.9359 32.3281 29.1477 32.4117C29.2539 32.4536 29.338 32.5377 29.3799 32.6439L29.5165 32.9902C29.674 33.3895 29.9901 33.7056 30.3894 33.8631L30.7357 33.9997C30.9474 34.0832 31.0514 34.3226 30.9679 34.5344C30.926 34.6406 30.8419 34.7247 30.7357 34.7666L30.3894 34.9032C29.9901 35.0607 29.674 35.3768 29.5165 35.7761L29.3799 36.1224C29.2964 36.3342 29.057 36.4381 28.8452 36.3546C28.7389 36.3127 28.6549 36.2286 28.613 36.1224L28.4764 35.7761C28.3189 35.3768 28.0028 35.0607 27.6035 34.9032Z" fill="#fff"/></g><g filter="url(#filter8_d_3643_2433)"><path fill-rule="evenodd" clip-rule="evenodd" d="M69.9189 68.1702L69.3994 67.9653C69.0818 67.8401 68.9258 67.481 69.0511 67.1633C69.1139 67.0039 69.2401 66.8778 69.3994 66.8149L69.9189 66.6101C70.5179 66.3738 70.992 65.8997 71.2282 65.3007L71.4331 64.7813C71.5584 64.4636 71.9175 64.3076 72.2352 64.4329C72.3945 64.4958 72.5207 64.6219 72.5835 64.7813L72.7884 65.3007C73.0246 65.8997 73.4987 66.3738 74.0977 66.6101L74.6172 66.8149C74.9348 66.9402 75.0908 67.2993 74.9655 67.617C74.9027 67.7764 74.7765 67.9025 74.6172 67.9653L74.0977 68.1702C73.4987 68.4064 73.0246 68.8806 72.7884 69.4796L72.5835 69.999C72.4582 70.3167 72.0991 70.4726 71.7814 70.3473C71.6221 70.2845 71.4959 70.1584 71.4331 69.999L71.2282 69.4796C70.992 68.8806 70.5179 68.4064 69.9189 68.1702Z" fill="#fff"/></g><defs><filter id="filter0_d_3643_2433" x=".523" y="42.386" width="68.334" height="81.026" filterUnits="userSpaceOnUse" color-interpolation-filters="sRGB"><feFlood flood-opacity="0" result="BackgroundImageFix"/><feColorMatrix in="SourceAlpha" type="matrix" values="0 0 0 0 0 0 0 0 0 0 0 0 0 0 0 0 0 0 127 0" result="hardAlpha"/><feOffset dy="4.001"/><feGaussianBlur stdDeviation="2"/><feColorMatrix type="matrix" values="0 0 0 0 0.333333 0 0 0 0 0.615373 0 0 0 0 0.819608 0 0 0 0.2 0"/><feBlend mode="darken" in2="BackgroundImageFix" result="effect1_dropShadow_3643_2433"/><feBlend mode="normal" in="SourceGraphic" in2="effect1_dropShadow_3643_2433" result="shape"/></filter><filter id="filter1_d_3643_2433" x="33.14" y="42.386" width="68.334" height="81.026" filterUnits="userSpaceOnUse" color-interpolation-filters="sRGB"><feFlood flood-opacity="0" result="BackgroundImageFix"/><feColorMatrix in="SourceAlpha" type="matrix" values="0 0 0 0 0 0 0 0 0 0 0 0 0 0 0 0 0 0 127 0" result="hardAlpha"/><feOffset dy="4.001"/><feGaussianBlur stdDeviation="2"/><feColorMatrix type="matrix" values="0 0 0 0 0.333333 0 0 0 0 0.615373 0 0 0 0 0.819608 0 0 0 0.2 0"/><feBlend mode="darken" in2="BackgroundImageFix" result="effect1_dropShadow_3643_2433"/><feBlend mode="normal" in="SourceGraphic" in2="effect1_dropShadow_3643_2433" result="shape"/></filter><filter id="filter2_d_3643_2433" x="17.28" y="12.997" width="67.439" height="74.78" filterUnits="userSpaceOnUse" color-interpolation-filters="sRGB"><feFlood flood-opacity="0" result="BackgroundImageFix"/><feColorMatrix in="SourceAlpha" type="matrix" values="0 0 0 0 0 0 0 0 0 0 0 0 0 0 0 0 0 0 127 0" result="hardAlpha"/><feOffset dy="2"/><feGaussianBlur stdDeviation="2"/><feColorMatrix type="matrix" values="0 0 0 0 0.927721 0 0 0 0 0.665867 0 0 0 0 0.0535899 0 0 0 0.4 0"/><feBlend mode="normal" in2="BackgroundImageFix" result="effect1_dropShadow_3643_2433"/><feBlend mode="normal" in="SourceGraphic" in2="effect1_dropShadow_3643_2433" result="shape"/></filter><filter id="filter3_d_3643_2433" x="29.241" y="27.92" width="43.517" height="42.172" filterUnits="userSpaceOnUse" color-interpolation-filters="sRGB"><feFlood flood-opacity="0" result="BackgroundImageFix"/><feColorMatrix in="SourceAlpha" type="matrix" values="0 0 0 0 0 0 0 0 0 0 0 0 0 0 0 0 0 0 127 0" result="hardAlpha"/><feOffset dy="2"/><feGaussianBlur stdDeviation="2"/><feColorMatrix type="matrix" values="0 0 0 0 0.996078 0 0 0 0 0.733333 0 0 0 0 0.105882 0 0 0 1 0"/><feBlend mode="normal" in2="BackgroundImageFix" result="effect1_dropShadow_3643_2433"/><feBlend mode="normal" in="SourceGraphic" in2="effect1_dropShadow_3643_2433" result="shape"/></filter><filter id="filter4_i_3643_2433" x="37.242" y="33.922" width="27.516" height="28.168" filterUnits="userSpaceOnUse" color-interpolation-filters="sRGB"><feFlood flood-opacity="0" result="BackgroundImageFix"/><feBlend mode="normal" in="SourceGraphic" in2="BackgroundImageFix" result="shape"/><feColorMatrix in="SourceAlpha" type="matrix" values="0 0 0 0 0 0 0 0 0 0 0 0 0 0 0 0 0 0 127 0" result="hardAlpha"/><feOffset dy="2"/><feGaussianBlur stdDeviation="1"/><feComposite in2="hardAlpha" operator="arithmetic" k2="-1" k3="1"/><feColorMatrix type="matrix" values="0 0 0 0 1 0 0 0 0 0.634454 0 0 0 0 0 0 0 0 0.4 0"/><feBlend mode="normal" in2="shape" result="effect1_innerShadow_3643_2433"/></filter><filter id="filter5_d_3643_2433" x="65.007" y="22.38" width="20.006" height="20.004" filterUnits="userSpaceOnUse" color-interpolation-filters="sRGB"><feFlood flood-opacity="0" result="BackgroundImageFix"/><feColorMatrix in="SourceAlpha" type="matrix" values="0 0 0 0 0 0 0 0 0 0 0 0 0 0 0 0 0 0 127 0" result="hardAlpha"/><feOffset/><feGaussianBlur stdDeviation="2"/><feColorMatrix type="matrix" values="0 0 0 0 1 0 0 0 0 0.94902 0 0 0 0 0.305882 0 0 0 1 0"/><feBlend mode="normal" in2="BackgroundImageFix" result="effect1_dropShadow_3643_2433"/><feBlend mode="normal" in="SourceGraphic" in2="effect1_dropShadow_3643_2433" result="shape"/></filter><filter id="filter6_d_3643_2433" x="24.995" y="56.387" width="16.002" height="16.003" filterUnits="userSpaceOnUse" color-interpolation-filters="sRGB"><feFlood flood-opacity="0" result="BackgroundImageFix"/><feColorMatrix in="SourceAlpha" type="matrix" values="0 0 0 0 0 0 0 0 0 0 0 0 0 0 0 0 0 0 127 0" result="hardAlpha"/><feOffset/><feGaussianBlur stdDeviation="2"/><feColorMatrix type="matrix" values="0 0 0 0 1 0 0 0 0 0.94902 0 0 0 0 0.305882 0 0 0 1 0"/><feBlend mode="normal" in2="BackgroundImageFix" result="effect1_dropShadow_3643_2433"/><feBlend mode="normal" in="SourceGraphic" in2="effect1_dropShadow_3643_2433" result="shape"/></filter><filter id="filter7_d_3643_2433" x="22.995" y="28.382" width="12.002" height="12.003" filterUnits="userSpaceOnUse" color-interpolation-filters="sRGB"><feFlood flood-opacity="0" result="BackgroundImageFix"/><feColorMatrix in="SourceAlpha" type="matrix" values="0 0 0 0 0 0 0 0 0 0 0 0 0 0 0 0 0 0 127 0" result="hardAlpha"/><feOffset/><feGaussianBlur stdDeviation="2"/><feColorMatrix type="matrix" values="0 0 0 0 1 0 0 0 0 0.94902 0 0 0 0 0.305882 0 0 0 1 0"/><feBlend mode="normal" in2="BackgroundImageFix" result="effect1_dropShadow_3643_2433"/><feBlend mode="normal" in="SourceGraphic" in2="effect1_dropShadow_3643_2433" result="shape"/></filter><filter id="filter8_d_3643_2433" x="65.007" y="60.389" width="14.002" height="14.003" filterUnits="userSpaceOnUse" color-interpolation-filters="sRGB"><feFlood flood-opacity="0" result="BackgroundImageFix"/><feColorMatrix in="SourceAlpha" type="matrix" values="0 0 0 0 0 0 0 0 0 0 0 0 0 0 0 0 0 0 127 0" result="hardAlpha"/><feOffset/><feGaussianBlur stdDeviation="2"/><feColorMatrix type="matrix" values="0 0 0 0 1 0 0 0 0 0.94902 0 0 0 0 0.305882 0 0 0 1 0"/><feBlend mode="normal" in2="BackgroundImageFix" result="effect1_dropShadow_3643_2433"/><feBlend mode="normal" in="SourceGraphic" in2="effect1_dropShadow_3643_2433" result="shape"/></filter><linearGradient id="paint0_linear_3643_2433" x1="4.988" y1="2.377" x2="4.988" y2="94.398" gradientUnits="userSpaceOnUse"><stop stop-color="#FDE046"/><stop offset="1" stop-color="#F9B800"/></linearGradient><linearGradient id="paint1_linear_3643_2433" x1="18.992" y1="16.379" x2="18.992" y2="80.393" gradientUnits="userSpaceOnUse"><stop stop-color="#FFF550"/><stop offset="1" stop-color="#FFD541"/></linearGradient><linearGradient id="paint2_linear_3643_2433" x1="36.534" y1="33.922" x2="36.534" y2="62.853" gradientUnits="userSpaceOnUse"><stop stop-color="#FFC823"/><stop offset="1" stop-color="#FCA50E"/></linearGradient></defs></svg>