<svg fill="none" height="123" viewBox="0 0 134 123" width="134" xmlns="http://www.w3.org/2000/svg" xmlns:xlink="http://www.w3.org/1999/xlink"><filter id="a" color-interpolation-filters="sRGB" filterUnits="userSpaceOnUse" height="69.3837" width="39.2187" x="31.6953" y="43.4824"><feFlood flood-opacity="0" result="BackgroundImageFix"/><feColorMatrix in="SourceAlpha" result="hardAlpha" type="matrix" values="0 0 0 0 0 0 0 0 0 0 0 0 0 0 0 0 0 0 127 0"/><feOffset dy="3.92185"/><feGaussianBlur stdDeviation="1.96092"/><feColorMatrix type="matrix" values="0 0 0 0 0.61352 0 0 0 0 0.61352 0 0 0 0 0.61352 0 0 0 0.2 0"/><feBlend in2="BackgroundImageFix" mode="darken" result="effect1_dropShadow_3516_6726"/><feBlend in="SourceGraphic" in2="effect1_dropShadow_3516_6726" mode="normal" result="shape"/></filter><filter id="b" color-interpolation-filters="sRGB" filterUnits="userSpaceOnUse" height="69.3837" width="39.2187" x="39.5391" y="49.3652"><feFlood flood-opacity="0" result="BackgroundImageFix"/><feColorMatrix in="SourceAlpha" result="hardAlpha" type="matrix" values="0 0 0 0 0 0 0 0 0 0 0 0 0 0 0 0 0 0 127 0"/><feOffset dy="3.92185"/><feGaussianBlur stdDeviation="1.96092"/><feColorMatrix type="matrix" values="0 0 0 0 0.61352 0 0 0 0 0.61352 0 0 0 0 0.61352 0 0 0 0.2 0"/><feBlend in2="BackgroundImageFix" mode="darken" result="effect1_dropShadow_3516_6726"/><feBlend in="SourceGraphic" in2="effect1_dropShadow_3516_6726" mode="normal" result="shape"/></filter><filter id="c" color-interpolation-filters="sRGB" filterUnits="userSpaceOnUse" height="69.3837" width="39.2187" x="63.0664" y="43.4824"><feFlood flood-opacity="0" result="BackgroundImageFix"/><feColorMatrix in="SourceAlpha" result="hardAlpha" type="matrix" values="0 0 0 0 0 0 0 0 0 0 0 0 0 0 0 0 0 0 127 0"/><feOffset dy="3.92185"/><feGaussianBlur stdDeviation="1.96092"/><feColorMatrix type="matrix" values="0 0 0 0 0.61352 0 0 0 0 0.61352 0 0 0 0 0.61352 0 0 0 0.2 0"/><feBlend in2="BackgroundImageFix" mode="darken" result="effect1_dropShadow_3516_6726"/><feBlend in="SourceGraphic" in2="effect1_dropShadow_3516_6726" mode="normal" result="shape"/></filter><filter id="d" color-interpolation-filters="sRGB" filterUnits="userSpaceOnUse" height="69.3837" width="39.2187" x="55.2266" y="49.3652"><feFlood flood-opacity="0" result="BackgroundImageFix"/><feColorMatrix in="SourceAlpha" result="hardAlpha" type="matrix" values="0 0 0 0 0 0 0 0 0 0 0 0 0 0 0 0 0 0 127 0"/><feOffset dy="3.92185"/><feGaussianBlur stdDeviation="1.96092"/><feColorMatrix type="matrix" values="0 0 0 0 0.61352 0 0 0 0 0.61352 0 0 0 0 0.61352 0 0 0 0.2 0"/><feBlend in2="BackgroundImageFix" mode="darken" result="effect1_dropShadow_3516_6726"/><feBlend in="SourceGraphic" in2="effect1_dropShadow_3516_6726" mode="normal" result="shape"/></filter><filter id="e" color-interpolation-filters="sRGB" filterUnits="userSpaceOnUse" height="69.3837" width="39.2187" x="47.3828" y="53.2861"><feFlood flood-opacity="0" result="BackgroundImageFix"/><feColorMatrix in="SourceAlpha" result="hardAlpha" type="matrix" values="0 0 0 0 0 0 0 0 0 0 0 0 0 0 0 0 0 0 127 0"/><feOffset dy="3.92185"/><feGaussianBlur stdDeviation="1.96092"/><feColorMatrix type="matrix" values="0 0 0 0 0.61352 0 0 0 0 0.61352 0 0 0 0 0.61352 0 0 0 0.2 0"/><feBlend in2="BackgroundImageFix" mode="darken" result="effect1_dropShadow_3516_6726"/><feBlend in="SourceGraphic" in2="effect1_dropShadow_3516_6726" mode="normal" result="shape"/></filter><filter id="f" color-interpolation-filters="sRGB" filterUnits="userSpaceOnUse" height="31.2656" width="70.5938" x="31.6992" y="67.2607"><feFlood flood-opacity="0" result="BackgroundImageFix"/><feBlend in="SourceGraphic" in2="BackgroundImageFix" mode="normal" result="shape"/><feColorMatrix in="SourceAlpha" result="hardAlpha" type="matrix" values="0 0 0 0 0 0 0 0 0 0 0 0 0 0 0 0 0 0 127 0"/><feOffset dy="1.96092"/><feGaussianBlur stdDeviation=".980462"/><feComposite in2="hardAlpha" k2="-1" k3="1" operator="arithmetic"/><feColorMatrix type="matrix" values="0 0 0 0 0.929412 0 0 0 0 0.568627 0 0 0 0 0 0 0 0 0.5 0"/><feBlend in2="shape" mode="normal" result="effect1_innerShadow_3516_6726"/></filter><filter id="g" color-interpolation-filters="sRGB" filterUnits="userSpaceOnUse" height="80.0058" width="76.4883" x="28.7539" y="10.1428"><feFlood flood-opacity="0" result="BackgroundImageFix"/><feColorMatrix in="SourceAlpha" result="hardAlpha" type="matrix" values="0 0 0 0 0 0 0 0 0 0 0 0 0 0 0 0 0 0 127 0"/><feOffset dy=".784369"/><feGaussianBlur stdDeviation=".980462"/><feColorMatrix type="matrix" values="0 0 0 0 1 0 0 0 0 0.909804 0 0 0 0 0.556863 0 0 0 0.4 0"/><feBlend in2="BackgroundImageFix" mode="normal" result="effect1_dropShadow_3516_6726"/><feBlend in="SourceGraphic" in2="effect1_dropShadow_3516_6726" mode="normal" result="shape"/><feColorMatrix in="SourceAlpha" result="hardAlpha" type="matrix" values="0 0 0 0 0 0 0 0 0 0 0 0 0 0 0 0 0 0 127 0"/><feOffset dy="1.96092"/><feGaussianBlur stdDeviation=".980462"/><feComposite in2="hardAlpha" k2="-1" k3="1" operator="arithmetic"/><feColorMatrix type="matrix" values="0 0 0 0 0.31048 0 0 0 0 0.31048 0 0 0 0 0.279572 0 0 0 1 0"/><feBlend in2="shape" mode="normal" result="effect2_innerShadow_3516_6726"/></filter><filter id="h" color-interpolation-filters="sRGB" filterUnits="userSpaceOnUse" height="73.3017" width="66.1093" x="33.9375" y="14.6748"><feFlood flood-opacity="0" result="BackgroundImageFix"/><feColorMatrix in="SourceAlpha" result="hardAlpha" type="matrix" values="0 0 0 0 0 0 0 0 0 0 0 0 0 0 0 0 0 0 127 0"/><feOffset dy="1.96092"/><feGaussianBlur stdDeviation="1.96092"/><feColorMatrix type="matrix" values="0 0 0 0 0.927721 0 0 0 0 0.665867 0 0 0 0 0.0535899 0 0 0 0.4 0"/><feBlend in2="BackgroundImageFix" mode="normal" result="effect1_dropShadow_3516_6726"/><feBlend in="SourceGraphic" in2="effect1_dropShadow_3516_6726" mode="normal" result="shape"/></filter><filter id="i" color-interpolation-filters="sRGB" filterUnits="userSpaceOnUse" height="43.5253" width="50.9843" x="41.5078" y="31.3311"><feFlood flood-opacity="0" result="BackgroundImageFix"/><feColorMatrix in="SourceAlpha" result="hardAlpha" type="matrix" values="0 0 0 0 0 0 0 0 0 0 0 0 0 0 0 0 0 0 127 0"/><feOffset dy="1.96092"/><feGaussianBlur stdDeviation="1.96092"/><feColorMatrix type="matrix" values="0 0 0 0 0.996078 0 0 0 0 0.733333 0 0 0 0 0.105882 0 0 0 1 0"/><feBlend in2="BackgroundImageFix" mode="normal" result="effect1_dropShadow_3516_6726"/><feBlend in="SourceGraphic" in2="effect1_dropShadow_3516_6726" mode="normal" result="shape"/></filter><filter id="j" color-interpolation-filters="sRGB" filterUnits="userSpaceOnUse" height="19.6093" width="19.6093" x="82.6797" y="25.834"><feFlood flood-opacity="0" result="BackgroundImageFix"/><feColorMatrix in="SourceAlpha" result="hardAlpha" type="matrix" values="0 0 0 0 0 0 0 0 0 0 0 0 0 0 0 0 0 0 127 0"/><feOffset/><feGaussianBlur stdDeviation="1.96092"/><feColorMatrix type="matrix" values="0 0 0 0 1 0 0 0 0 0.94902 0 0 0 0 0.305882 0 0 0 1 0"/><feBlend in2="BackgroundImageFix" mode="normal" result="effect1_dropShadow_3516_6726"/><feBlend in="SourceGraphic" in2="effect1_dropShadow_3516_6726" mode="normal" result="shape"/></filter><filter id="k" color-interpolation-filters="sRGB" filterUnits="userSpaceOnUse" height="15.6874" width="15.6874" x="43.4649" y="59.169"><feFlood flood-opacity="0" result="BackgroundImageFix"/><feColorMatrix in="SourceAlpha" result="hardAlpha" type="matrix" values="0 0 0 0 0 0 0 0 0 0 0 0 0 0 0 0 0 0 127 0"/><feOffset/><feGaussianBlur stdDeviation="1.96092"/><feColorMatrix type="matrix" values="0 0 0 0 1 0 0 0 0 0.94902 0 0 0 0 0.305882 0 0 0 1 0"/><feBlend in2="BackgroundImageFix" mode="normal" result="effect1_dropShadow_3516_6726"/><feBlend in="SourceGraphic" in2="effect1_dropShadow_3516_6726" mode="normal" result="shape"/></filter><filter id="l" color-interpolation-filters="sRGB" filterUnits="userSpaceOnUse" height="17.6484" width="17.6484" x="31.6953" y="29.7559"><feFlood flood-opacity="0" result="BackgroundImageFix"/><feColorMatrix in="SourceAlpha" result="hardAlpha" type="matrix" values="0 0 0 0 0 0 0 0 0 0 0 0 0 0 0 0 0 0 127 0"/><feOffset/><feGaussianBlur stdDeviation="1.96092"/><feColorMatrix type="matrix" values="0 0 0 0 1 0 0 0 0 0.94902 0 0 0 0 0.305882 0 0 0 1 0"/><feBlend in2="BackgroundImageFix" mode="normal" result="effect1_dropShadow_3516_6726"/><feBlend in="SourceGraphic" in2="effect1_dropShadow_3516_6726" mode="normal" result="shape"/></filter><filter id="m" color-interpolation-filters="sRGB" filterUnits="userSpaceOnUse" height="13.7265" width="13.7265" x="82.6797" y="61.1299"><feFlood flood-opacity="0" result="BackgroundImageFix"/><feColorMatrix in="SourceAlpha" result="hardAlpha" type="matrix" values="0 0 0 0 0 0 0 0 0 0 0 0 0 0 0 0 0 0 127 0"/><feOffset/><feGaussianBlur stdDeviation="1.96092"/><feColorMatrix type="matrix" values="0 0 0 0 1 0 0 0 0 0.94902 0 0 0 0 0.305882 0 0 0 1 0"/><feBlend in2="BackgroundImageFix" mode="normal" result="effect1_dropShadow_3516_6726"/><feBlend in="SourceGraphic" in2="effect1_dropShadow_3516_6726" mode="normal" result="shape"/></filter><filter id="n" color-interpolation-filters="sRGB" filterUnits="userSpaceOnUse" height="11.7656" width="11.7656" x="74.836" y="41.5205"><feFlood flood-opacity="0" result="BackgroundImageFix"/><feColorMatrix in="SourceAlpha" result="hardAlpha" type="matrix" values="0 0 0 0 0 0 0 0 0 0 0 0 0 0 0 0 0 0 127 0"/><feOffset/><feGaussianBlur stdDeviation="1.96092"/><feColorMatrix type="matrix" values="0 0 0 0 1 0 0 0 0 0.94902 0 0 0 0 0.305882 0 0 0 1 0"/><feBlend in2="BackgroundImageFix" mode="normal" result="effect1_dropShadow_3516_6726"/><feBlend in="SourceGraphic" in2="effect1_dropShadow_3516_6726" mode="normal" result="shape"/></filter><linearGradient id="o"><stop offset="0" stop-color="#75756f"/><stop offset="1" stop-color="#3a342a"/></linearGradient><linearGradient id="p" gradientUnits="userSpaceOnUse" x1="8.17676" x2="8.17676" xlink:href="#o" y1="16.1987" y2="65.2953"/><linearGradient id="q"><stop offset="0" stop-color="#ffdf6b"/><stop offset="1" stop-color="#f8a60a"/></linearGradient><linearGradient id="r" gradientUnits="userSpaceOnUse" x1="23.8086" x2="23.8086" xlink:href="#q" y1="45.4238" y2="65.2953"/><linearGradient id="s" gradientUnits="userSpaceOnUse" x1="4.18509" x2="4.18509" xlink:href="#o" y1="15.9864" y2="65.2208"/><linearGradient id="t" gradientUnits="userSpaceOnUse" x1="19.8906" x2="19.8906" xlink:href="#q" y1="35.6191" y2="55.4906"/><linearGradient id="u" gradientUnits="userSpaceOnUse" x1=".142789" x2=".142789" xlink:href="#o" y1="15.918" y2="65.3703"/><linearGradient id="v" gradientUnits="userSpaceOnUse" x1="15.9648" x2="15.9648" xlink:href="#q" y1="25.8135" y2="45.685"/><linearGradient id="w" gradientUnits="userSpaceOnUse" x1="-3.72049" x2="-3.72049" xlink:href="#o" y1="16.0092" y2="65.3594"/><linearGradient id="x" gradientUnits="userSpaceOnUse" x1="12.047" x2="12.047" xlink:href="#q" y1="16.0092" y2="35.8807"/><linearGradient id="y" gradientUnits="userSpaceOnUse" x1="125.812" x2="125.812" xlink:href="#o" y1="16.1997" y2="65.2963"/><linearGradient id="z" gradientUnits="userSpaceOnUse" x1="110.18" x2="110.18" xlink:href="#q" y1="45.4248" y2="65.2963"/><linearGradient id="A" gradientUnits="userSpaceOnUse" x1="129.811" x2="129.811" xlink:href="#o" y1="15.9874" y2="65.2218"/><linearGradient id="B" gradientUnits="userSpaceOnUse" x1="114.105" x2="114.105" xlink:href="#q" y1="35.6201" y2="55.4916"/><linearGradient id="C" gradientUnits="userSpaceOnUse" x1="133.845" x2="133.845" xlink:href="#o" y1="15.919" y2="65.3713"/><linearGradient id="D" gradientUnits="userSpaceOnUse" x1="118.023" x2="118.023" xlink:href="#q" y1="25.8145" y2="45.686"/><linearGradient id="E" gradientUnits="userSpaceOnUse" x1="137.717" x2="137.717" xlink:href="#o" y1="16.0107" y2="65.3609"/><linearGradient id="F" gradientUnits="userSpaceOnUse" x1="121.949" x2="121.949" xlink:href="#q" y1="16.0107" y2="35.8822"/><linearGradient id="G" gradientUnits="userSpaceOnUse" x1="22.207" x2="22.207" xlink:href="#o" y1="61.1299" y2="78.7341"/><linearGradient id="H" gradientUnits="userSpaceOnUse" x1="22.207" x2="22.207" xlink:href="#q" y1="61.1299" y2="78.7341"/><linearGradient id="I" gradientUnits="userSpaceOnUse" x1="112.105" x2="112.105" xlink:href="#o" y1="61.1299" y2="79.7587"/><linearGradient id="J" gradientUnits="userSpaceOnUse" x1="112.105" x2="112.105" xlink:href="#q" y1="61.1299" y2="79.7587"/><linearGradient id="K" gradientUnits="userSpaceOnUse" x1="49.3477" x2="49.3477" xlink:href="#o" y1=".34082" y2="13.062"/><linearGradient id="L" gradientUnits="userSpaceOnUse" x1="49.3477" x2="49.3477" xlink:href="#q" y1=".34082" y2="13.062"/><linearGradient id="M" gradientUnits="userSpaceOnUse" x1="31.6992" x2="31.6992" y1="67.2637" y2="96.5657"><stop offset="0" stop-color="#f39c05"/><stop offset="1" stop-color="#f59100"/></linearGradient><linearGradient id="N" gradientUnits="userSpaceOnUse" x1="31.6992" x2="31.6992" y1="67.2637" y2="96.5657"><stop offset="0" stop-color="#ffba45"/><stop offset="1" stop-color="#f59100"/></linearGradient><linearGradient id="O" gradientUnits="userSpaceOnUse" x1="35.6094" x2="35.6094" xlink:href="#o" y1=".929688" y2="30.0159"/><linearGradient id="P" gradientUnits="userSpaceOnUse" x1="35.6094" x2="35.6094" xlink:href="#q" y1=".929688" y2="30.0159"/><linearGradient id="Q" gradientUnits="userSpaceOnUse" x1="74.8398" x2="74.8398" xlink:href="#o" y1=".929688" y2="30.0159"/><linearGradient id="R" gradientUnits="userSpaceOnUse" x1="74.8398" x2="74.8398" xlink:href="#q" y1=".929688" y2="30.0159"/><linearGradient id="S" gradientUnits="userSpaceOnUse" x1="21.8945" x2="21.8945" y1="4.2627" y2="94.4652"><stop offset="0" stop-color="#fde046"/><stop offset="1" stop-color="#f9b800"/></linearGradient><linearGradient id="T" gradientUnits="userSpaceOnUse" x1="35.6172" x2="35.6172" y1="17.9902" y2="80.7398"><stop offset="0" stop-color="#fff550"/><stop offset="1" stop-color="#ffd541"/></linearGradient><linearGradient id="U" gradientUnits="userSpaceOnUse" x1="66.9999" x2="66.9999" y1="65.0516" y2="47.4033"><stop offset="0" stop-color="#878787"/><stop offset="1" stop-color="#1f1f1f"/></linearGradient><linearGradient id="V" gradientUnits="userSpaceOnUse" x1="72.8866" x2="72.8866" y1="65.0516" y2="47.4033"><stop offset="0" stop-color="#878787"/><stop offset="1" stop-color="#4e4e4e"/></linearGradient><linearGradient id="W" gradientUnits="userSpaceOnUse" x1="84.6482" x2="84.6482" y1="47.4031" y2="37.2139"><stop offset="0" stop-color="#fff"/><stop offset="1" stop-color="#a8a8a8"/></linearGradient><linearGradient id="X"><stop offset="0" stop-color="#818181"/><stop offset="1" stop-color="#a0a0a0"/></linearGradient><linearGradient id="Y" gradientUnits="userSpaceOnUse" x1="53.2734" x2="53.2734" xlink:href="#X" y1="47.4031" y2="38.9121"/><linearGradient id="Z" gradientUnits="userSpaceOnUse" x1="65.0429" x2="65.0429" xlink:href="#X" y1="47.4031" y2="38.9121"/><linearGradient id="aa" gradientUnits="userSpaceOnUse" x1="76.8086" x2="76.8086" xlink:href="#X" y1="47.4031" y2="38.9121"/><mask id="ab" height="62" maskUnits="userSpaceOnUse" width="32" x="51" y="53"><path clip-rule="evenodd" d="m51.3047 53.2861h31.3748v59.5769c0 1.458-1.5341 2.406-2.8379 1.754l-12.8495-6.425-12.8495 6.425c-1.3039.652-2.8379-.296-2.8379-1.754z" fill="#fff" fill-rule="evenodd"/></mask><mask height="50" maskUnits="userSpaceOnUse" width="36" x="11" y="15"><path clip-rule="evenodd" d="m16.4286 30.0062c-.1672-1.0635-.8633-1.9691-1.8479-2.4045-.6096-.2695-1.0406-.8303-1.1441-1.4887l-1.3754-8.7445c-.0338-.2148-.0074-.4347.0762-.6354.2499-.5998.9387-.8834 1.5386-.6335l8.9258 3.7191c.5438.2266.8981.758.8981 1.3471 0 .5967.3633 1.1333.9173 1.355l6.422 2.5688c1.489.5955 2.4653 2.0376 2.4653 3.6413v3.4687c0 1.2755.7766 2.4226 1.9609 2.8963 1.1844.4738 1.9609 1.6208 1.9609 2.8964v4.0119c0 1.2756.7766 2.4226 1.961 2.8963 1.1843.4738 1.9609 1.6208 1.9609 2.8964v4.0119c0 1.2756.7766 2.4226 1.9609 2.8964 1.1843.4737 1.9609 1.6207 1.9609 2.8963v1.6705c0 2.8349-2.915 4.7333-5.5077 3.5869l-13.216-5.8433c-.6096-.2696-1.0406-.8303-1.1442-1.4888l-.9298-5.9114c-.1672-1.0634-.8633-1.9691-1.8479-2.4044-.6096-.2696-1.0406-.8303-1.1441-1.4888l-.9298-5.9114c-.1673-1.0635-.8633-1.9691-1.8479-2.4045-.6096-.2695-1.0406-.8303-1.1442-1.4887z" fill="#fff" fill-rule="evenodd" stroke="#fff" stroke-width="1.96092"/></mask><mask height="50" maskUnits="userSpaceOnUse" width="36" x="87" y="15"><path clip-rule="evenodd" d="m117.567 30.0081c.168-1.0634.864-1.9691 1.848-2.4044.61-.2696 1.041-.8303 1.145-1.4888l1.375-8.7445c.034-.2147.007-.4346-.076-.6353-.25-.5998-.939-.8835-1.539-.6335l-8.926 3.7191c-.544.2266-.898.7579-.898 1.3471 0 .5967-.363 1.1333-.917 1.3549l-6.422 2.5688c-1.489.5956-2.465 2.0377-2.465 3.6413v3.4687c0 1.2756-.777 2.4226-1.9613 2.8964-1.1844.4737-1.961 1.6208-1.961 2.8963v4.0119c0 1.2756-.7765 2.4227-1.9609 2.8964-1.1843.4737-1.9609 1.6208-1.9609 2.8963v4.012c0 1.2755-.7766 2.4226-1.9609 2.8963-1.1844.4737-1.9609 1.6208-1.9609 2.8964v1.6705c0 2.8348 2.915 4.7332 5.5077 3.5869l13.2162-5.8434c.609-.2695 1.04-.8303 1.144-1.4887l.93-5.9114c.167-1.0635.863-1.9692 1.848-2.4045.609-.2695 1.04-.8303 1.144-1.4887l.93-5.9114c.167-1.0635.863-1.9692 1.848-2.4045.609-.2695 1.04-.8303 1.144-1.4888z" fill="#fff" fill-rule="evenodd" stroke="#fff" stroke-width="1.96092"/></mask><mask id="ac" fill="#fff"><path clip-rule="evenodd" d="m58.2729 16.6102c.5456-.3636.8733-.976.8733-1.6317v-12.08427c0-1.940057-2.5161-2.702007-3.5924-1.08789l-4.9654 7.44648-14.006 8.16848c-.6025.3514-.973.9964-.973 1.6939v8.9364c0 1.5661 1.7453 2.5003 3.0485 1.6317l5.0642-3.3754c.0155-.0098.031-.0199.0465-.0302z" fill="#fff" fill-rule="evenodd"/></mask><mask id="ad" fill="#fff"><path clip-rule="evenodd" d="m75.7132 16.6102c-.5456-.3636-.8734-.976-.8734-1.6317v-12.08427c0-1.940057 2.5161-2.702007 3.5924-1.08789l4.9654 7.44648 14.0061 8.16848c.6025.3514.973.9964.973 1.6939v8.9364c0 1.5661-1.7453 2.5003-3.0485 1.6317l-5.0642-3.3754c-.0156-.0098-.0311-.0199-.0466-.0302z" fill="#fff" fill-rule="evenodd"/></mask><mask id="ae" height="89" maskUnits="userSpaceOnUse" width="80" x="27" y="5"><path clip-rule="evenodd" d="m63.0739 6.52698c2.4269-1.40114 5.4169-1.40115 7.8437-.00001l31.2154 18.02203c2.427 1.4012 3.922 3.9906 3.922 6.7929v36.0441c0 2.8023-1.495 5.3917-3.922 6.7928l-31.2154 18.0221c-2.4268 1.4011-5.4168 1.4011-7.8437 0l-31.2151-18.0221c-2.4268-1.4011-3.9218-3.9905-3.9218-6.7928v-36.0441c0-2.8023 1.495-5.3917 3.9218-6.7929z" fill="#fff" fill-rule="evenodd"/></mask><mask id="af" height="77" maskUnits="userSpaceOnUse" width="74" x="30" y="11"><path clip-rule="evenodd" d="m97.7238 28.1607-27.7558-16.0436c-1.8402-1.0637-4.1074-1.0637-5.9476 0l-27.7558 16.0436c-1.8402 1.0637-2.9738 3.0295-2.9738 5.1569v11.5786l-2.2472 3.3747c-.4383.6583-.4383 1.5154 0 2.1737l2.2472 3.3747v11.5856c0 2.1274 1.1336 4.0932 2.9738 5.1569l27.7558 16.0436c1.8402 1.0637 4.1074 1.0637 5.9476 0l27.7558-16.0436c1.8402-1.0637 2.9742-3.0295 2.9742-5.1569v-11.575l2.254-3.3853c.438-.6583.438-1.5154 0-2.1737l-2.254-3.3853v-11.568c0-2.1274-1.134-4.0932-2.9742-5.1569zm-62.4524 25.6703v11.5736c0 1.4183.7558 2.7288 1.9826 3.4379l27.7558 16.0437c1.2268.7091 2.7383.7091 3.9651 0l27.7557-16.0437c1.2269-.7091 1.9826-2.0196 1.9826-3.4379v-11.5899l-2.2441-3.3701c-.4383-.6583-.4383-1.5154 0-2.1737l2.2441-3.3701v-11.5834c0-1.4183-.7557-2.7288-1.9826-3.4379l-27.7557-16.0437c-1.2268-.7091-2.7383-.7091-3.9651 0l-27.7558 16.0437c-1.2268.7091-1.9826 2.0196-1.9826 3.4379v11.5671l2.255 3.3864c.4383.6583.4383 1.5154 0 2.1737z" fill="#fff" fill-rule="evenodd"/></mask><mask id="ag" height="63" maskUnits="userSpaceOnUse" width="56" x="39" y="18"><path clip-rule="evenodd" d="m65.031 19.1224c1.2135-.7006 2.7085-.7006 3.9219 0l23.2495 13.4231c1.2134.7006 1.9609 1.9953 1.9609 3.3964v26.8462c0 1.4012-.7475 2.6959-1.9609 3.3964l-23.2495 13.4231c-1.2134.7006-2.7084.7006-3.9219 0l-23.2495-13.4231c-1.2134-.7005-1.9609-1.9952-1.9609-3.3964v-26.8462c0-1.4011.7475-2.6958 1.9609-3.3964z" fill="#fff" fill-rule="evenodd"/></mask><mask id="ah" fill="#000" height="36" maskUnits="userSpaceOnUse" width="44" x="45.3516" y="33.2139"><path d="m45.3516 33.2139h44v36h-44z" fill="#fff"/><path clip-rule="evenodd" d="m49.3516 47.4031 5.8827-10.1892h23.5311l5.8828 10.1892zm17.6483 17.6487 17.6483-17.6483h-35.2966z" fill="#000" fill-rule="evenodd"/></mask><path clip-rule="evenodd" d="m61.1078 3.62925c3.6402-2.10171 8.1253-2.10171 11.7655 0l30.7837 17.77295c3.64 2.1017 5.883 5.9858 5.883 10.1892v35.5459c0 4.2034-2.243 8.0875-5.883 10.1892l-30.7837 17.7729c-3.6402 2.1017-8.1252 2.1017-11.7655 0l-30.7836-17.7729c-3.6403-2.1017-5.8828-5.9858-5.8828-10.1892v-35.5459c0-4.2034 2.2425-8.0875 5.8828-10.1892z" fill="#000" fill-rule="evenodd" opacity=".1"/><g filter="url(#a)"><path clip-rule="evenodd" d="m35.6172 43.4824h31.3748v59.5766c0 1.458-1.5341 2.406-2.8379 1.754l-12.8495-6.4247-12.8495 6.4247c-1.3039.652-2.8379-.296-2.8379-1.754z" fill="#7f45f6" fill-rule="evenodd"/></g><g filter="url(#b)"><path clip-rule="evenodd" d="m43.4609 49.3652h31.3748v59.5768c0 1.458-1.534 2.406-2.8379 1.754l-12.8495-6.425-12.8495 6.425c-1.3038.652-2.8379-.296-2.8379-1.754z" fill="#50e2c2" fill-rule="evenodd"/></g><g filter="url(#c)"><path clip-rule="evenodd" d="m66.9883 43.4824h31.3748v59.5766c0 1.458-1.5341 2.406-2.8379 1.754l-12.8495-6.4247-12.8495 6.4247c-1.3039.652-2.8379-.296-2.8379-1.754z" fill="#7f45f6" fill-rule="evenodd"/></g><g filter="url(#d)"><path clip-rule="evenodd" d="m59.1484 49.3652h31.3748v59.5768c0 1.458-1.534 2.406-2.8379 1.754l-12.8495-6.425-12.8495 6.425c-1.3038.652-2.8379-.296-2.8379-1.754z" fill="#50e2c2" fill-rule="evenodd"/></g><g filter="url(#e)"><path clip-rule="evenodd" d="m51.3047 53.2861h31.3748v59.5769c0 1.458-1.5341 2.406-2.8379 1.754l-12.8495-6.425-12.8495 6.425c-1.3039.652-2.8379-.296-2.8379-1.754z" fill="#fff" fill-rule="evenodd"/></g><g mask="url(#ab)"><path d="m59.1484 53.2861h15.6874v62.7495h-15.6874z" fill="#f55462"/></g><g clip-rule="evenodd" fill-rule="evenodd"><path d="m63.0823 13.3936c2.4268-1.4011 5.4168-1.4011 7.8437 0l31.215 18.0221c2.427 1.4011 3.922 3.9905 3.922 6.7928v36.0442c0 2.8022-1.495 5.3917-3.922 6.7928l-31.215 18.0221c-2.4269 1.4014-5.4169 1.4014-7.8437 0l-31.2151-18.0221c-2.4269-1.4011-3.9219-3.9906-3.9219-6.7928v-36.0442c0-2.8023 1.495-5.3917 3.9219-6.7928z" fill="#000" opacity=".1"/><path d="m45.0662 55.4907-9.8046-3.9218v-1.961l-9.8239-4.0933c-.8493-.3538-1.7578.3601-1.6148 1.2689l1.3754 8.7445c.1036.6585.5345 1.2192 1.1442 1.4888l18.7237 8.2785z" fill="url(#p)" stroke="url(#r)" stroke-linecap="round" stroke-linejoin="round" stroke-width="1.96092"/><path d="m41.1482 45.686-9.8046-3.9218v-1.9609l-9.8239-4.0933c-.8492-.3539-1.7577.36-1.6148 1.2688l1.3754 8.7445c.1036.6585.5346 1.2192 1.1442 1.4888l18.7237 8.2785z" fill="url(#s)" stroke="url(#t)" stroke-linecap="round" stroke-linejoin="round" stroke-width="1.96092"/><path d="m37.2225 35.8804-9.8047-3.9219v-1.9609l-9.8239-4.0933c-.8492-.3539-1.7577.36-1.6148 1.2688l1.3754 8.7446c.1036.6584.5346 1.2192 1.1442 1.4887l18.7238 8.2786z" fill="url(#u)" stroke="url(#v)" stroke-linecap="round" stroke-linejoin="round" stroke-width="1.96092"/><path d="m33.3045 26.0761-9.8046-3.9219v-1.9609l-9.8239-4.0933c-.8492-.3538-1.7577.3601-1.6148 1.2689l1.3754 8.7445c.1036.6584.5345 1.2192 1.1442 1.4887l18.7237 8.2786z" fill="url(#w)" stroke="url(#x)" stroke-linecap="round" stroke-linejoin="round" stroke-width="1.96092"/><path d="m88.9221 55.4917 9.8046-3.9219v-1.9609l9.8243-4.0933c.849-.3538 1.757.3601 1.614 1.2689l-1.375 8.7445c-.104.6584-.535 1.2192-1.144 1.4887l-18.7239 8.2786z" fill="url(#y)" stroke="url(#z)" stroke-linecap="round" stroke-linejoin="round" stroke-width="1.96092"/><path d="m92.8478 45.687 9.8042-3.9218v-1.961l9.824-4.0933c.85-.3538 1.758.3601 1.615 1.2689l-1.375 8.7445c-.104.6585-.535 1.2192-1.144 1.4888l-18.7242 8.2785z" fill="url(#A)" stroke="url(#B)" stroke-linecap="round" stroke-linejoin="round" stroke-width="1.96092"/><path d="m96.7658 35.8813 9.8042-3.9218v-1.9609l9.824-4.0933c.85-.3539 1.758.36 1.615 1.2688l-1.375 8.7445c-.104.6585-.535 1.2192-1.144 1.4888l-18.7242 8.2786z" fill="url(#C)" stroke="url(#D)" stroke-linecap="round" stroke-linejoin="round" stroke-width="1.96092"/><path d="m100.692 26.0776 9.804-3.9218v-1.9609l9.824-4.0933c.849-.3539 1.758.36 1.615 1.2688l-1.375 8.7445c-.104.6585-.535 1.2192-1.145 1.4888l-18.723 8.2785z" fill="url(#E)" stroke="url(#F)" stroke-linecap="round" stroke-linejoin="round" stroke-width="1.96092"/><path d="m31.7079 61.1299-6.9143 3.4571c-.5813.2907-.9808.8505-1.0667 1.4948l-1.5094 11.3203c-.1287.9654.9043 1.6603 1.75 1.177l11.6622-6.6641z" fill="url(#G)" stroke="url(#H)" stroke-linecap="round" stroke-linejoin="round" stroke-width="1.96092"/><path d="m102.301 61.1299 6.914 3.4571c.581.2907.981.8505 1.067 1.4948l1.509 11.3203c.129.9654-.904 1.6603-1.75 1.177l-11.662-6.6641z" fill="url(#I)" stroke="url(#J)" stroke-linecap="round" stroke-linejoin="round" stroke-width="1.96092"/></g><path d="m83.1348 10.247c.8784.4953.5268 1.8345-.4816 1.8345h-31.3147c-1.0091 0-1.3601-1.3406-.4805-1.8351l15.6804-8.81585c.2988-.16797.6635-.16774.9621.0006z" fill="url(#K)" stroke="url(#L)" stroke-linecap="round" stroke-linejoin="round" stroke-width="1.96092"/><g filter="url(#f)"><path clip-rule="evenodd" d="m102.292 76.8752c0 .7006-.373 1.3479-.98 1.6982l-28.4334 16.416c-3.6403 2.1018-8.1253 2.1018-11.7655 0l-28.4334-16.416c-.6067-.3503-.9805-.9976-.9805-1.6982v-7.6503c0-1.5115 1.638-2.4547 2.9453-1.6959l26.8388 15.578c3.4088 1.9785 7.6163 1.9785 11.025 0l26.8389-15.578c1.3068-.7588 2.9448.1844 2.9448 1.6959z" fill="url(#M)" fill-rule="evenodd"/></g><path d="m101.312 76.8752c0 .3503-.187.674-.49.8491l-28.4336 16.416c-3.3369 1.9266-7.4482 1.9266-10.7851 0l-28.4334-16.416c-.3033-.1751-.4902-.4988-.4902-.8491v-7.6503c0-.7557.819-1.2273 1.4726-.848l26.8389 15.5781c3.713 2.1552 8.2963 2.1551 12.0093 0l26.8389-15.5781c.6536-.3793 1.4726.0922 1.4726.848z" stroke="url(#N)" stroke-linecap="round" stroke-linejoin="round" stroke-width="1.96092"/><path clip-rule="evenodd" d="m58.2729 16.6102c.5456-.3636.8733-.976.8733-1.6317v-12.08427c0-1.940057-2.5161-2.702007-3.5924-1.08789l-4.9654 7.44648-14.006 8.16848c-.6025.3514-.973.9964-.973 1.6939v8.9364c0 1.5661 1.7453 2.5003 3.0485 1.6317l5.0642-3.3754c.0155-.0098.031-.0199.0465-.0302z" fill="url(#O)" fill-rule="evenodd"/><path d="m58.2729 16.6102 1.0875 1.6317zm-2.7191-14.80386-1.6315-1.087886v.000001zm-4.9654 7.44648.9879 1.69388c.2579-.1504.478-.3576.6436-.606zm-14.006 8.16848.9879 1.6939zm2.0755 12.262-1.0876-1.6317zm5.0642-3.3754-1.0481-1.6573c-.0133.0083-.0264.0169-.0395.0256zm.0465-.0302 1.0876 1.6317zm13.4167-11.2992 2.1751 3.2634c1.0913-.7273 1.7467-1.9519 1.7467-3.2634zm0-12.08427v12.08427h3.9218v-12.08427zm0-.00001c.0083-.01247.014-.01881.0159-.02087.0019-.00205.0015-.00125-.0016.0011-.0031.00232-.0074.00512-.0126.00782-.0052.00267-.0101.00466-.0144.00605-.0086.00279-.0119.00229-.0085.00229.0038 0 .0115.00069.0212.00361.0097.00293.0164.00663.0196.00875.0028.00187-.0002.00048-.0058-.00662-.0028-.00354-.0058-.00794-.0086-.01301-.0028-.00514-.0048-.00984-.0061-.01348-.0013-.00368-.0012-.00461-.0008-.00183.0005.00279.0017.0112.0017.0262h3.9218c0-3.880101-5.0321-5.40402-7.1848-2.175776zm-4.9654 7.44648 4.9654-7.44648-3.263-2.175765-4.9653 7.446485zm-14.6496 8.7745 14.006-8.1685-1.9758-3.38777-14.006 8.16847zm0 0-1.9758-3.3878c-1.205.7028-1.946 1.9928-1.946 3.3878zm0 8.9364v-8.9364h-3.9218v8.9364zm0 0h-3.9218c0 3.1322 3.4906 5.0006 6.0969 3.2634zm5.0642-3.3754-5.0642 3.3754 2.1751 3.2634 5.0642-3.3754zm.0466-.0302c-.0026.0017-.005.0032-.0071.0046l2.0961 3.3146c.029-.0183.0577-.0369.0861-.0558zm14.5042-9.6675-14.5042 9.6675 2.1751 3.2634 14.5042-9.6675z" fill="url(#P)" mask="url(#ac)"/><path clip-rule="evenodd" d="m75.7132 16.6102c-.5456-.3636-.8734-.976-.8734-1.6317v-12.08427c0-1.940057 2.5161-2.702007 3.5924-1.08789l4.9654 7.44648 14.0061 8.16848c.6025.3514.973.9964.973 1.6939v8.9364c0 1.5661-1.7453 2.5003-3.0485 1.6317l-5.0642-3.3754c-.0156-.0098-.0311-.0199-.0466-.0302z" fill="url(#Q)" fill-rule="evenodd"/><path d="m75.7132 16.6102 1.0876-1.6317zm2.719-14.80386-1.6314 1.08788zm4.9654 7.44648-1.6315 1.08788c.1656.2484.3858.4556.6436.606zm14.0061 8.16848-.9879 1.6939zm-2.0755 12.262 1.0876-1.6317zm-5.0642-3.3754 1.0875-1.6317c-.013-.0087-.0261-.0172-.0394-.0256zm-.0466-.0302-1.0875 1.6317zm-17.3385-11.2992c0 1.3115.6555 2.5361 1.7467 3.2634l2.1752-3.2634zm0-12.08427v12.08427h3.9219v-12.08427zm7.1848-2.175775c-2.1526-3.228245-7.1848-1.704324-7.1848 2.175775h3.9219c0-.015.0012-.02341.0016-.0262.0005-.00278.0005-.00185-.0007.00183-.0013.00364-.0033.00834-.0062.01348-.0028.00507-.0058.00947-.0086.01301-.0056.0071-.0086.00849-.0058.00662.0032-.00212.01-.00582.0197-.00875.0096-.00292.0173-.00361.0212-.00361.0033 0 .0001.0005-.0086-.00229-.0042-.00139-.0092-.00339-.0143-.00605-.0052-.0027-.0095-.0055-.0126-.00782-.0031-.00235-.0036-.00315-.0016-.0011.0019.00206.0075.0084.0159.02087zm4.9654 7.446485-4.9654-7.446485-3.2629 2.175765 4.9653 7.44648zm13.3625 7.56246-14.0061-8.16847-1.9758 3.38777 14.0061 8.1685zm1.9464 3.3878c0-1.395-.7414-2.685-1.9464-3.3878l-1.9758 3.3878zm0 8.9364v-8.9364h-3.9222v8.9364zm-6.0974 3.2634c2.6063 1.7372 6.0974-.1312 6.0974-3.2634h-3.9222zm-5.0642-3.3754 5.0642 3.3754 2.1752-3.2634-5.0643-3.3754zm-.0465-.0302c.0285.019.0571.0376.0859.0558l2.0963-3.3146c-.0022-.0014-.0046-.003-.0071-.0046zm-14.5043-9.6675 14.5043 9.6675 2.1751-3.2634-14.5042-9.6675z" fill="url(#R)" mask="url(#ad)"/><path d="m63.0739 6.52698c2.4269-1.40114 5.4169-1.40115 7.8437-.00001l31.2154 18.02203c2.427 1.4012 3.922 3.9906 3.922 6.7929v36.0441c0 2.8023-1.495 5.3917-3.922 6.7928l-31.2154 18.0221c-2.4268 1.4011-5.4168 1.4011-7.8437 0l-31.2151-18.0221c-2.4268-1.4011-3.9218-3.9905-3.9218-6.7928v-36.0441c0-2.8023 1.495-5.3917 3.9218-6.7929z" style="fill-rule:evenodd;clip-rule:evenodd;stroke:#fff04d;stroke-opacity:.4;stroke-width:1.96092;fill:url(#S)"/><g mask="url(#ae)"><path d="m66.9958 49.3638 11.7655-47.06204h-23.5311l11.7656 47.06204-24.9584-41.59736-16.639 16.63896 41.5974 24.9584-47.0622-11.7654v23.5311l47.0622-11.7657-41.5974 24.9586 16.639 16.639 24.9584-41.5976-11.7656 47.0623h23.5311l-11.7655-47.0623 24.9584 41.5976 16.6388-16.639-41.5972-24.9586 47.0622 11.7657v-23.5311l-47.0622 11.7654 41.5972-24.9583-16.6388-16.63904z" fill="#ffd640" opacity=".4"/><g filter="url(#g)"><path clip-rule="evenodd" d="m97.7238 28.1607-27.7558-16.0436c-1.8402-1.0637-4.1074-1.0637-5.9476 0l-27.7558 16.0436c-1.8402 1.0637-2.9738 3.0295-2.9738 5.1569v11.5786l-2.2472 3.3747c-.4383.6583-.4383 1.5154 0 2.1737l2.2472 3.3747v11.5856c0 2.1274 1.1336 4.0932 2.9738 5.1569l27.7558 16.0436c1.8402 1.0637 4.1074 1.0637 5.9476 0l27.7558-16.0436c1.8402-1.0637 2.9742-3.0295 2.9742-5.1569v-11.575l2.254-3.3853c.438-.6583.438-1.5154 0-2.1737l-2.254-3.3853v-11.568c0-2.1274-1.134-4.0932-2.9742-5.1569zm-62.4524 25.6703v11.5736c0 1.4183.7558 2.7288 1.9826 3.4379l27.7558 16.0437c1.2268.7091 2.7383.7091 3.9651 0l27.7557-16.0437c1.2269-.7091 1.9826-2.0196 1.9826-3.4379v-11.5899l-2.2441-3.3701c-.4383-.6583-.4383-1.5154 0-2.1737l2.2441-3.3701v-11.5834c0-1.4183-.7557-2.7288-1.9826-3.4379l-27.7557-16.0437c-1.2268-.7091-2.7383-.7091-3.9651 0l-27.7558 16.0437c-1.2268.7091-1.9826 2.0196-1.9826 3.4379v11.5671l2.255 3.3864c.4383.6583.4383 1.5154 0 2.1737z" fill="#676763" fill-rule="evenodd"/></g><g mask="url(#af)"><g fill="#5a5951" opacity=".4"><path clip-rule="evenodd" d="m66.9958 49.362-47.0622-11.7656v23.5311zm0 0 11.7655-47.0622h-23.5311zm0 0 47.0622 11.7655v-23.5311zm0 0 24.9584-41.5975 16.6388 16.639zm0 0 41.5972 24.9584-16.6388 16.639zm0 0-24.9585 41.5974-16.639-16.639zm0 0 11.7655 47.0621h-23.5311z" fill-rule="evenodd"/><path d="m42.0373 7.7645-16.639 16.639 41.5975 24.9585z"/></g></g><g stroke-width="1.96092"><path d="m70.4319 7.37555c-2.1235-1.22599-4.7398-1.22599-6.8633 0l-31.2151 18.02205c-2.1235 1.226-3.4316 3.4918-3.4316 5.9437v36.0442c0 2.452 1.3081 4.7177 3.4316 5.9437l31.2151 18.0221c2.1235 1.226 4.7398 1.226 6.8633 0l31.2151-18.0221c2.123-1.226 3.432-3.4917 3.432-5.9437v-36.0442c0-2.4519-1.309-4.7177-3.432-5.9437z" stroke="#fab90a"/><path d="m70.4297 91.3512c3.6712-2.1195 6.2724-3.6214 7.8038-4.5055" opacity=".4" stroke="#fff" stroke-linecap="round"/><path d="m105.079 67.3855v-36.0442c0-2.4519-1.309-4.7177-3.432-5.9437l-31.2151-18.02205c-2.1235-1.22599-4.7398-1.22599-6.8633 0l-31.2151 18.02205c-2.1235 1.226-3.4316 3.4918-3.4316 5.9437v36.0442" stroke="#fac81c" stroke-linecap="round"/><path d="m105.079 31.3413c0-2.4519-1.309-4.7177-3.432-5.9437l-31.2151-18.02205c-2.1235-1.22599-4.7398-1.22599-6.8633 0l-31.2151 18.02205c-2.1235 1.226-3.4316 3.4918-3.4316 5.9437" opacity=".6" stroke="#ffe56a" stroke-linecap="round"/><path d="m70.4239 7.37555c-2.1235-1.22599-4.7397-1.22599-6.8632 0 0 0-10.4051 6.00735-15.6076 9.01105" opacity=".6" stroke="#fff" stroke-linecap="round"/><path d="m63.5655 7.37695s-5.5068 3.17935-7.8038 4.50555" stroke="#fff" stroke-linecap="round"/></g></g><g filter="url(#h)"><path clip-rule="evenodd" d="m65.031 19.1224c1.2135-.7006 2.7085-.7006 3.9219 0l23.2495 13.4231c1.2134.7006 1.9609 1.9953 1.9609 3.3964v26.8462c0 1.4012-.7475 2.6959-1.9609 3.3964l-23.2495 13.4231c-1.2134.7006-2.7084.7006-3.9219 0l-23.2495-13.4231c-1.2134-.7005-1.9609-1.9952-1.9609-3.3964v-26.8462c0-1.4011.7475-2.6958 1.9609-3.3964z" fill="url(#T)" fill-rule="evenodd"/><path d="m69.4431 18.2733c-1.5168-.8757-3.3855-.8757-4.9023 0l-23.2495 13.4231c-1.5168.8757-2.4512 2.4941-2.4512 4.2455v26.8462c0 1.7514.9344 3.3698 2.4512 4.2455l23.2495 13.4231c1.5168.8758 3.3855.8758 4.9023 0l23.2495-13.4231c1.5168-.8757 2.4512-2.4941 2.4512-4.2455v-26.8462c0-1.7514-.9344-3.3698-2.4512-4.2455z" stroke="#f5900d" stroke-opacity=".1" stroke-width="1.96092"/></g><g mask="url(#ag)"><g fill="#ffd640" opacity=".3"><path clip-rule="evenodd" d="m66.992 49.365-31.3748 7.8437v-15.6874zm0 0 7.8437-31.3748h-15.6874zm0 0 31.3747-7.8437v15.6874zm0 0 16.639-27.7316 11.0926 11.0926zm0 0 16.639 27.7317 11.0926-11.0927zm0 0-7.8437 31.3748h15.6874zm0 0-16.639 27.7317-11.0927-11.0927z" fill-rule="evenodd"/><path d="m50.353 21.6334-11.0927 11.0926 27.7317 16.639z"/></g><g stroke="#fff" stroke-linecap="round" stroke-width="1.96092"><path d="m91.7158 33.3934-23.2495-13.4232c-.9101-.5254-2.0313-.5254-2.9414 0-2.7344 1.5787-4.6718 2.6973-5.8124 3.3558-2.3737 1.3705-4.3111 2.4891-5.8124 3.3558-2.5832 1.4915-6.4582 3.7286-11.6247 6.7116" opacity=".4"/><path d="m65.5233 19.9697c-2.7343 1.5787-4.6718 2.6973-5.8124 3.3558"/><path d="m91.7182 65.2678-23.2495 13.4231c-.91.5254-2.0313.5254-2.9414 0" opacity=".4"/></g></g><g fill="#fff" filter="url(#i)"><path clip-rule="evenodd" d="m49.3516 47.4031 5.8827-10.1892h23.5311l5.8828 10.1892zm17.6483 17.6487 17.6483-17.6483h-35.2966z" fill-rule="evenodd"/><path d="m55.2343 37.2139v-3.9219c-1.4011 0-2.6958.7475-3.3964 1.9609zm-5.8827 10.1892-3.3965-1.9609c-.7005 1.2134-.7005 2.7084 0 3.9218.7006 1.2135 1.9953 1.961 3.3965 1.961zm29.4138-10.1892 3.3964-1.961c-.7005-1.2134-1.9952-1.9609-3.3964-1.9609zm5.8828 10.1892v3.9219c1.4011 0 2.6958-.7475 3.3964-1.961.7006-1.2134.7006-2.7084 0-3.9218zm0 .0004 2.7731 2.7732c1.1217-1.1216 1.4572-2.8085.8502-4.274s-2.0371-2.421-3.6233-2.421zm-17.6483 17.6483-2.7732 2.7732c1.5316 1.5316 4.0148 1.5316 5.5463 0zm-17.6483-17.6483v-3.9218c-1.5863 0-3.0163.9555-3.6234 2.421-.607 1.4655-.2714 3.1524.8502 4.274zm2.4863-12.1506-5.8828 10.1893 6.7929 3.9218 5.8828-10.1892zm26.9275-1.9609h-23.5311v7.8437h23.5311zm9.2792 12.1502-5.8828-10.1893-6.7928 3.9219 5.8828 10.1892zm-38.693 5.8828h35.2966v-7.8437h-35.2966zm32.5234-6.6946-17.6483 17.6483 5.5463 5.5463 17.6483-17.6483zm-32.5234 6.695h35.2966v-7.8437h-35.2966zm20.4214 10.9533-17.6483-17.6483-5.5463 5.5463 17.6483 17.6483z" mask="url(#ah)"/></g><path clip-rule="evenodd" d="m66.9999 65.0516 17.6483-17.6483h-35.2966z" fill="url(#U)" fill-rule="evenodd"/><path clip-rule="evenodd" d="m67.0039 65.0516-5.8828-17.6483h11.7655z" fill="url(#V)" fill-rule="evenodd"/><path d="m55.2343 37.2139-5.8827 10.1892h35.2966l-5.8828-10.1892z" fill="url(#W)"/><path d="m55.2343 37.2139 5.8828 10.1893h-11.7655z" fill="url(#Y)"/><path d="m67.0039 37.2139 5.8827 10.1893h-11.7655z" fill="url(#Z)"/><path d="m78.7695 37.2139 5.8828 10.1893h-11.7656z" fill="url(#aa)"/><g filter="url(#j)"><path clip-rule="evenodd" d="m88.3878 37.168-1.0184-.4016c-.6228-.2457-.9286-.9497-.683-1.5725.1232-.3125.3706-.5598.683-.683l1.0184-.4017c1.1744-.4631 2.104-1.3927 2.5671-2.5671l.4017-1.0184c.2456-.6228.9497-.9286 1.5725-.683.3124.1232.5598.3706.683.683l.4016 1.0184c.4632 1.1744 1.3928 2.104 2.5672 2.5671l1.0184.4017c.6228.2456.9286.9497.6829 1.5725-.1232.3124-.3705.5598-.6829.683l-1.0184.4016c-1.1744.4632-2.104 1.3928-2.5672 2.5672l-.4016 1.0184c-.2457.6228-.9497.9286-1.5725.6829-.3125-.1232-.5598-.3705-.683-.6829l-.4017-1.0184c-.4631-1.1744-1.3927-2.104-2.5671-2.5672z" fill="#fff" fill-rule="evenodd"/></g><g filter="url(#k)"><path clip-rule="evenodd" d="m48.5775 68.0323-.6789-.2678c-.4152-.1638-.6191-.6331-.4553-1.0484.0821-.2082.247-.3731.4553-.4553l.6789-.2677c.783-.3088 1.4027-.9285 1.7115-1.7115l.2677-.6789c.1638-.4152.6332-.6191 1.0484-.4553.2083.0821.3731.247.4553.4553l.2678.6789c.3087.783.9285 1.4027 1.7114 1.7115l.6789.2677c.4152.1638.6191.6332.4553 1.0484-.0821.2083-.247.3732-.4553.4553l-.6789.2678c-.7829.3087-1.4027.9285-1.7114 1.7114l-.2678.6789c-.1638.4152-.6331.6191-1.0484.4553-.2082-.0821-.3731-.247-.4553-.4553l-.2677-.6789c-.3088-.7829-.9285-1.4027-1.7115-1.7114z" fill="#fff" fill-rule="evenodd"/></g><g filter="url(#l)"><path clip-rule="evenodd" d="m37.1057 39.8545-.8487-.3347c-.519-.2047-.7738-.7914-.5691-1.3104.1027-.2604.3088-.4665.5691-.5691l.8487-.3347c.9787-.386 1.7533-1.1607 2.1393-2.1394l.3347-.8486c.2047-.519.7914-.7738 1.3104-.5691.2604.1026.4665.3087.5692.5691l.3347.8486c.386.9787 1.1606 1.7534 2.1393 2.1394l.8486.3347c.5191.2047.7739.7914.5692 1.3104-.1027.2604-.3088.4664-.5692.5691l-.8486.3347c-.9787.386-1.7533 1.1607-2.1393 2.1393l-.3347.8487c-.2047.519-.7914.7738-1.3105.5691-.2603-.1027-.4664-.3087-.5691-.5691l-.3347-.8487c-.386-.9786-1.1606-1.7533-2.1393-2.1393z" fill="#fff" fill-rule="evenodd"/></g><g filter="url(#m)"><path clip-rule="evenodd" d="m87.4947 68.7578-.5092-.2008c-.3114-.1228-.4643-.4748-.3415-.7862.0616-.1563.1853-.2799.3415-.3415l.5092-.2009c.5872-.2315 1.052-.6963 1.2836-1.2835l.2008-.5092c.1228-.3114.4748-.4643.7862-.3415.1563.0616.2799.1853.3415.3415l.2008.5092c.2316.5872.6964 1.052 1.2836 1.2835l.5092.2009c.3114.1228.4643.4748.3415.7862-.0616.1562-.1853.2799-.3415.3415l-.5092.2008c-.5872.2316-1.052.6964-1.2836 1.2836l-.2008.5092c-.1228.3114-.4748.4643-.7862.3415-.1563-.0616-.2799-.1853-.3415-.3415l-.2008-.5092c-.2316-.5872-.6964-1.052-1.2836-1.2836z" fill="#fff" fill-rule="evenodd"/></g><g filter="url(#n)"><path clip-rule="evenodd" d="m79.3532 47.9131-.3394-.1339c-.2077-.0819-.3096-.3165-.2277-.5242.0411-.1041.1235-.1865.2277-.2276l.3394-.1339c.3915-.1544.7013-.4643.8557-.8557l.1339-.3395c.0819-.2076.3166-.3095.5242-.2276.1041.041.1866.1235.2277.2276l.1338.3395c.1544.3914.4643.7013.8558.8557l.3394.1339c.2076.0819.3096.3166.2277.5242-.0411.1041-.1235.1865-.2277.2276l-.3394.1339c-.3915.1544-.7014.4643-.8558.8557l-.1338.3395c-.0819.2076-.3166.3095-.5242.2276-.1042-.041-.1866-.1235-.2277-.2276l-.1339-.3395c-.1544-.3914-.4642-.7013-.8557-.8557z" fill="#fff" fill-rule="evenodd"/></g></svg>